<?xml version="1.0" encoding="utf-8"?>
<svg xmlns="http://www.w3.org/2000/svg" xmlns:xlink="http://www.w3.org/1999/xlink" width="360" height="240" viewBox="0 0 1440 960">
<defs>
  <clipPath id="clip990">
    <rect x="0" y="0" width="1440" height="960"/>
  </clipPath>
</defs>
<path clip-path="url(#clip990)" d="M0 960 L1440 960 L1440 0 L0 0  Z" fill="#ffffff" fill-rule="evenodd" fill-opacity="1"/>
<defs>
  <clipPath id="clip991">
    <rect x="288" y="0" width="1009" height="960"/>
  </clipPath>
</defs>
<path clip-path="url(#clip990)" d="M212.859 750.427 L1392.76 750.427 L1392.76 47.2441 L212.859 47.2441  Z" fill="#ffffff" fill-rule="evenodd" fill-opacity="1"/>
<defs>
  <clipPath id="clip992">
    <rect x="212" y="47" width="1181" height="704"/>
  </clipPath>
</defs>
<polyline clip-path="url(#clip990)" style="stroke:#000000; stroke-linecap:round; stroke-linejoin:round; stroke-width:4; stroke-opacity:1; fill:none" points="212.859,750.427 1392.76,750.427 "/>
<polyline clip-path="url(#clip990)" style="stroke:#000000; stroke-linecap:round; stroke-linejoin:round; stroke-width:4; stroke-opacity:1; fill:none" points="212.859,47.2441 1392.76,47.2441 "/>
<polyline clip-path="url(#clip990)" style="stroke:#000000; stroke-linecap:round; stroke-linejoin:round; stroke-width:4; stroke-opacity:1; fill:none" points="395.625,750.427 395.625,731.529 "/>
<polyline clip-path="url(#clip990)" style="stroke:#000000; stroke-linecap:round; stroke-linejoin:round; stroke-width:4; stroke-opacity:1; fill:none" points="716.871,750.427 716.871,731.529 "/>
<polyline clip-path="url(#clip990)" style="stroke:#000000; stroke-linecap:round; stroke-linejoin:round; stroke-width:4; stroke-opacity:1; fill:none" points="1038.12,750.427 1038.12,731.529 "/>
<polyline clip-path="url(#clip990)" style="stroke:#000000; stroke-linecap:round; stroke-linejoin:round; stroke-width:4; stroke-opacity:1; fill:none" points="1359.36,750.427 1359.36,731.529 "/>
<polyline clip-path="url(#clip990)" style="stroke:#000000; stroke-linecap:round; stroke-linejoin:round; stroke-width:4; stroke-opacity:1; fill:none" points="395.625,47.2441 395.625,66.1417 "/>
<polyline clip-path="url(#clip990)" style="stroke:#000000; stroke-linecap:round; stroke-linejoin:round; stroke-width:4; stroke-opacity:1; fill:none" points="716.871,47.2441 716.871,66.1417 "/>
<polyline clip-path="url(#clip990)" style="stroke:#000000; stroke-linecap:round; stroke-linejoin:round; stroke-width:4; stroke-opacity:1; fill:none" points="1038.12,47.2441 1038.12,66.1417 "/>
<polyline clip-path="url(#clip990)" style="stroke:#000000; stroke-linecap:round; stroke-linejoin:round; stroke-width:4; stroke-opacity:1; fill:none" points="1359.36,47.2441 1359.36,66.1417 "/>
<path clip-path="url(#clip990)" d="M375.507 799.241 Q375.877 799.612 375.877 800.137 Q375.877 800.661 375.507 801.032 Q375.136 801.403 374.611 801.403 L335.024 801.403 Q334.499 801.403 334.129 801.032 Q333.758 800.661 333.758 800.137 Q333.758 799.612 334.129 799.241 Q334.499 798.87 335.024 798.87 L374.611 798.87 Q375.136 798.87 375.507 799.241 Z" fill="#000000" fill-rule="nonzero" fill-opacity="1" /><path clip-path="url(#clip990)" d="M381.868 795.721 Q381.868 786.426 384.215 781.362 Q387.488 773.827 395.208 773.827 Q396.844 773.827 398.543 774.291 Q400.272 774.723 402.433 776.421 Q404.626 778.12 405.954 780.899 Q408.486 786.272 408.486 795.721 Q408.486 804.954 406.139 809.987 Q402.711 817.336 395.146 817.336 Q392.305 817.336 389.402 815.885 Q386.531 814.434 384.709 810.944 Q381.868 805.726 381.868 795.721 M387.117 794.949 Q387.117 804.49 387.797 808.289 Q388.569 812.396 390.669 814.187 Q392.799 815.947 395.146 815.947 Q397.678 815.947 399.778 814.063 Q401.909 812.149 402.557 808.042 Q403.267 803.996 403.236 794.949 Q403.236 786.148 402.619 782.628 Q401.785 778.521 399.562 776.884 Q397.369 775.217 395.146 775.217 Q394.312 775.217 393.417 775.464 Q392.552 775.711 391.286 776.421 Q390.02 777.132 389.032 778.892 Q388.075 780.652 387.611 783.307 Q387.117 786.735 387.117 794.949 Z" fill="#000000" fill-rule="nonzero" fill-opacity="1" /><path clip-path="url(#clip990)" d="M417.348 814.928 Q416.391 813.909 416.391 812.581 Q416.391 811.253 417.348 810.296 Q418.305 809.308 419.757 809.308 Q421.146 809.308 422.073 810.234 Q423.03 811.129 423.03 812.612 Q423.03 814.063 422.011 815.02 Q421.023 815.947 419.757 815.947 Q418.305 815.947 417.348 814.928 Z" fill="#000000" fill-rule="nonzero" fill-opacity="1" /><path clip-path="url(#clip990)" d="M431.244 807.424 Q431.244 805.54 432.325 804.645 Q433.405 803.749 434.795 803.749 Q436.246 803.749 437.265 804.707 Q438.315 805.633 438.315 807.27 Q438.315 809.03 437.08 810.018 Q435.876 811.006 434.146 810.759 Q435.66 813.291 438.439 814.434 Q441.249 815.576 443.843 815.576 Q446.56 815.576 448.752 813.229 Q450.976 810.882 450.976 805.139 Q450.976 800.26 449.061 797.45 Q447.177 794.64 443.441 794.64 L440.662 794.64 Q439.705 794.64 439.427 794.547 Q439.149 794.455 439.149 793.93 Q439.149 793.312 440.106 793.189 Q441.063 793.189 442.576 793.003 Q446.251 792.88 448.196 789.699 Q449.957 786.735 449.957 782.504 Q449.957 778.645 448.104 777.039 Q446.282 775.402 443.904 775.402 Q441.681 775.402 439.242 776.329 Q436.802 777.255 435.474 779.324 Q439.396 779.324 439.396 782.504 Q439.396 783.894 438.5 784.82 Q437.636 785.716 436.184 785.716 Q434.795 785.716 433.869 784.851 Q432.942 783.956 432.942 782.443 Q432.942 778.83 436.154 776.329 Q439.396 773.827 444.151 773.827 Q448.845 773.827 452.303 776.298 Q455.793 778.768 455.793 782.566 Q455.793 786.303 453.322 789.36 Q450.852 792.417 446.93 793.683 Q451.748 794.64 454.619 797.913 Q457.491 801.156 457.491 805.139 Q457.491 810.08 453.6 813.723 Q449.71 817.336 444.028 817.336 Q438.778 817.336 435.011 814.495 Q431.244 811.654 431.244 807.424 Z" fill="#000000" fill-rule="nonzero" fill-opacity="1" /><path clip-path="url(#clip990)" d="M697 799.241 Q697.37 799.612 697.37 800.137 Q697.37 800.661 697 801.032 Q696.629 801.403 696.104 801.403 L656.517 801.403 Q655.992 801.403 655.622 801.032 Q655.251 800.661 655.251 800.137 Q655.251 799.612 655.622 799.241 Q655.992 798.87 656.517 798.87 L696.104 798.87 Q696.629 798.87 697 799.241 Z" fill="#000000" fill-rule="nonzero" fill-opacity="1" /><path clip-path="url(#clip990)" d="M703.361 795.721 Q703.361 786.426 705.708 781.362 Q708.981 773.827 716.701 773.827 Q718.337 773.827 720.036 774.291 Q721.765 774.723 723.927 776.421 Q726.119 778.12 727.447 780.899 Q729.979 786.272 729.979 795.721 Q729.979 804.954 727.632 809.987 Q724.204 817.336 716.639 817.336 Q713.798 817.336 710.895 815.885 Q708.024 814.434 706.202 810.944 Q703.361 805.726 703.361 795.721 M708.61 794.949 Q708.61 804.49 709.29 808.289 Q710.062 812.396 712.162 814.187 Q714.292 815.947 716.639 815.947 Q719.171 815.947 721.271 814.063 Q723.402 812.149 724.05 808.042 Q724.76 803.996 724.729 794.949 Q724.729 786.148 724.112 782.628 Q723.278 778.521 721.055 776.884 Q718.862 775.217 716.639 775.217 Q715.805 775.217 714.91 775.464 Q714.045 775.711 712.779 776.421 Q711.513 777.132 710.525 778.892 Q709.568 780.652 709.105 783.307 Q708.61 786.735 708.61 794.949 Z" fill="#000000" fill-rule="nonzero" fill-opacity="1" /><path clip-path="url(#clip990)" d="M738.841 814.928 Q737.884 813.909 737.884 812.581 Q737.884 811.253 738.841 810.296 Q739.798 809.308 741.25 809.308 Q742.639 809.308 743.566 810.234 Q744.523 811.129 744.523 812.612 Q744.523 814.063 743.504 815.02 Q742.516 815.947 741.25 815.947 Q739.798 815.947 738.841 814.928 Z" fill="#000000" fill-rule="nonzero" fill-opacity="1" /><path clip-path="url(#clip990)" d="M753.231 815.947 Q753.231 814.804 753.324 814.464 Q753.447 814.125 753.941 813.6 L766.077 800.075 Q772.716 792.602 772.716 786.086 Q772.716 781.856 770.492 778.83 Q768.3 775.804 764.255 775.804 Q761.476 775.804 759.129 777.502 Q756.782 779.2 755.701 782.227 Q755.886 782.165 756.535 782.165 Q758.11 782.165 758.974 783.153 Q759.87 784.141 759.87 785.469 Q759.87 787.167 758.758 788.001 Q757.677 788.804 756.597 788.804 Q756.164 788.804 755.578 788.711 Q755.022 788.619 754.126 787.754 Q753.231 786.858 753.231 785.284 Q753.231 780.868 756.566 777.348 Q759.932 773.827 765.058 773.827 Q770.863 773.827 774.661 777.286 Q778.49 780.713 778.49 786.086 Q778.49 787.97 777.903 789.699 Q777.348 791.398 776.576 792.725 Q775.834 794.053 773.796 796.184 Q771.758 798.315 770.122 799.828 Q768.485 801.341 764.811 804.552 L758.11 811.068 L769.504 811.068 Q775.062 811.068 775.495 810.574 Q776.112 809.678 776.884 804.954 L778.49 804.954 L776.699 815.947 L753.231 815.947 Z" fill="#000000" fill-rule="nonzero" fill-opacity="1" /><path clip-path="url(#clip990)" d="M1019.2 799.241 Q1019.57 799.612 1019.57 800.137 Q1019.57 800.661 1019.2 801.032 Q1018.83 801.403 1018.31 801.403 L978.72 801.403 Q978.196 801.403 977.825 801.032 Q977.454 800.661 977.454 800.137 Q977.454 799.612 977.825 799.241 Q978.196 798.87 978.72 798.87 L1018.31 798.87 Q1018.83 798.87 1019.2 799.241 Z" fill="#000000" fill-rule="nonzero" fill-opacity="1" /><path clip-path="url(#clip990)" d="M1025.56 795.721 Q1025.56 786.426 1027.91 781.362 Q1031.18 773.827 1038.9 773.827 Q1040.54 773.827 1042.24 774.291 Q1043.97 774.723 1046.13 776.421 Q1048.32 778.12 1049.65 780.899 Q1052.18 786.272 1052.18 795.721 Q1052.18 804.954 1049.84 809.987 Q1046.41 817.336 1038.84 817.336 Q1036 817.336 1033.1 815.885 Q1030.23 814.434 1028.41 810.944 Q1025.56 805.726 1025.56 795.721 M1030.81 794.949 Q1030.81 804.49 1031.49 808.289 Q1032.26 812.396 1034.36 814.187 Q1036.5 815.947 1038.84 815.947 Q1041.37 815.947 1043.47 814.063 Q1045.6 812.149 1046.25 808.042 Q1046.96 803.996 1046.93 794.949 Q1046.93 786.148 1046.32 782.628 Q1045.48 778.521 1043.26 776.884 Q1041.07 775.217 1038.84 775.217 Q1038.01 775.217 1037.11 775.464 Q1036.25 775.711 1034.98 776.421 Q1033.72 777.132 1032.73 778.892 Q1031.77 780.652 1031.31 783.307 Q1030.81 786.735 1030.81 794.949 Z" fill="#000000" fill-rule="nonzero" fill-opacity="1" /><path clip-path="url(#clip990)" d="M1061.04 814.928 Q1060.09 813.909 1060.09 812.581 Q1060.09 811.253 1061.04 810.296 Q1062 809.308 1063.45 809.308 Q1064.84 809.308 1065.77 810.234 Q1066.73 811.129 1066.73 812.612 Q1066.73 814.063 1065.71 815.02 Q1064.72 815.947 1063.45 815.947 Q1062 815.947 1061.04 814.928 Z" fill="#000000" fill-rule="nonzero" fill-opacity="1" /><path clip-path="url(#clip990)" d="M1077.9 779.849 L1077.9 777.873 Q1085.5 777.873 1089.42 773.827 Q1090.5 773.827 1090.69 774.074 Q1090.87 774.321 1090.87 775.464 L1090.87 810.944 Q1090.87 812.828 1091.8 813.415 Q1092.73 814.001 1096.77 814.001 L1098.78 814.001 L1098.78 815.947 Q1096.56 815.761 1088.53 815.761 Q1080.5 815.761 1078.31 815.947 L1078.31 814.001 L1080.31 814.001 Q1084.3 814.001 1085.25 813.445 Q1086.21 812.859 1086.21 810.944 L1086.21 778.181 Q1082.91 779.849 1077.9 779.849 Z" fill="#000000" fill-rule="nonzero" fill-opacity="1" /><path clip-path="url(#clip990)" d="M1321.46 795.721 Q1321.46 786.426 1323.81 781.362 Q1327.08 773.827 1334.8 773.827 Q1336.43 773.827 1338.13 774.291 Q1339.86 774.723 1342.02 776.421 Q1344.22 778.12 1345.54 780.899 Q1348.08 786.272 1348.08 795.721 Q1348.08 804.954 1345.73 809.987 Q1342.3 817.336 1334.74 817.336 Q1331.9 817.336 1328.99 815.885 Q1326.12 814.434 1324.3 810.944 Q1321.46 805.726 1321.46 795.721 M1326.71 794.949 Q1326.71 804.49 1327.39 808.289 Q1328.16 812.396 1330.26 814.187 Q1332.39 815.947 1334.74 815.947 Q1337.27 815.947 1339.37 814.063 Q1341.5 812.149 1342.15 808.042 Q1342.86 803.996 1342.83 794.949 Q1342.83 786.148 1342.21 782.628 Q1341.38 778.521 1339.15 776.884 Q1336.96 775.217 1334.74 775.217 Q1333.9 775.217 1333.01 775.464 Q1332.14 775.711 1330.88 776.421 Q1329.61 777.132 1328.62 778.892 Q1327.67 780.652 1327.2 783.307 Q1326.71 786.735 1326.71 794.949 Z" fill="#000000" fill-rule="nonzero" fill-opacity="1" /><path clip-path="url(#clip990)" d="M1356.94 814.928 Q1355.98 813.909 1355.98 812.581 Q1355.98 811.253 1356.94 810.296 Q1357.9 809.308 1359.35 809.308 Q1360.74 809.308 1361.66 810.234 Q1362.62 811.129 1362.62 812.612 Q1362.62 814.063 1361.6 815.02 Q1360.61 815.947 1359.35 815.947 Q1357.9 815.947 1356.94 814.928 Z" fill="#000000" fill-rule="nonzero" fill-opacity="1" /><path clip-path="url(#clip990)" d="M1370.65 795.721 Q1370.65 786.426 1373 781.362 Q1376.27 773.827 1383.99 773.827 Q1385.63 773.827 1387.32 774.291 Q1389.05 774.723 1391.21 776.421 Q1393.41 778.12 1394.73 780.899 Q1397.27 786.272 1397.27 795.721 Q1397.27 804.954 1394.92 809.987 Q1391.49 817.336 1383.93 817.336 Q1381.09 817.336 1378.18 815.885 Q1375.31 814.434 1373.49 810.944 Q1370.65 805.726 1370.65 795.721 M1375.9 794.949 Q1375.9 804.49 1376.58 808.289 Q1377.35 812.396 1379.45 814.187 Q1381.58 815.947 1383.93 815.947 Q1386.46 815.947 1388.56 814.063 Q1390.69 812.149 1391.34 808.042 Q1392.05 803.996 1392.02 794.949 Q1392.02 786.148 1391.4 782.628 Q1390.57 778.521 1388.34 776.884 Q1386.15 775.217 1383.93 775.217 Q1383.09 775.217 1382.2 775.464 Q1381.33 775.711 1380.07 776.421 Q1378.8 777.132 1377.81 778.892 Q1376.86 780.652 1376.39 783.307 Q1375.9 786.735 1375.9 794.949 Z" fill="#000000" fill-rule="nonzero" fill-opacity="1" /><path clip-path="url(#clip990)" d="M672.608 833.496 L672.608 831.622 Q679.811 831.622 683.529 827.786 Q684.554 827.786 684.73 828.021 Q684.905 828.255 684.905 829.338 L684.905 862.979 Q684.905 864.765 685.784 865.321 Q686.662 865.877 690.497 865.877 L692.4 865.877 L692.4 867.722 Q690.292 867.546 682.68 867.546 Q675.068 867.546 672.989 867.722 L672.989 865.877 L674.892 865.877 Q678.669 865.877 679.577 865.35 Q680.484 864.794 680.484 862.979 L680.484 831.915 Q677.351 833.496 672.608 833.496 Z" fill="#000000" fill-rule="nonzero" fill-opacity="1" /><path clip-path="url(#clip990)" d="M636.608 883.722 L734.179 883.722 L734.179 880.522 L636.608 880.522  Z" fill="#000000" fill-rule="evenodd" fill-opacity="1"/>
<path clip-path="url(#clip990)" d="M636.608 941.506 Q636.608 940.423 636.696 940.1 Q636.813 939.778 637.282 939.281 L648.788 926.457 Q655.083 919.372 655.083 913.194 Q655.083 909.183 652.975 906.314 Q650.896 903.444 647.061 903.444 Q644.426 903.444 642.201 905.055 Q639.975 906.665 638.951 909.534 Q639.126 909.476 639.741 909.476 Q641.234 909.476 642.054 910.413 Q642.903 911.349 642.903 912.608 Q642.903 914.219 641.849 915.009 Q640.824 915.77 639.8 915.77 Q639.39 915.77 638.834 915.683 Q638.307 915.595 637.457 914.775 Q636.608 913.926 636.608 912.433 Q636.608 908.246 639.77 904.908 Q642.962 901.571 647.822 901.571 Q653.326 901.571 656.927 904.85 Q660.558 908.1 660.558 913.194 Q660.558 914.98 660.002 916.619 Q659.475 918.23 658.743 919.489 Q658.04 920.748 656.108 922.768 Q654.175 924.788 652.623 926.223 Q651.072 927.657 647.588 930.702 L641.234 936.88 L652.038 936.88 Q657.308 936.88 657.718 936.411 Q658.303 935.562 659.035 931.083 L660.558 931.083 L658.86 941.506 L636.608 941.506 Z" fill="#000000" fill-rule="nonzero" fill-opacity="1" /><path clip-path="url(#clip990)" d="M698.685 917.088 Q698.685 919.137 695.757 919.137 L688.906 919.137 Q687.852 923.998 687.852 928.682 Q687.852 934.274 689.58 938.578 Q689.931 939.427 689.931 939.896 Q689.931 940.774 689.141 941.477 Q688.379 942.179 687.472 942.179 Q686.711 942.179 686.213 941.594 Q685.744 941.008 685.334 939.164 Q684.837 936.997 684.837 934.596 Q684.837 931.727 685.305 928.975 Q685.774 926.193 687.355 919.137 L680.591 919.137 L677.224 932.4 Q676.024 936.88 675.614 938.256 Q675.351 939.076 675.263 939.339 Q675.175 939.603 674.911 940.247 Q674.677 940.862 674.502 941.096 Q674.326 941.301 674.033 941.623 Q673.74 941.974 673.389 942.062 Q673.038 942.179 672.598 942.179 Q671.925 942.179 671.398 941.74 Q670.871 941.33 670.871 940.54 Q670.871 940.013 671.34 939.105 Q676.902 927.101 679.01 919.137 L675.614 919.137 Q670.93 919.137 668.002 923.763 Q667.533 924.378 667.27 924.437 Q667.153 924.466 667.036 924.466 Q666.714 924.466 666.509 924.32 Q666.333 924.173 666.333 924.027 L666.304 923.88 Q666.304 923.705 666.743 922.914 Q667.211 922.094 668.09 920.836 Q668.997 919.577 669.963 918.493 Q670.9 917.498 671.808 916.883 Q672.745 916.239 673.623 916.005 Q674.502 915.77 674.999 915.712 Q675.497 915.653 676.2 915.653 L696.284 915.653 Q697.046 915.653 697.456 915.712 Q697.865 915.741 698.275 916.092 Q698.685 916.415 698.685 917.088 Z" fill="#000000" fill-rule="nonzero" fill-opacity="1" /><path clip-path="url(#clip990)" d="M704.776 924.209 Q704.776 923.451 704.837 923.225 Q704.919 923 705.247 922.651 L713.301 913.675 Q717.708 908.715 717.708 904.391 Q717.708 901.583 716.232 899.574 Q714.777 897.566 712.092 897.566 Q710.248 897.566 708.69 898.693 Q707.132 899.82 706.415 901.829 Q706.538 901.788 706.969 901.788 Q708.014 901.788 708.588 902.444 Q709.182 903.099 709.182 903.981 Q709.182 905.108 708.444 905.661 Q707.727 906.194 707.01 906.194 Q706.723 906.194 706.333 906.133 Q705.964 906.071 705.37 905.497 Q704.776 904.903 704.776 903.858 Q704.776 900.927 706.989 898.591 Q709.223 896.254 712.625 896.254 Q716.478 896.254 718.999 898.55 Q721.54 900.824 721.54 904.391 Q721.54 905.641 721.151 906.788 Q720.782 907.916 720.27 908.797 Q719.778 909.678 718.425 911.092 Q717.072 912.506 715.986 913.511 Q714.9 914.515 712.461 916.646 L708.014 920.971 L715.576 920.971 Q719.265 920.971 719.552 920.643 Q719.962 920.048 720.474 916.913 L721.54 916.913 L720.352 924.209 L704.776 924.209 Z" fill="#000000" fill-rule="nonzero" fill-opacity="1" /><path clip-path="url(#clip990)" d="M755.63 896.972 L755.63 895.127 Q758.822 895.127 759.554 894.747 Q760.286 894.337 760.286 892.404 L760.286 861.223 Q760.286 858.998 759.495 858.442 Q758.734 857.885 755.63 857.885 L755.63 856.012 L764.238 855.368 L764.238 892.404 Q764.238 894.337 764.999 894.747 Q765.761 895.127 768.923 895.127 L768.923 896.972 Q768.191 896.972 766.668 896.913 Q765.146 896.855 764.033 896.825 Q762.921 896.796 762.277 896.796 Q761.574 896.796 755.63 896.972 Z" fill="#000000" fill-rule="nonzero" fill-opacity="1" /><path clip-path="url(#clip990)" d="M772.553 896.972 L772.553 895.127 Q775.744 895.127 776.476 894.747 Q777.208 894.337 777.208 892.404 L777.208 876.331 Q777.208 874.106 776.418 873.549 Q775.657 872.993 772.553 872.993 L772.553 871.119 L780.985 870.475 L780.985 876.77 Q783.796 870.475 789.856 870.475 Q794.365 870.475 796.151 872.7 Q797.469 874.193 797.732 875.862 Q798.025 877.531 798.025 881.864 L798.025 893.312 Q798.084 894.571 799.05 894.864 Q800.016 895.127 802.709 895.127 L802.709 896.972 Q796.59 896.796 795.976 896.796 Q795.507 896.796 789.212 896.972 L789.212 895.127 Q792.404 895.127 793.136 894.747 Q793.897 894.337 793.897 892.404 L793.897 878.439 Q793.897 875.394 792.96 873.608 Q792.023 871.793 789.447 871.793 Q786.343 871.793 783.854 874.398 Q781.366 877.004 781.366 881.396 L781.366 892.404 Q781.366 894.337 782.098 894.747 Q782.859 895.127 786.021 895.127 L786.021 896.972 Q779.902 896.796 779.316 896.796 Q778.848 896.796 772.553 896.972 Z" fill="#000000" fill-rule="nonzero" fill-opacity="1" /><path clip-path="url(#clip990)" d="M819.756 896.181 L819.756 888.276 Q819.756 887.603 819.785 887.368 Q819.814 887.134 819.99 886.959 Q820.166 886.783 820.517 886.783 Q820.927 886.783 821.073 886.959 Q821.249 887.134 821.366 887.808 Q822.274 891.936 824.206 894.132 Q826.168 896.298 829.71 896.298 Q833.077 896.298 834.775 894.805 Q836.473 893.312 836.473 890.853 Q836.473 886.461 830.237 885.348 Q826.636 884.616 825.143 884.148 Q823.65 883.65 822.332 882.567 Q819.756 880.459 819.756 877.472 Q819.756 874.486 822.01 872.29 Q824.294 870.094 829.33 870.094 Q832.697 870.094 834.98 871.793 Q835.654 871.266 836.005 870.826 Q836.796 870.094 837.205 870.094 Q837.674 870.094 837.762 870.416 Q837.85 870.709 837.85 871.558 L837.85 877.59 Q837.85 878.263 837.82 878.497 Q837.791 878.731 837.615 878.907 Q837.44 879.054 837.059 879.054 Q836.386 879.054 836.356 878.497 Q835.888 871.236 829.33 871.236 Q825.787 871.236 824.206 872.612 Q822.625 873.959 822.625 875.804 Q822.625 876.828 823.093 877.619 Q823.591 878.38 824.206 878.849 Q824.85 879.288 826.021 879.727 Q827.192 880.137 827.895 880.283 Q828.627 880.43 830.003 880.722 Q834.805 881.63 836.825 883.592 Q839.343 886.11 839.343 889.301 Q839.343 892.843 836.942 895.244 Q834.541 897.645 829.71 897.645 Q825.816 897.645 823.093 895.039 Q822.742 895.391 822.479 895.713 Q822.215 896.006 822.098 896.123 Q822.01 896.24 821.981 896.328 Q821.952 896.386 821.893 896.445 Q820.693 897.645 820.4 897.645 Q819.931 897.645 819.844 897.323 Q819.756 897.03 819.756 896.181 Z" fill="#000000" fill-rule="nonzero" fill-opacity="1" /><path clip-path="url(#clip990)" d="M841.689 896.972 L841.689 895.127 Q844.88 895.127 845.612 894.747 Q846.344 894.337 846.344 892.404 L846.344 876.272 Q846.344 874.047 845.583 873.52 Q844.851 872.993 841.923 872.993 L841.923 871.119 L850.297 870.475 L850.297 892.463 Q850.297 894.249 850.941 894.688 Q851.585 895.127 854.513 895.127 L854.513 896.972 Q848.394 896.796 848.277 896.796 Q847.457 896.796 841.689 896.972 M844.207 860.023 Q844.207 858.822 845.115 857.856 Q846.052 856.861 847.369 856.861 Q848.687 856.861 849.624 857.768 Q850.56 858.647 850.56 860.052 Q850.56 861.428 849.624 862.336 Q848.687 863.214 847.369 863.214 Q845.993 863.214 845.085 862.248 Q844.207 861.282 844.207 860.023 Z" fill="#000000" fill-rule="nonzero" fill-opacity="1" /><path clip-path="url(#clip990)" d="M858.612 896.972 L858.612 895.127 Q861.803 895.127 862.535 894.747 Q863.267 894.337 863.267 892.404 L863.267 876.331 Q863.267 874.106 862.476 873.549 Q861.715 872.993 858.612 872.993 L858.612 871.119 L867.044 870.475 L867.044 876.77 Q869.855 870.475 875.915 870.475 Q880.424 870.475 882.21 872.7 Q883.527 874.193 883.791 875.862 Q884.084 877.531 884.084 881.864 L884.084 893.312 Q884.142 894.571 885.108 894.864 Q886.075 895.127 888.768 895.127 L888.768 896.972 Q882.649 896.796 882.034 896.796 Q881.566 896.796 875.271 896.972 L875.271 895.127 Q878.462 895.127 879.194 894.747 Q879.955 894.337 879.955 892.404 L879.955 878.439 Q879.955 875.394 879.019 873.608 Q878.082 871.793 875.505 871.793 Q872.402 871.793 869.913 874.398 Q867.424 877.004 867.424 881.396 L867.424 892.404 Q867.424 894.337 868.156 894.747 Q868.918 895.127 872.08 895.127 L872.08 896.972 Q865.961 896.796 865.375 896.796 Q864.907 896.796 858.612 896.972 Z" fill="#000000" fill-rule="nonzero" fill-opacity="1" /><path clip-path="url(#clip990)" d="M943.866 842.582 Q943.866 844.631 940.938 844.631 L934.087 844.631 Q933.033 849.492 933.033 854.176 Q933.033 859.768 934.761 864.072 Q935.112 864.921 935.112 865.39 Q935.112 866.268 934.322 866.971 Q933.56 867.673 932.653 867.673 Q931.892 867.673 931.394 867.088 Q930.925 866.502 930.515 864.658 Q930.018 862.491 930.018 860.09 Q930.018 857.221 930.486 854.469 Q930.955 851.687 932.536 844.631 L925.772 844.631 L922.405 857.894 Q921.205 862.374 920.795 863.75 Q920.532 864.57 920.444 864.833 Q920.356 865.097 920.092 865.741 Q919.858 866.356 919.683 866.59 Q919.507 866.795 919.214 867.117 Q918.921 867.468 918.57 867.556 Q918.219 867.673 917.78 867.673 Q917.106 867.673 916.579 867.234 Q916.052 866.824 916.052 866.034 Q916.052 865.507 916.521 864.599 Q922.083 852.595 924.191 844.631 L920.795 844.631 Q916.111 844.631 913.183 849.257 Q912.714 849.872 912.451 849.931 Q912.334 849.96 912.217 849.96 Q911.895 849.96 911.69 849.814 Q911.514 849.667 911.514 849.521 L911.485 849.374 Q911.485 849.199 911.924 848.408 Q912.392 847.588 913.271 846.329 Q914.178 845.071 915.144 843.987 Q916.081 842.992 916.989 842.377 Q917.926 841.733 918.804 841.499 Q919.683 841.264 920.18 841.206 Q920.678 841.147 921.381 841.147 L941.465 841.147 Q942.227 841.147 942.637 841.206 Q943.046 841.235 943.456 841.586 Q943.866 841.909 943.866 842.582 Z" fill="#000000" fill-rule="nonzero" fill-opacity="1" /><path clip-path="url(#clip990)" d="M969.235 829.407 Q969.235 832.071 968.269 835.057 Q967.332 838.015 965.927 840.562 Q964.551 843.109 962.648 845.715 Q960.745 848.32 959.134 850.165 Q957.524 852.009 955.855 853.678 Q954.947 854.586 954.538 855.201 Q954.42 855.376 954.333 856.752 Q954.245 858.099 954.245 858.597 Q954.245 866.414 957.905 866.414 Q960.949 866.414 965.693 861.73 Q966.307 861.173 966.483 861.173 Q966.834 861.173 967.01 861.437 Q967.186 861.7 967.186 861.905 Q967.186 862.286 965.78 863.574 Q964.404 864.863 963.555 865.448 Q960.393 867.732 957.787 867.732 Q952.225 867.732 951.083 858.538 Q949.853 859.768 948.916 860.588 Q947.657 861.847 947.306 862.14 Q946.955 862.432 946.75 862.432 Q946.486 862.432 946.252 862.169 Q946.047 861.905 946.047 861.671 Q946.047 861.496 946.34 861.056 L950.936 856.694 Q950.936 846.798 955.679 835.994 Q956.001 835.233 956.47 834.267 Q956.938 833.271 958.022 831.456 Q959.105 829.641 960.188 828.265 Q961.301 826.86 962.794 825.806 Q964.287 824.722 965.693 824.722 Q969.235 824.722 969.235 829.407 M967.801 829.173 Q967.801 826.04 965.751 826.04 Q964.434 826.04 963.409 827.387 Q962.413 828.733 960.949 831.69 Q959.427 834.823 957.875 840.181 Q956.353 845.51 955.709 848.438 Q955.094 851.365 954.86 852.683 Q967.801 839.215 967.801 829.173 Z" fill="#000000" fill-rule="nonzero" fill-opacity="1" /><path clip-path="url(#clip990)" d="M911.485 883.722 L975.406 883.722 L975.406 880.522 L911.485 880.522  Z" fill="#000000" fill-rule="evenodd" fill-opacity="1"/>
<path clip-path="url(#clip990)" d="M958.502 922.273 Q958.502 922.448 958.267 923.122 L953.524 936.063 Q953.261 936.824 952.997 936.97 Q952.734 937.087 951.651 937.087 L923.895 937.087 Q923.222 937.087 922.958 937.058 Q922.695 937.029 922.49 936.882 Q922.285 936.736 922.285 936.414 Q922.285 935.828 922.49 935.565 Q922.724 935.301 922.987 935.272 Q923.251 935.243 923.895 935.243 Q925.359 935.243 926.237 935.155 Q927.116 935.067 927.672 934.95 Q928.257 934.804 928.55 934.394 Q928.872 933.984 929.019 933.632 Q929.165 933.252 929.37 932.403 L937.392 900.197 Q937.626 899.231 937.626 899.084 Q937.626 898.528 937.275 898.382 Q936.953 898.206 936.016 898.118 L933.732 898.001 Q933.03 898.001 932.737 897.972 Q932.473 897.943 932.269 897.796 Q932.064 897.65 932.064 897.328 Q932.064 896.771 932.269 896.508 Q932.503 896.215 932.678 896.186 Q932.883 896.127 933.205 896.127 L941.169 896.303 L950.04 896.127 Q951.007 896.127 951.007 896.859 Q951.007 897.679 950.597 897.855 Q950.187 898.001 948.723 898.001 Q945.912 898.001 944.624 898.294 Q943.365 898.587 943.014 899.084 Q942.692 899.553 942.369 900.812 L934.259 933.193 Q933.967 934.277 933.967 934.569 Q933.967 934.891 934.113 935.009 Q934.289 935.096 934.757 935.155 Q935.284 935.243 936.075 935.243 L941.696 935.243 Q943.394 935.243 944.887 934.979 Q946.381 934.716 947.522 934.335 Q948.694 933.955 949.748 933.252 Q950.802 932.549 951.534 931.934 Q952.295 931.29 953.027 930.295 Q953.788 929.27 954.227 928.567 Q954.696 927.835 955.223 926.664 Q955.75 925.464 956.013 924.791 Q956.306 924.088 956.745 922.887 Q957.009 922.273 957.096 922.097 Q957.184 921.921 957.331 921.775 Q957.506 921.628 957.77 921.628 Q958.121 921.628 958.297 921.833 Q958.502 922.038 958.502 922.273 Z" fill="#000000" fill-rule="nonzero" fill-opacity="1" /><polyline clip-path="url(#clip990)" style="stroke:#000000; stroke-linecap:round; stroke-linejoin:round; stroke-width:4; stroke-opacity:1; fill:none" points="212.859,750.427 212.859,47.2441 "/>
<polyline clip-path="url(#clip990)" style="stroke:#000000; stroke-linecap:round; stroke-linejoin:round; stroke-width:4; stroke-opacity:1; fill:none" points="1392.76,750.427 1392.76,47.2441 "/>
<polyline clip-path="url(#clip990)" style="stroke:#000000; stroke-linecap:round; stroke-linejoin:round; stroke-width:4; stroke-opacity:1; fill:none" points="212.859,723.769 231.756,723.769 "/>
<polyline clip-path="url(#clip990)" style="stroke:#000000; stroke-linecap:round; stroke-linejoin:round; stroke-width:4; stroke-opacity:1; fill:none" points="212.859,571.196 231.756,571.196 "/>
<polyline clip-path="url(#clip990)" style="stroke:#000000; stroke-linecap:round; stroke-linejoin:round; stroke-width:4; stroke-opacity:1; fill:none" points="212.859,418.623 231.756,418.623 "/>
<polyline clip-path="url(#clip990)" style="stroke:#000000; stroke-linecap:round; stroke-linejoin:round; stroke-width:4; stroke-opacity:1; fill:none" points="212.859,266.051 231.756,266.051 "/>
<polyline clip-path="url(#clip990)" style="stroke:#000000; stroke-linecap:round; stroke-linejoin:round; stroke-width:4; stroke-opacity:1; fill:none" points="212.859,113.478 231.756,113.478 "/>
<polyline clip-path="url(#clip990)" style="stroke:#000000; stroke-linecap:round; stroke-linejoin:round; stroke-width:4; stroke-opacity:1; fill:none" points="1392.76,723.769 1373.86,723.769 "/>
<polyline clip-path="url(#clip990)" style="stroke:#000000; stroke-linecap:round; stroke-linejoin:round; stroke-width:4; stroke-opacity:1; fill:none" points="1392.76,571.196 1373.86,571.196 "/>
<polyline clip-path="url(#clip990)" style="stroke:#000000; stroke-linecap:round; stroke-linejoin:round; stroke-width:4; stroke-opacity:1; fill:none" points="1392.76,418.623 1373.86,418.623 "/>
<polyline clip-path="url(#clip990)" style="stroke:#000000; stroke-linecap:round; stroke-linejoin:round; stroke-width:4; stroke-opacity:1; fill:none" points="1392.76,266.051 1373.86,266.051 "/>
<polyline clip-path="url(#clip990)" style="stroke:#000000; stroke-linecap:round; stroke-linejoin:round; stroke-width:4; stroke-opacity:1; fill:none" points="1392.76,113.478 1373.86,113.478 "/>
<path clip-path="url(#clip990)" d="M114.74 725.143 Q114.74 715.848 117.087 710.784 Q120.36 703.249 128.08 703.249 Q129.717 703.249 131.415 703.713 Q133.144 704.145 135.306 705.843 Q137.498 707.542 138.826 710.321 Q141.358 715.694 141.358 725.143 Q141.358 734.376 139.011 739.409 Q135.584 746.758 128.018 746.758 Q125.177 746.758 122.275 745.307 Q119.403 743.855 117.581 740.366 Q114.74 735.148 114.74 725.143 M119.99 724.371 Q119.99 733.912 120.669 737.711 Q121.441 741.817 123.541 743.608 Q125.671 745.369 128.018 745.369 Q130.55 745.369 132.65 743.485 Q134.781 741.57 135.429 737.463 Q136.139 733.418 136.109 724.371 Q136.109 715.57 135.491 712.05 Q134.657 707.943 132.434 706.306 Q130.242 704.639 128.018 704.639 Q127.184 704.639 126.289 704.886 Q125.424 705.133 124.158 705.843 Q122.892 706.553 121.904 708.314 Q120.947 710.074 120.484 712.729 Q119.99 716.157 119.99 724.371 Z" fill="#000000" fill-rule="nonzero" fill-opacity="1" /><path clip-path="url(#clip990)" d="M150.22 744.35 Q149.263 743.331 149.263 742.003 Q149.263 740.675 150.22 739.718 Q151.178 738.73 152.629 738.73 Q154.018 738.73 154.945 739.656 Q155.902 740.551 155.902 742.034 Q155.902 743.485 154.883 744.442 Q153.895 745.369 152.629 745.369 Q151.178 745.369 150.22 744.35 Z" fill="#000000" fill-rule="nonzero" fill-opacity="1" /><path clip-path="url(#clip990)" d="M163.221 734.931 L163.221 732.986 L182.644 703.311 Q183.138 702.539 183.91 702.57 Q184.62 702.57 184.774 702.848 Q184.929 703.126 184.929 704.207 L184.929 732.986 L191.259 732.986 L191.259 734.931 L184.929 734.931 L184.929 740.428 Q184.929 742.25 185.67 742.836 Q186.442 743.423 189.715 743.423 L191.043 743.423 L191.043 745.369 Q188.449 745.183 182.458 745.183 Q176.499 745.183 173.905 745.369 L173.905 743.423 L175.233 743.423 Q178.506 743.423 179.278 742.867 Q180.05 742.281 180.05 740.428 L180.05 734.931 L163.221 734.931 M165.011 732.986 L180.42 732.986 L180.42 709.394 L165.011 732.986 Z" fill="#000000" fill-rule="nonzero" fill-opacity="1" /><path clip-path="url(#clip990)" d="M115.636 572.57 Q115.636 563.276 117.982 558.211 Q121.256 550.677 128.975 550.677 Q130.612 550.677 132.31 551.14 Q134.04 551.572 136.201 553.271 Q138.394 554.969 139.721 557.748 Q142.254 563.121 142.254 572.57 Q142.254 581.803 139.907 586.836 Q136.479 594.186 128.914 594.186 Q126.073 594.186 123.17 592.734 Q120.298 591.283 118.477 587.794 Q115.636 582.575 115.636 572.57 M120.885 571.798 Q120.885 581.34 121.564 585.138 Q122.336 589.245 124.436 591.036 Q126.567 592.796 128.914 592.796 Q131.446 592.796 133.546 590.912 Q135.676 588.998 136.325 584.891 Q137.035 580.846 137.004 571.798 Q137.004 562.998 136.386 559.477 Q135.553 555.37 133.329 553.734 Q131.137 552.066 128.914 552.066 Q128.08 552.066 127.184 552.313 Q126.32 552.56 125.054 553.271 Q123.788 553.981 122.8 555.741 Q121.842 557.501 121.379 560.157 Q120.885 563.584 120.885 571.798 Z" fill="#000000" fill-rule="nonzero" fill-opacity="1" /><path clip-path="url(#clip990)" d="M151.116 591.777 Q150.159 590.758 150.159 589.43 Q150.159 588.102 151.116 587.145 Q152.073 586.157 153.524 586.157 Q154.914 586.157 155.84 587.083 Q156.798 587.979 156.798 589.461 Q156.798 590.912 155.779 591.87 Q154.79 592.796 153.524 592.796 Q152.073 592.796 151.116 591.777 Z" fill="#000000" fill-rule="nonzero" fill-opacity="1" /><path clip-path="url(#clip990)" d="M165.011 572.817 Q165.011 562.874 170.076 556.791 Q175.14 550.677 181.655 550.677 Q185.454 550.677 187.553 552.622 Q189.684 554.537 189.684 557.501 Q189.684 559.138 188.727 559.848 Q187.769 560.558 186.781 560.558 Q185.639 560.558 184.743 559.786 Q183.848 559.014 183.848 557.625 Q183.848 554.784 187.337 554.784 Q185.701 552.252 181.779 552.252 Q180.575 552.252 179.339 552.622 Q178.104 552.962 176.499 554.135 Q174.893 555.309 173.658 557.161 Q172.423 559.014 171.558 562.504 Q170.693 565.993 170.693 570.532 L170.693 572.045 Q173.287 565.777 178.598 565.808 Q183.91 565.808 187.584 569.853 Q191.259 573.898 191.259 579.889 Q191.259 586.033 187.43 590.11 Q183.601 594.186 178.228 594.186 Q175.819 594.186 173.627 593.167 Q171.465 592.178 169.427 589.893 Q167.42 587.608 166.216 583.223 Q165.011 578.839 165.011 572.817 M170.817 578.499 Q170.817 584.706 171.959 587.67 Q172.145 588.164 172.546 588.843 Q172.978 589.523 173.689 590.418 Q174.43 591.283 175.634 591.87 Q176.838 592.425 178.228 592.425 Q182.458 592.425 184.496 588.319 Q185.577 586.033 185.577 579.827 Q185.577 573.497 184.435 571.181 Q182.489 567.259 178.537 567.259 Q175.881 567.259 174.028 569.081 Q172.206 570.903 171.496 573.342 Q170.817 575.782 170.817 578.499 Z" fill="#000000" fill-rule="nonzero" fill-opacity="1" /><path clip-path="url(#clip990)" d="M115.636 419.998 Q115.636 410.703 117.982 405.639 Q121.256 398.104 128.975 398.104 Q130.612 398.104 132.31 398.567 Q134.04 399 136.201 400.698 Q138.394 402.396 139.721 405.176 Q142.254 410.549 142.254 419.998 Q142.254 429.23 139.907 434.264 Q136.479 441.613 128.914 441.613 Q126.073 441.613 123.17 440.162 Q120.298 438.71 118.477 435.221 Q115.636 430.002 115.636 419.998 M120.885 419.226 Q120.885 428.767 121.564 432.565 Q122.336 436.672 124.436 438.463 Q126.567 440.223 128.914 440.223 Q131.446 440.223 133.546 438.34 Q135.676 436.425 136.325 432.318 Q137.035 428.273 137.004 419.226 Q137.004 410.425 136.386 406.905 Q135.553 402.798 133.329 401.161 Q131.137 399.494 128.914 399.494 Q128.08 399.494 127.184 399.741 Q126.32 399.988 125.054 400.698 Q123.788 401.408 122.8 403.168 Q121.842 404.929 121.379 407.584 Q120.885 411.012 120.885 419.226 Z" fill="#000000" fill-rule="nonzero" fill-opacity="1" /><path clip-path="url(#clip990)" d="M151.116 439.204 Q150.159 438.185 150.159 436.858 Q150.159 435.53 151.116 434.573 Q152.073 433.584 153.524 433.584 Q154.914 433.584 155.84 434.511 Q156.798 435.406 156.798 436.889 Q156.798 438.34 155.779 439.297 Q154.79 440.223 153.524 440.223 Q152.073 440.223 151.116 439.204 Z" fill="#000000" fill-rule="nonzero" fill-opacity="1" /><path clip-path="url(#clip990)" d="M165.011 430.682 Q165.011 423.61 174.121 419.04 Q170.199 416.385 169.489 415.613 Q166.71 412.525 166.71 408.665 Q166.71 404.249 170.045 401.192 Q173.411 398.104 178.166 398.104 Q182.705 398.104 186.133 400.729 Q189.56 403.354 189.56 407.522 Q189.56 413.389 181.902 417.342 Q186.967 420.492 188.171 421.819 Q191.259 425.247 191.259 429.601 Q191.259 434.665 187.368 438.155 Q183.477 441.613 178.104 441.613 Q172.855 441.613 168.933 438.556 Q165.011 435.499 165.011 430.682 M168.161 430.682 Q168.161 434.603 171.095 437.228 Q174.059 439.853 178.166 439.853 Q182.149 439.853 185.114 437.568 Q188.109 435.283 188.109 431.886 Q188.109 430.558 187.646 429.416 Q187.214 428.273 186.318 427.378 Q185.454 426.451 184.898 426.05 Q184.373 425.618 183.354 424.907 L175.572 419.998 Q168.161 424.105 168.161 430.682 M169.489 406.195 Q169.489 409.221 172.67 411.321 L180.513 416.385 Q186.781 412.71 186.781 407.522 Q186.781 404.157 184.218 401.933 Q181.655 399.679 178.104 399.679 Q174.615 399.679 172.052 401.532 Q169.489 403.354 169.489 406.195 Z" fill="#000000" fill-rule="nonzero" fill-opacity="1" /><path clip-path="url(#clip990)" d="M118.6 251.553 L118.6 249.577 Q126.196 249.577 130.118 245.532 Q131.199 245.532 131.384 245.779 Q131.569 246.026 131.569 247.168 L131.569 282.649 Q131.569 284.532 132.496 285.119 Q133.422 285.706 137.467 285.706 L139.474 285.706 L139.474 287.651 Q137.251 287.466 129.223 287.466 Q121.194 287.466 119.001 287.651 L119.001 285.706 L121.009 285.706 Q124.992 285.706 125.949 285.15 Q126.907 284.563 126.907 282.649 L126.907 249.886 Q123.602 251.553 118.6 251.553 Z" fill="#000000" fill-rule="nonzero" fill-opacity="1" /><path clip-path="url(#clip990)" d="M150.931 286.632 Q149.973 285.613 149.973 284.285 Q149.973 282.957 150.931 282 Q151.888 281.012 153.339 281.012 Q154.729 281.012 155.655 281.938 Q156.612 282.834 156.612 284.316 Q156.612 285.767 155.593 286.725 Q154.605 287.651 153.339 287.651 Q151.888 287.651 150.931 286.632 Z" fill="#000000" fill-rule="nonzero" fill-opacity="1" /><path clip-path="url(#clip990)" d="M164.641 267.425 Q164.641 258.13 166.988 253.066 Q170.261 245.532 177.981 245.532 Q179.617 245.532 181.316 245.995 Q183.045 246.427 185.206 248.126 Q187.399 249.824 188.727 252.603 Q191.259 257.976 191.259 267.425 Q191.259 276.658 188.912 281.691 Q185.484 289.04 177.919 289.04 Q175.078 289.04 172.175 287.589 Q169.304 286.138 167.482 282.649 Q164.641 277.43 164.641 267.425 M169.89 266.653 Q169.89 276.195 170.57 279.993 Q171.342 284.1 173.442 285.891 Q175.572 287.651 177.919 287.651 Q180.451 287.651 182.551 285.767 Q184.682 283.853 185.33 279.746 Q186.04 275.701 186.009 266.653 Q186.009 257.853 185.392 254.332 Q184.558 250.225 182.335 248.589 Q180.142 246.921 177.919 246.921 Q177.085 246.921 176.19 247.168 Q175.325 247.415 174.059 248.126 Q172.793 248.836 171.805 250.596 Q170.848 252.356 170.384 255.012 Q169.89 258.439 169.89 266.653 Z" fill="#000000" fill-rule="nonzero" fill-opacity="1" /><path clip-path="url(#clip990)" d="M119.279 98.9806 L119.279 97.0043 Q126.876 97.0043 130.797 92.9592 Q131.878 92.9592 132.063 93.2062 Q132.249 93.4532 132.249 94.5958 L132.249 130.076 Q132.249 131.96 133.175 132.546 Q134.101 133.133 138.147 133.133 L140.154 133.133 L140.154 135.078 Q137.93 134.893 129.902 134.893 Q121.873 134.893 119.681 135.078 L119.681 133.133 L121.688 133.133 Q125.671 133.133 126.629 132.577 Q127.586 131.99 127.586 130.076 L127.586 97.3131 Q124.282 98.9806 119.279 98.9806 Z" fill="#000000" fill-rule="nonzero" fill-opacity="1" /><path clip-path="url(#clip990)" d="M151.61 134.059 Q150.653 133.04 150.653 131.713 Q150.653 130.385 151.61 129.427 Q152.567 128.439 154.018 128.439 Q155.408 128.439 156.334 129.366 Q157.292 130.261 157.292 131.743 Q157.292 133.195 156.273 134.152 Q155.285 135.078 154.018 135.078 Q152.567 135.078 151.61 134.059 Z" fill="#000000" fill-rule="nonzero" fill-opacity="1" /><path clip-path="url(#clip990)" d="M166 135.078 Q166 133.936 166.092 133.596 Q166.216 133.257 166.71 132.732 L178.845 119.206 Q185.484 111.734 185.484 105.218 Q185.484 100.988 183.261 97.9616 Q181.069 94.9354 177.024 94.9354 Q174.244 94.9354 171.898 96.6338 Q169.551 98.3321 168.47 101.358 Q168.655 101.297 169.304 101.297 Q170.879 101.297 171.743 102.285 Q172.639 103.273 172.639 104.601 Q172.639 106.299 171.527 107.133 Q170.446 107.936 169.365 107.936 Q168.933 107.936 168.346 107.843 Q167.791 107.75 166.895 106.886 Q166 105.99 166 104.415 Q166 99.9996 169.335 96.4794 Q172.7 92.9592 177.826 92.9592 Q183.632 92.9592 187.43 96.4176 Q191.259 99.8452 191.259 105.218 Q191.259 107.102 190.672 108.831 Q190.116 110.529 189.344 111.857 Q188.603 113.185 186.565 115.316 Q184.527 117.446 182.891 118.959 Q181.254 120.473 177.579 123.684 L170.879 130.199 L182.273 130.199 Q187.831 130.199 188.264 129.705 Q188.881 128.81 189.653 124.085 L191.259 124.085 L189.468 135.078 L166 135.078 Z" fill="#000000" fill-rule="nonzero" fill-opacity="1" /><path clip-path="url(#clip990)" d="M46.5758 375.872 L50.9675 379.239 Q51.8166 379.942 52.4314 380.937 Q53.0462 381.904 53.0462 382.782 Q53.0462 383.807 52.5192 385.241 Q51.026 390.277 50.177 392.385 L65.0502 396.221 L65.0502 387.584 L66.7191 389.252 L66.7191 396.63 L69.6762 397.362 Q74.1557 398.504 77.4056 400.407 Q80.5676 402.164 82.9098 404.916 Q85.5449 407.932 87.0088 411.709 Q88.4434 415.485 88.4434 419.175 Q88.4434 422.717 85.984 424.562 Q84.608 425.674 82.6171 425.177 Q81.6509 424.942 80.8897 423.976 Q80.1577 423.069 80.1577 421.81 Q80.1577 421.107 80.5383 420.843 Q80.8897 420.551 82.4414 420.199 Q83.5247 420.024 84.4909 419.292 Q86.0426 418.121 86.0426 415.339 Q86.0426 413.553 85.1057 411.621 Q84.1688 409.659 82.6756 408.02 Q80.8897 405.97 78.3132 404.535 Q76.0881 403.306 72.0184 402.164 L66.7191 400.7 L66.7191 410.42 L65.0502 409.161 L65.0502 400.29 L49.1523 396.045 Q48.6252 398.036 48.6252 400.642 Q48.6252 405.648 51.4945 409.279 Q52.3728 410.333 53.6904 411.387 Q55.0079 412.411 55.7105 412.587 Q56.6474 412.85 58.0235 412.938 Q58.1992 412.938 58.6969 412.909 Q59.1653 412.88 59.546 412.909 Q59.8973 412.909 60.1901 412.997 Q61.2734 413.26 62.0053 414.08 Q62.8251 415.251 62.8251 416.012 Q62.8251 416.92 62.0053 417.623 Q61.1563 418.238 59.2239 417.798 Q55.0664 416.715 51.2017 411.914 Q48.7716 408.927 47.8347 405.707 Q46.8686 402.486 46.8686 398.621 Q46.8686 397.011 47.1321 394.962 L45.6096 391.653 L45.8146 391.302 L47.4834 391.712 Q48.5667 387.642 49.2694 383.25 Q49.5329 381.933 49.5329 381.406 Q49.5329 380.703 49.1523 379.942 Q48.7716 379.181 48.2154 378.654 L46.0488 376.721 L46.5758 375.872 Z" fill="#000000" fill-rule="nonzero" fill-opacity="1" /><circle clip-path="url(#clip992)" cx="246.252" cy="700.384" r="18" fill="#e2cdc5" fill-rule="evenodd" fill-opacity="1" stroke="#d3b3a6" stroke-opacity="1" stroke-width="3.84"/>
<circle clip-path="url(#clip992)" cx="471.69" cy="569.336" r="18" fill="#e2cdc5" fill-rule="evenodd" fill-opacity="1" stroke="#d3b3a6" stroke-opacity="1" stroke-width="3.84"/>
<circle clip-path="url(#clip992)" cx="603.375" cy="493.525" r="18" fill="#e2cdc5" fill-rule="evenodd" fill-opacity="1" stroke="#d3b3a6" stroke-opacity="1" stroke-width="3.84"/>
<circle clip-path="url(#clip992)" cx="696.605" cy="440.426" r="18" fill="#e2cdc5" fill-rule="evenodd" fill-opacity="1" stroke="#d3b3a6" stroke-opacity="1" stroke-width="3.84"/>
<circle clip-path="url(#clip992)" cx="768.713" cy="399.551" r="18" fill="#e2cdc5" fill-rule="evenodd" fill-opacity="1" stroke="#d3b3a6" stroke-opacity="1" stroke-width="3.84"/>
<circle clip-path="url(#clip992)" cx="827.416" cy="366.357" r="18" fill="#e2cdc5" fill-rule="evenodd" fill-opacity="1" stroke="#d3b3a6" stroke-opacity="1" stroke-width="3.84"/>
<circle clip-path="url(#clip992)" cx="876.833" cy="338.456" r="18" fill="#e2cdc5" fill-rule="evenodd" fill-opacity="1" stroke="#d3b3a6" stroke-opacity="1" stroke-width="3.84"/>
<circle clip-path="url(#clip992)" cx="919.421" cy="314.436" r="18" fill="#e2cdc5" fill-rule="evenodd" fill-opacity="1" stroke="#d3b3a6" stroke-opacity="1" stroke-width="3.84"/>
<circle clip-path="url(#clip992)" cx="956.766" cy="293.389" r="18" fill="#e2cdc5" fill-rule="evenodd" fill-opacity="1" stroke="#d3b3a6" stroke-opacity="1" stroke-width="3.84"/>
<circle clip-path="url(#clip992)" cx="989.949" cy="274.7" r="18" fill="#e2cdc5" fill-rule="evenodd" fill-opacity="1" stroke="#d3b3a6" stroke-opacity="1" stroke-width="3.84"/>
<circle clip-path="url(#clip992)" cx="1019.74" cy="257.928" r="18" fill="#e2cdc5" fill-rule="evenodd" fill-opacity="1" stroke="#d3b3a6" stroke-opacity="1" stroke-width="3.84"/>
<circle clip-path="url(#clip992)" cx="1046.71" cy="242.751" r="18" fill="#e2cdc5" fill-rule="evenodd" fill-opacity="1" stroke="#d3b3a6" stroke-opacity="1" stroke-width="3.84"/>
<circle clip-path="url(#clip992)" cx="1071.3" cy="228.921" r="18" fill="#e2cdc5" fill-rule="evenodd" fill-opacity="1" stroke="#d3b3a6" stroke-opacity="1" stroke-width="3.84"/>
<circle clip-path="url(#clip992)" cx="1093.83" cy="216.251" r="18" fill="#e2cdc5" fill-rule="evenodd" fill-opacity="1" stroke="#d3b3a6" stroke-opacity="1" stroke-width="3.84"/>
<circle clip-path="url(#clip992)" cx="1114.58" cy="204.587" r="18" fill="#e2cdc5" fill-rule="evenodd" fill-opacity="1" stroke="#d3b3a6" stroke-opacity="1" stroke-width="3.84"/>
<circle clip-path="url(#clip992)" cx="1133.75" cy="193.81" r="18" fill="#e2cdc5" fill-rule="evenodd" fill-opacity="1" stroke="#d3b3a6" stroke-opacity="1" stroke-width="3.84"/>
<circle clip-path="url(#clip992)" cx="1151.53" cy="183.819" r="18" fill="#e2cdc5" fill-rule="evenodd" fill-opacity="1" stroke="#d3b3a6" stroke-opacity="1" stroke-width="3.84"/>
<circle clip-path="url(#clip992)" cx="1168.05" cy="174.534" r="18" fill="#e2cdc5" fill-rule="evenodd" fill-opacity="1" stroke="#d3b3a6" stroke-opacity="1" stroke-width="3.84"/>
<circle clip-path="url(#clip992)" cx="1183.45" cy="165.886" r="18" fill="#e2cdc5" fill-rule="evenodd" fill-opacity="1" stroke="#d3b3a6" stroke-opacity="1" stroke-width="3.84"/>
<circle clip-path="url(#clip992)" cx="1197.81" cy="157.817" r="18" fill="#e2cdc5" fill-rule="evenodd" fill-opacity="1" stroke="#d3b3a6" stroke-opacity="1" stroke-width="3.84"/>
<circle clip-path="url(#clip992)" cx="1211.24" cy="150.278" r="18" fill="#e2cdc5" fill-rule="evenodd" fill-opacity="1" stroke="#d3b3a6" stroke-opacity="1" stroke-width="3.84"/>
<circle clip-path="url(#clip992)" cx="1223.79" cy="143.226" r="18" fill="#e2cdc5" fill-rule="evenodd" fill-opacity="1" stroke="#d3b3a6" stroke-opacity="1" stroke-width="3.84"/>
<circle clip-path="url(#clip992)" cx="1235.55" cy="136.626" r="18" fill="#e2cdc5" fill-rule="evenodd" fill-opacity="1" stroke="#d3b3a6" stroke-opacity="1" stroke-width="3.84"/>
<circle clip-path="url(#clip992)" cx="1246.56" cy="130.446" r="18" fill="#e2cdc5" fill-rule="evenodd" fill-opacity="1" stroke="#d3b3a6" stroke-opacity="1" stroke-width="3.84"/>
<circle clip-path="url(#clip992)" cx="1256.87" cy="124.658" r="18" fill="#e2cdc5" fill-rule="evenodd" fill-opacity="1" stroke="#d3b3a6" stroke-opacity="1" stroke-width="3.84"/>
<circle clip-path="url(#clip992)" cx="1266.52" cy="119.238" r="18" fill="#e2cdc5" fill-rule="evenodd" fill-opacity="1" stroke="#d3b3a6" stroke-opacity="1" stroke-width="3.84"/>
<circle clip-path="url(#clip992)" cx="1275.56" cy="114.164" r="18" fill="#e2cdc5" fill-rule="evenodd" fill-opacity="1" stroke="#d3b3a6" stroke-opacity="1" stroke-width="3.84"/>
<circle clip-path="url(#clip992)" cx="1284.02" cy="109.419" r="18" fill="#e2cdc5" fill-rule="evenodd" fill-opacity="1" stroke="#d3b3a6" stroke-opacity="1" stroke-width="3.84"/>
<circle clip-path="url(#clip992)" cx="1291.92" cy="104.985" r="18" fill="#e2cdc5" fill-rule="evenodd" fill-opacity="1" stroke="#d3b3a6" stroke-opacity="1" stroke-width="3.84"/>
<circle clip-path="url(#clip992)" cx="1299.29" cy="100.847" r="18" fill="#e2cdc5" fill-rule="evenodd" fill-opacity="1" stroke="#d3b3a6" stroke-opacity="1" stroke-width="3.84"/>
<circle clip-path="url(#clip992)" cx="1306.16" cy="96.9932" r="18" fill="#e2cdc5" fill-rule="evenodd" fill-opacity="1" stroke="#d3b3a6" stroke-opacity="1" stroke-width="3.84"/>
<circle clip-path="url(#clip992)" cx="1312.54" cy="93.4104" r="18" fill="#e2cdc5" fill-rule="evenodd" fill-opacity="1" stroke="#d3b3a6" stroke-opacity="1" stroke-width="3.84"/>
<circle clip-path="url(#clip992)" cx="1318.46" cy="90.0887" r="18" fill="#e2cdc5" fill-rule="evenodd" fill-opacity="1" stroke="#d3b3a6" stroke-opacity="1" stroke-width="3.84"/>
<circle clip-path="url(#clip992)" cx="1323.94" cy="87.0187" r="18" fill="#e2cdc5" fill-rule="evenodd" fill-opacity="1" stroke="#d3b3a6" stroke-opacity="1" stroke-width="3.84"/>
<circle clip-path="url(#clip992)" cx="1328.97" cy="84.192" r="18" fill="#e2cdc5" fill-rule="evenodd" fill-opacity="1" stroke="#d3b3a6" stroke-opacity="1" stroke-width="3.84"/>
<circle clip-path="url(#clip992)" cx="1333.59" cy="81.6012" r="18" fill="#e2cdc5" fill-rule="evenodd" fill-opacity="1" stroke="#d3b3a6" stroke-opacity="1" stroke-width="3.84"/>
<circle clip-path="url(#clip992)" cx="1337.8" cy="79.2396" r="18" fill="#e2cdc5" fill-rule="evenodd" fill-opacity="1" stroke="#d3b3a6" stroke-opacity="1" stroke-width="3.84"/>
<circle clip-path="url(#clip992)" cx="1341.61" cy="77.1014" r="18" fill="#e2cdc5" fill-rule="evenodd" fill-opacity="1" stroke="#d3b3a6" stroke-opacity="1" stroke-width="3.84"/>
<circle clip-path="url(#clip992)" cx="1345.04" cy="75.1813" r="18" fill="#e2cdc5" fill-rule="evenodd" fill-opacity="1" stroke="#d3b3a6" stroke-opacity="1" stroke-width="3.84"/>
<circle clip-path="url(#clip992)" cx="1348.08" cy="73.4749" r="18" fill="#e2cdc5" fill-rule="evenodd" fill-opacity="1" stroke="#d3b3a6" stroke-opacity="1" stroke-width="3.84"/>
<circle clip-path="url(#clip992)" cx="1350.75" cy="71.9782" r="18" fill="#e2cdc5" fill-rule="evenodd" fill-opacity="1" stroke="#d3b3a6" stroke-opacity="1" stroke-width="3.84"/>
<circle clip-path="url(#clip992)" cx="1353.05" cy="70.6876" r="18" fill="#e2cdc5" fill-rule="evenodd" fill-opacity="1" stroke="#d3b3a6" stroke-opacity="1" stroke-width="3.84"/>
<circle clip-path="url(#clip992)" cx="1354.99" cy="69.6004" r="18" fill="#e2cdc5" fill-rule="evenodd" fill-opacity="1" stroke="#d3b3a6" stroke-opacity="1" stroke-width="3.84"/>
<circle clip-path="url(#clip992)" cx="1356.57" cy="68.7141" r="18" fill="#e2cdc5" fill-rule="evenodd" fill-opacity="1" stroke="#d3b3a6" stroke-opacity="1" stroke-width="3.84"/>
<circle clip-path="url(#clip992)" cx="1357.79" cy="68.0267" r="18" fill="#e2cdc5" fill-rule="evenodd" fill-opacity="1" stroke="#d3b3a6" stroke-opacity="1" stroke-width="3.84"/>
<circle clip-path="url(#clip992)" cx="1358.66" cy="67.5368" r="18" fill="#e2cdc5" fill-rule="evenodd" fill-opacity="1" stroke="#d3b3a6" stroke-opacity="1" stroke-width="3.84"/>
<circle clip-path="url(#clip992)" cx="1359.19" cy="67.2433" r="18" fill="#e2cdc5" fill-rule="evenodd" fill-opacity="1" stroke="#d3b3a6" stroke-opacity="1" stroke-width="3.84"/>
<circle clip-path="url(#clip992)" cx="1359.36" cy="67.1455" r="18" fill="#e2cdc5" fill-rule="evenodd" fill-opacity="1" stroke="#d3b3a6" stroke-opacity="1" stroke-width="3.84"/>
<polyline clip-path="url(#clip992)" style="stroke:#000000; stroke-linecap:round; stroke-linejoin:round; stroke-width:4; stroke-opacity:1; fill:none" stroke-dasharray="16, 10" points="768.713,398.442 827.416,365.515 876.833,337.797 919.421,313.909 956.766,292.963 989.949,274.35 1019.74,257.639 1046.71,242.511 1071.3,228.721 1093.83,216.083 1114.58,204.447 1133.75,193.692 1151.53,183.721 1168.05,174.452 1183.45,165.817 1197.81,157.759 1211.24,150.23 1223.79,143.186 1235.55,136.593 1246.56,130.419 1256.87,124.636 1266.52,119.22 1275.56,114.15 1284.02,109.408 1291.92,104.976 1299.29,100.84 1306.16,96.9877 1312.54,93.4063 1318.46,90.0856 1323.94,87.0164 1328.97,84.1904 1333.59,81.6001 1337.8,79.2388 1341.61,77.1009 1345.04,75.1811 1348.08,73.4748 1350.75,71.9781 1353.05,70.6876 1354.99,69.6004 1356.57,68.7141 1357.79,68.0267 1358.66,67.5368 1359.19,67.2433 1359.36,67.1455 "/>
<polyline clip-path="url(#clip992)" style="stroke:#000000; stroke-linecap:round; stroke-linejoin:round; stroke-width:4; stroke-opacity:1; fill:none" points="1353.05,70.6876 1354.99,69.6004 1356.57,68.7141 1357.79,68.0267 1358.66,67.5368 1359.19,67.2433 1359.36,67.1455 "/>
<circle clip-path="url(#clip992)" cx="973.867" cy="555.939" r="18" fill="#e2cdc5" fill-rule="evenodd" fill-opacity="1" stroke="#d3b3a6" stroke-opacity="1" stroke-width="1.92"/>
<circle clip-path="url(#clip992)" cx="246.252" cy="716.985" r="18" fill="#ff9d98" fill-rule="evenodd" fill-opacity="1" stroke="#ff6961" stroke-opacity="1" stroke-width="3.84"/>
<circle clip-path="url(#clip992)" cx="471.69" cy="595.757" r="18" fill="#ff9d98" fill-rule="evenodd" fill-opacity="1" stroke="#ff6961" stroke-opacity="1" stroke-width="3.84"/>
<circle clip-path="url(#clip992)" cx="603.375" cy="526.005" r="18" fill="#ff9d98" fill-rule="evenodd" fill-opacity="1" stroke="#ff6961" stroke-opacity="1" stroke-width="3.84"/>
<circle clip-path="url(#clip992)" cx="696.605" cy="477.26" r="18" fill="#ff9d98" fill-rule="evenodd" fill-opacity="1" stroke="#ff6961" stroke-opacity="1" stroke-width="3.84"/>
<circle clip-path="url(#clip992)" cx="768.713" cy="439.812" r="18" fill="#ff9d98" fill-rule="evenodd" fill-opacity="1" stroke="#ff6961" stroke-opacity="1" stroke-width="3.84"/>
<circle clip-path="url(#clip992)" cx="827.416" cy="409.451" r="18" fill="#ff9d98" fill-rule="evenodd" fill-opacity="1" stroke="#ff6961" stroke-opacity="1" stroke-width="3.84"/>
<circle clip-path="url(#clip992)" cx="876.833" cy="383.969" r="18" fill="#ff9d98" fill-rule="evenodd" fill-opacity="1" stroke="#ff6961" stroke-opacity="1" stroke-width="3.84"/>
<circle clip-path="url(#clip992)" cx="919.421" cy="362.059" r="18" fill="#ff9d98" fill-rule="evenodd" fill-opacity="1" stroke="#ff6961" stroke-opacity="1" stroke-width="3.84"/>
<circle clip-path="url(#clip992)" cx="956.766" cy="342.882" r="18" fill="#ff9d98" fill-rule="evenodd" fill-opacity="1" stroke="#ff6961" stroke-opacity="1" stroke-width="3.84"/>
<circle clip-path="url(#clip992)" cx="989.949" cy="325.869" r="18" fill="#ff9d98" fill-rule="evenodd" fill-opacity="1" stroke="#ff6961" stroke-opacity="1" stroke-width="3.84"/>
<circle clip-path="url(#clip992)" cx="1019.74" cy="310.615" r="18" fill="#ff9d98" fill-rule="evenodd" fill-opacity="1" stroke="#ff6961" stroke-opacity="1" stroke-width="3.84"/>
<circle clip-path="url(#clip992)" cx="1046.71" cy="296.82" r="18" fill="#ff9d98" fill-rule="evenodd" fill-opacity="1" stroke="#ff6961" stroke-opacity="1" stroke-width="3.84"/>
<circle clip-path="url(#clip992)" cx="1071.3" cy="284.26" r="18" fill="#ff9d98" fill-rule="evenodd" fill-opacity="1" stroke="#ff6961" stroke-opacity="1" stroke-width="3.84"/>
<circle clip-path="url(#clip992)" cx="1093.83" cy="272.759" r="18" fill="#ff9d98" fill-rule="evenodd" fill-opacity="1" stroke="#ff6961" stroke-opacity="1" stroke-width="3.84"/>
<circle clip-path="url(#clip992)" cx="1114.58" cy="262.178" r="18" fill="#ff9d98" fill-rule="evenodd" fill-opacity="1" stroke="#ff6961" stroke-opacity="1" stroke-width="3.84"/>
<circle clip-path="url(#clip992)" cx="1133.75" cy="252.407" r="18" fill="#ff9d98" fill-rule="evenodd" fill-opacity="1" stroke="#ff6961" stroke-opacity="1" stroke-width="3.84"/>
<circle clip-path="url(#clip992)" cx="1151.53" cy="243.353" r="18" fill="#ff9d98" fill-rule="evenodd" fill-opacity="1" stroke="#ff6961" stroke-opacity="1" stroke-width="3.84"/>
<circle clip-path="url(#clip992)" cx="1168.05" cy="234.942" r="18" fill="#ff9d98" fill-rule="evenodd" fill-opacity="1" stroke="#ff6961" stroke-opacity="1" stroke-width="3.84"/>
<circle clip-path="url(#clip992)" cx="1183.45" cy="227.111" r="18" fill="#ff9d98" fill-rule="evenodd" fill-opacity="1" stroke="#ff6961" stroke-opacity="1" stroke-width="3.84"/>
<circle clip-path="url(#clip992)" cx="1197.81" cy="219.807" r="18" fill="#ff9d98" fill-rule="evenodd" fill-opacity="1" stroke="#ff6961" stroke-opacity="1" stroke-width="3.84"/>
<circle clip-path="url(#clip992)" cx="1211.24" cy="212.986" r="18" fill="#ff9d98" fill-rule="evenodd" fill-opacity="1" stroke="#ff6961" stroke-opacity="1" stroke-width="3.84"/>
<circle clip-path="url(#clip992)" cx="1223.79" cy="206.607" r="18" fill="#ff9d98" fill-rule="evenodd" fill-opacity="1" stroke="#ff6961" stroke-opacity="1" stroke-width="3.84"/>
<circle clip-path="url(#clip992)" cx="1235.55" cy="200.639" r="18" fill="#ff9d98" fill-rule="evenodd" fill-opacity="1" stroke="#ff6961" stroke-opacity="1" stroke-width="3.84"/>
<circle clip-path="url(#clip992)" cx="1246.56" cy="195.052" r="18" fill="#ff9d98" fill-rule="evenodd" fill-opacity="1" stroke="#ff6961" stroke-opacity="1" stroke-width="3.84"/>
<circle clip-path="url(#clip992)" cx="1256.87" cy="189.821" r="18" fill="#ff9d98" fill-rule="evenodd" fill-opacity="1" stroke="#ff6961" stroke-opacity="1" stroke-width="3.84"/>
<circle clip-path="url(#clip992)" cx="1266.52" cy="184.924" r="18" fill="#ff9d98" fill-rule="evenodd" fill-opacity="1" stroke="#ff6961" stroke-opacity="1" stroke-width="3.84"/>
<circle clip-path="url(#clip992)" cx="1275.56" cy="180.341" r="18" fill="#ff9d98" fill-rule="evenodd" fill-opacity="1" stroke="#ff6961" stroke-opacity="1" stroke-width="3.84"/>
<circle clip-path="url(#clip992)" cx="1284.02" cy="176.056" r="18" fill="#ff9d98" fill-rule="evenodd" fill-opacity="1" stroke="#ff6961" stroke-opacity="1" stroke-width="3.84"/>
<circle clip-path="url(#clip992)" cx="1291.92" cy="172.052" r="18" fill="#ff9d98" fill-rule="evenodd" fill-opacity="1" stroke="#ff6961" stroke-opacity="1" stroke-width="3.84"/>
<circle clip-path="url(#clip992)" cx="1299.29" cy="168.317" r="18" fill="#ff9d98" fill-rule="evenodd" fill-opacity="1" stroke="#ff6961" stroke-opacity="1" stroke-width="3.84"/>
<circle clip-path="url(#clip992)" cx="1306.16" cy="164.838" r="18" fill="#ff9d98" fill-rule="evenodd" fill-opacity="1" stroke="#ff6961" stroke-opacity="1" stroke-width="3.84"/>
<circle clip-path="url(#clip992)" cx="1312.54" cy="161.604" r="18" fill="#ff9d98" fill-rule="evenodd" fill-opacity="1" stroke="#ff6961" stroke-opacity="1" stroke-width="3.84"/>
<circle clip-path="url(#clip992)" cx="1318.46" cy="158.607" r="18" fill="#ff9d98" fill-rule="evenodd" fill-opacity="1" stroke="#ff6961" stroke-opacity="1" stroke-width="3.84"/>
<circle clip-path="url(#clip992)" cx="1323.94" cy="155.837" r="18" fill="#ff9d98" fill-rule="evenodd" fill-opacity="1" stroke="#ff6961" stroke-opacity="1" stroke-width="3.84"/>
<circle clip-path="url(#clip992)" cx="1328.97" cy="153.288" r="18" fill="#ff9d98" fill-rule="evenodd" fill-opacity="1" stroke="#ff6961" stroke-opacity="1" stroke-width="3.84"/>
<circle clip-path="url(#clip992)" cx="1333.59" cy="150.951" r="18" fill="#ff9d98" fill-rule="evenodd" fill-opacity="1" stroke="#ff6961" stroke-opacity="1" stroke-width="3.84"/>
<circle clip-path="url(#clip992)" cx="1337.8" cy="148.821" r="18" fill="#ff9d98" fill-rule="evenodd" fill-opacity="1" stroke="#ff6961" stroke-opacity="1" stroke-width="3.84"/>
<circle clip-path="url(#clip992)" cx="1341.61" cy="146.893" r="18" fill="#ff9d98" fill-rule="evenodd" fill-opacity="1" stroke="#ff6961" stroke-opacity="1" stroke-width="3.84"/>
<circle clip-path="url(#clip992)" cx="1345.04" cy="145.161" r="18" fill="#ff9d98" fill-rule="evenodd" fill-opacity="1" stroke="#ff6961" stroke-opacity="1" stroke-width="3.84"/>
<circle clip-path="url(#clip992)" cx="1348.08" cy="143.623" r="18" fill="#ff9d98" fill-rule="evenodd" fill-opacity="1" stroke="#ff6961" stroke-opacity="1" stroke-width="3.84"/>
<circle clip-path="url(#clip992)" cx="1350.75" cy="142.273" r="18" fill="#ff9d98" fill-rule="evenodd" fill-opacity="1" stroke="#ff6961" stroke-opacity="1" stroke-width="3.84"/>
<circle clip-path="url(#clip992)" cx="1353.05" cy="141.11" r="18" fill="#ff9d98" fill-rule="evenodd" fill-opacity="1" stroke="#ff6961" stroke-opacity="1" stroke-width="3.84"/>
<circle clip-path="url(#clip992)" cx="1354.99" cy="140.13" r="18" fill="#ff9d98" fill-rule="evenodd" fill-opacity="1" stroke="#ff6961" stroke-opacity="1" stroke-width="3.84"/>
<circle clip-path="url(#clip992)" cx="1356.57" cy="139.331" r="18" fill="#ff9d98" fill-rule="evenodd" fill-opacity="1" stroke="#ff6961" stroke-opacity="1" stroke-width="3.84"/>
<circle clip-path="url(#clip992)" cx="1357.79" cy="138.711" r="18" fill="#ff9d98" fill-rule="evenodd" fill-opacity="1" stroke="#ff6961" stroke-opacity="1" stroke-width="3.84"/>
<circle clip-path="url(#clip992)" cx="1358.66" cy="138.27" r="18" fill="#ff9d98" fill-rule="evenodd" fill-opacity="1" stroke="#ff6961" stroke-opacity="1" stroke-width="3.84"/>
<circle clip-path="url(#clip992)" cx="1359.19" cy="138.005" r="18" fill="#ff9d98" fill-rule="evenodd" fill-opacity="1" stroke="#ff6961" stroke-opacity="1" stroke-width="3.84"/>
<circle clip-path="url(#clip992)" cx="1359.36" cy="137.917" r="18" fill="#ff9d98" fill-rule="evenodd" fill-opacity="1" stroke="#ff6961" stroke-opacity="1" stroke-width="3.84"/>
<polyline clip-path="url(#clip992)" style="stroke:#000000; stroke-linecap:round; stroke-linejoin:round; stroke-width:4; stroke-opacity:1; fill:none" stroke-dasharray="16, 10" points="768.713,436.553 827.416,406.872 876.833,381.887 919.421,360.354 956.766,341.472 989.949,324.695 1019.74,309.632 1046.71,295.994 1071.3,283.564 1093.83,272.172 1114.58,261.683 1133.75,251.988 1151.53,243 1168.05,234.645 1183.45,226.861 1197.81,219.598 1211.24,212.81 1223.79,206.461 1235.55,200.518 1246.56,194.953 1256.87,189.739 1266.52,184.858 1275.56,180.288 1284.02,176.013 1291.92,172.018 1299.29,168.29 1306.16,164.817 1312.54,161.589 1318.46,158.596 1323.94,155.829 1328.97,153.281 1333.59,150.946 1337.8,148.818 1341.61,146.891 1345.04,145.16 1348.08,143.622 1350.75,142.273 1353.05,141.11 1354.99,140.13 1356.57,139.331 1357.79,138.711 1358.66,138.27 1359.19,138.005 1359.36,137.917 "/>
<polyline clip-path="url(#clip992)" style="stroke:#000000; stroke-linecap:round; stroke-linejoin:round; stroke-width:4; stroke-opacity:1; fill:none" points="1353.05,141.11 1354.99,140.13 1356.57,139.331 1357.79,138.711 1358.66,138.27 1359.19,138.005 1359.36,137.917 "/>
<circle clip-path="url(#clip992)" cx="973.867" cy="624.596" r="18" fill="#ff9d98" fill-rule="evenodd" fill-opacity="1" stroke="#ff6961" stroke-opacity="1" stroke-width="1.92"/>
<circle clip-path="url(#clip992)" cx="246.252" cy="730.525" r="18" fill="#cdc0cf" fill-rule="evenodd" fill-opacity="1" stroke="#b39eb5" stroke-opacity="1" stroke-width="3.84"/>
<circle clip-path="url(#clip992)" cx="471.69" cy="617.274" r="18" fill="#cdc0cf" fill-rule="evenodd" fill-opacity="1" stroke="#b39eb5" stroke-opacity="1" stroke-width="3.84"/>
<circle clip-path="url(#clip992)" cx="603.375" cy="552.606" r="18" fill="#cdc0cf" fill-rule="evenodd" fill-opacity="1" stroke="#b39eb5" stroke-opacity="1" stroke-width="3.84"/>
<circle clip-path="url(#clip992)" cx="696.605" cy="507.63" r="18" fill="#cdc0cf" fill-rule="evenodd" fill-opacity="1" stroke="#b39eb5" stroke-opacity="1" stroke-width="3.84"/>
<circle clip-path="url(#clip992)" cx="768.713" cy="473.217" r="18" fill="#cdc0cf" fill-rule="evenodd" fill-opacity="1" stroke="#b39eb5" stroke-opacity="1" stroke-width="3.84"/>
<circle clip-path="url(#clip992)" cx="827.416" cy="445.414" r="18" fill="#cdc0cf" fill-rule="evenodd" fill-opacity="1" stroke="#b39eb5" stroke-opacity="1" stroke-width="3.84"/>
<circle clip-path="url(#clip992)" cx="876.833" cy="422.149" r="18" fill="#cdc0cf" fill-rule="evenodd" fill-opacity="1" stroke="#b39eb5" stroke-opacity="1" stroke-width="3.84"/>
<circle clip-path="url(#clip992)" cx="919.421" cy="402.198" r="18" fill="#cdc0cf" fill-rule="evenodd" fill-opacity="1" stroke="#b39eb5" stroke-opacity="1" stroke-width="3.84"/>
<circle clip-path="url(#clip992)" cx="956.766" cy="384.778" r="18" fill="#cdc0cf" fill-rule="evenodd" fill-opacity="1" stroke="#b39eb5" stroke-opacity="1" stroke-width="3.84"/>
<circle clip-path="url(#clip992)" cx="989.949" cy="369.356" r="18" fill="#cdc0cf" fill-rule="evenodd" fill-opacity="1" stroke="#b39eb5" stroke-opacity="1" stroke-width="3.84"/>
<circle clip-path="url(#clip992)" cx="1019.74" cy="355.554" r="18" fill="#cdc0cf" fill-rule="evenodd" fill-opacity="1" stroke="#b39eb5" stroke-opacity="1" stroke-width="3.84"/>
<circle clip-path="url(#clip992)" cx="1046.71" cy="343.096" r="18" fill="#cdc0cf" fill-rule="evenodd" fill-opacity="1" stroke="#b39eb5" stroke-opacity="1" stroke-width="3.84"/>
<circle clip-path="url(#clip992)" cx="1071.3" cy="331.771" r="18" fill="#cdc0cf" fill-rule="evenodd" fill-opacity="1" stroke="#b39eb5" stroke-opacity="1" stroke-width="3.84"/>
<circle clip-path="url(#clip992)" cx="1093.83" cy="321.416" r="18" fill="#cdc0cf" fill-rule="evenodd" fill-opacity="1" stroke="#b39eb5" stroke-opacity="1" stroke-width="3.84"/>
<circle clip-path="url(#clip992)" cx="1114.58" cy="311.902" r="18" fill="#cdc0cf" fill-rule="evenodd" fill-opacity="1" stroke="#b39eb5" stroke-opacity="1" stroke-width="3.84"/>
<circle clip-path="url(#clip992)" cx="1133.75" cy="303.128" r="18" fill="#cdc0cf" fill-rule="evenodd" fill-opacity="1" stroke="#b39eb5" stroke-opacity="1" stroke-width="3.84"/>
<circle clip-path="url(#clip992)" cx="1151.53" cy="295.008" r="18" fill="#cdc0cf" fill-rule="evenodd" fill-opacity="1" stroke="#b39eb5" stroke-opacity="1" stroke-width="3.84"/>
<circle clip-path="url(#clip992)" cx="1168.05" cy="287.473" r="18" fill="#cdc0cf" fill-rule="evenodd" fill-opacity="1" stroke="#b39eb5" stroke-opacity="1" stroke-width="3.84"/>
<circle clip-path="url(#clip992)" cx="1183.45" cy="280.464" r="18" fill="#cdc0cf" fill-rule="evenodd" fill-opacity="1" stroke="#b39eb5" stroke-opacity="1" stroke-width="3.84"/>
<circle clip-path="url(#clip992)" cx="1197.81" cy="273.934" r="18" fill="#cdc0cf" fill-rule="evenodd" fill-opacity="1" stroke="#b39eb5" stroke-opacity="1" stroke-width="3.84"/>
<circle clip-path="url(#clip992)" cx="1211.24" cy="267.841" r="18" fill="#cdc0cf" fill-rule="evenodd" fill-opacity="1" stroke="#b39eb5" stroke-opacity="1" stroke-width="3.84"/>
<circle clip-path="url(#clip992)" cx="1223.79" cy="262.148" r="18" fill="#cdc0cf" fill-rule="evenodd" fill-opacity="1" stroke="#b39eb5" stroke-opacity="1" stroke-width="3.84"/>
<circle clip-path="url(#clip992)" cx="1235.55" cy="256.826" r="18" fill="#cdc0cf" fill-rule="evenodd" fill-opacity="1" stroke="#b39eb5" stroke-opacity="1" stroke-width="3.84"/>
<circle clip-path="url(#clip992)" cx="1246.56" cy="251.847" r="18" fill="#cdc0cf" fill-rule="evenodd" fill-opacity="1" stroke="#b39eb5" stroke-opacity="1" stroke-width="3.84"/>
<circle clip-path="url(#clip992)" cx="1256.87" cy="247.189" r="18" fill="#cdc0cf" fill-rule="evenodd" fill-opacity="1" stroke="#b39eb5" stroke-opacity="1" stroke-width="3.84"/>
<circle clip-path="url(#clip992)" cx="1266.52" cy="242.831" r="18" fill="#cdc0cf" fill-rule="evenodd" fill-opacity="1" stroke="#b39eb5" stroke-opacity="1" stroke-width="3.84"/>
<circle clip-path="url(#clip992)" cx="1275.56" cy="238.756" r="18" fill="#cdc0cf" fill-rule="evenodd" fill-opacity="1" stroke="#b39eb5" stroke-opacity="1" stroke-width="3.84"/>
<circle clip-path="url(#clip992)" cx="1284.02" cy="234.947" r="18" fill="#cdc0cf" fill-rule="evenodd" fill-opacity="1" stroke="#b39eb5" stroke-opacity="1" stroke-width="3.84"/>
<circle clip-path="url(#clip992)" cx="1291.92" cy="231.39" r="18" fill="#cdc0cf" fill-rule="evenodd" fill-opacity="1" stroke="#b39eb5" stroke-opacity="1" stroke-width="3.84"/>
<circle clip-path="url(#clip992)" cx="1299.29" cy="228.074" r="18" fill="#cdc0cf" fill-rule="evenodd" fill-opacity="1" stroke="#b39eb5" stroke-opacity="1" stroke-width="3.84"/>
<circle clip-path="url(#clip992)" cx="1306.16" cy="224.986" r="18" fill="#cdc0cf" fill-rule="evenodd" fill-opacity="1" stroke="#b39eb5" stroke-opacity="1" stroke-width="3.84"/>
<circle clip-path="url(#clip992)" cx="1312.54" cy="222.118" r="18" fill="#cdc0cf" fill-rule="evenodd" fill-opacity="1" stroke="#b39eb5" stroke-opacity="1" stroke-width="3.84"/>
<circle clip-path="url(#clip992)" cx="1318.46" cy="219.461" r="18" fill="#cdc0cf" fill-rule="evenodd" fill-opacity="1" stroke="#b39eb5" stroke-opacity="1" stroke-width="3.84"/>
<circle clip-path="url(#clip992)" cx="1323.94" cy="217.006" r="18" fill="#cdc0cf" fill-rule="evenodd" fill-opacity="1" stroke="#b39eb5" stroke-opacity="1" stroke-width="3.84"/>
<circle clip-path="url(#clip992)" cx="1328.97" cy="214.746" r="18" fill="#cdc0cf" fill-rule="evenodd" fill-opacity="1" stroke="#b39eb5" stroke-opacity="1" stroke-width="3.84"/>
<circle clip-path="url(#clip992)" cx="1333.59" cy="212.677" r="18" fill="#cdc0cf" fill-rule="evenodd" fill-opacity="1" stroke="#b39eb5" stroke-opacity="1" stroke-width="3.84"/>
<circle clip-path="url(#clip992)" cx="1337.8" cy="210.791" r="18" fill="#cdc0cf" fill-rule="evenodd" fill-opacity="1" stroke="#b39eb5" stroke-opacity="1" stroke-width="3.84"/>
<circle clip-path="url(#clip992)" cx="1341.61" cy="209.084" r="18" fill="#cdc0cf" fill-rule="evenodd" fill-opacity="1" stroke="#b39eb5" stroke-opacity="1" stroke-width="3.84"/>
<circle clip-path="url(#clip992)" cx="1345.04" cy="207.552" r="18" fill="#cdc0cf" fill-rule="evenodd" fill-opacity="1" stroke="#b39eb5" stroke-opacity="1" stroke-width="3.84"/>
<circle clip-path="url(#clip992)" cx="1348.08" cy="206.19" r="18" fill="#cdc0cf" fill-rule="evenodd" fill-opacity="1" stroke="#b39eb5" stroke-opacity="1" stroke-width="3.84"/>
<circle clip-path="url(#clip992)" cx="1350.75" cy="204.997" r="18" fill="#cdc0cf" fill-rule="evenodd" fill-opacity="1" stroke="#b39eb5" stroke-opacity="1" stroke-width="3.84"/>
<circle clip-path="url(#clip992)" cx="1353.05" cy="203.968" r="18" fill="#cdc0cf" fill-rule="evenodd" fill-opacity="1" stroke="#b39eb5" stroke-opacity="1" stroke-width="3.84"/>
<circle clip-path="url(#clip992)" cx="1354.99" cy="203.101" r="18" fill="#cdc0cf" fill-rule="evenodd" fill-opacity="1" stroke="#b39eb5" stroke-opacity="1" stroke-width="3.84"/>
<circle clip-path="url(#clip992)" cx="1356.57" cy="202.394" r="18" fill="#cdc0cf" fill-rule="evenodd" fill-opacity="1" stroke="#b39eb5" stroke-opacity="1" stroke-width="3.84"/>
<circle clip-path="url(#clip992)" cx="1357.79" cy="201.846" r="18" fill="#cdc0cf" fill-rule="evenodd" fill-opacity="1" stroke="#b39eb5" stroke-opacity="1" stroke-width="3.84"/>
<circle clip-path="url(#clip992)" cx="1358.66" cy="201.456" r="18" fill="#cdc0cf" fill-rule="evenodd" fill-opacity="1" stroke="#b39eb5" stroke-opacity="1" stroke-width="3.84"/>
<circle clip-path="url(#clip992)" cx="1359.19" cy="201.222" r="18" fill="#cdc0cf" fill-rule="evenodd" fill-opacity="1" stroke="#b39eb5" stroke-opacity="1" stroke-width="3.84"/>
<circle clip-path="url(#clip992)" cx="1359.36" cy="201.144" r="18" fill="#cdc0cf" fill-rule="evenodd" fill-opacity="1" stroke="#b39eb5" stroke-opacity="1" stroke-width="3.84"/>
<polyline clip-path="url(#clip992)" style="stroke:#000000; stroke-linecap:round; stroke-linejoin:round; stroke-width:4; stroke-opacity:1; fill:none" stroke-dasharray="16, 10" points="768.713,465.206 827.416,438.961 876.833,416.868 919.421,397.828 956.766,381.133 989.949,366.298 1019.74,352.978 1046.71,340.92 1071.3,329.929 1093.83,319.856 1114.58,310.581 1133.75,302.009 1151.53,294.061 1168.05,286.673 1183.45,279.791 1197.81,273.368 1211.24,267.367 1223.79,261.753 1235.55,256.498 1246.56,251.576 1256.87,246.967 1266.52,242.65 1275.56,238.609 1284.02,234.829 1291.92,231.297 1299.29,228.001 1306.16,224.93 1312.54,222.075 1318.46,219.429 1323.94,216.982 1328.97,214.73 1333.59,212.665 1337.8,210.783 1341.61,209.079 1345.04,207.549 1348.08,206.189 1350.75,204.996 1353.05,203.967 1354.99,203.101 1356.57,202.394 1357.79,201.847 1358.66,201.456 1359.19,201.222 1359.36,201.144 "/>
<polyline clip-path="url(#clip992)" style="stroke:#000000; stroke-linecap:round; stroke-linejoin:round; stroke-width:4; stroke-opacity:1; fill:none" points="1353.05,203.967 1354.99,203.101 1356.57,202.394 1357.79,201.847 1358.66,201.456 1359.19,201.222 1359.36,201.144 "/>
<circle clip-path="url(#clip992)" cx="973.867" cy="693.254" r="18" fill="#cdc0cf" fill-rule="evenodd" fill-opacity="1" stroke="#b39eb5" stroke-opacity="1" stroke-width="1.92"/>
<path clip-path="url(#clip990)" d="M1062.94 535.283 Q1062.94 536.484 1061.95 536.484 Q1060.19 536.542 1058.99 536.894 Q1057.79 537.216 1057.09 537.86 Q1056.41 538.504 1056.03 539.207 Q1055.68 539.88 1055.45 540.905 L1050.12 562.19 Q1048.6 568.192 1043.68 572.554 Q1038.76 576.888 1033.17 576.888 Q1029.98 576.888 1027.31 575.57 Q1024.68 574.253 1023.04 571.588 Q1021.4 568.924 1021.4 565.381 Q1021.4 563.683 1021.84 561.897 L1025.47 547.082 L1026.81 541.812 Q1027.81 537.918 1027.81 537.567 Q1027.81 537.011 1027.46 536.864 Q1027.14 536.689 1026.2 536.601 L1023.92 536.484 Q1023.21 536.484 1022.92 536.455 Q1022.66 536.425 1022.45 536.279 Q1022.25 536.132 1022.25 535.81 Q1022.25 535.401 1022.34 535.137 Q1022.45 534.844 1022.66 534.756 Q1022.86 534.669 1023.01 534.639 Q1023.15 534.61 1023.39 534.61 L1031.12 534.786 L1038.79 534.61 Q1039.64 534.61 1039.64 535.283 Q1039.64 536.132 1039.26 536.308 Q1038.88 536.484 1037.59 536.484 Q1035.39 536.484 1034.4 536.777 Q1033.43 537.04 1033.14 537.509 Q1032.88 537.948 1032.55 539.236 L1026.73 562.571 Q1026.43 563.742 1026.26 564.913 Q1026.11 566.055 1026.11 566.64 L1026.08 567.226 Q1026.08 570.944 1028.13 572.994 Q1030.21 575.043 1033.4 575.043 Q1038.09 575.043 1042.45 571.325 Q1046.84 567.606 1048.33 561.78 L1053.72 540.378 Q1053.9 539.851 1053.9 539.119 Q1053.9 537.948 1053.02 537.245 Q1052.17 536.513 1049.83 536.484 Q1048.74 536.484 1048.74 535.81 Q1048.74 535.254 1048.95 534.991 Q1049.18 534.698 1049.36 534.669 Q1049.56 534.61 1049.83 534.61 Q1050.82 534.61 1052.93 534.698 Q1055.04 534.786 1056.06 534.786 Q1057.09 534.786 1059.14 534.698 Q1061.19 534.61 1062.18 534.61 Q1062.53 534.61 1062.71 534.786 Q1062.91 534.932 1062.94 535.108 L1062.94 535.283 Z" fill="#000000" fill-rule="nonzero" fill-opacity="1" /><path clip-path="url(#clip990)" d="M1078.58 566.465 Q1078.63 565.733 1079.78 565.733 L1116.52 565.733 Q1118.25 565.733 1118.28 566.406 Q1118.28 567.138 1116.64 567.109 L1080.19 567.109 Q1078.58 567.138 1078.58 566.465 M1078.58 554.753 Q1078.58 554.021 1079.83 554.051 L1116.46 554.051 Q1118.25 554.051 1118.28 554.753 Q1118.28 555.427 1116.75 555.427 L1079.78 555.427 Q1078.58 555.427 1078.58 554.753 Z" fill="#000000" fill-rule="nonzero" fill-opacity="1" /><path clip-path="url(#clip990)" d="M1141.41 567.489 Q1141.41 565.703 1142.43 564.854 Q1143.46 564.005 1144.77 564.005 Q1146.15 564.005 1147.12 564.913 Q1148.11 565.791 1148.11 567.343 Q1148.11 569.012 1146.94 569.949 Q1145.8 570.886 1144.16 570.651 Q1145.59 573.052 1148.23 574.135 Q1150.89 575.219 1153.35 575.219 Q1155.93 575.219 1158.01 572.994 Q1160.12 570.768 1160.12 565.323 Q1160.12 560.697 1158.3 558.032 Q1156.51 555.368 1152.97 555.368 L1150.34 555.368 Q1149.43 555.368 1149.17 555.28 Q1148.9 555.192 1148.9 554.695 Q1148.9 554.109 1149.81 553.992 Q1150.72 553.992 1152.15 553.816 Q1155.64 553.699 1157.48 550.684 Q1159.15 547.873 1159.15 543.862 Q1159.15 540.202 1157.39 538.68 Q1155.67 537.128 1153.41 537.128 Q1151.3 537.128 1148.99 538.006 Q1146.68 538.885 1145.42 540.846 Q1149.14 540.846 1149.14 543.862 Q1149.14 545.179 1148.29 546.058 Q1147.47 546.907 1146.09 546.907 Q1144.77 546.907 1143.9 546.087 Q1143.02 545.238 1143.02 543.803 Q1143.02 540.378 1146.06 538.006 Q1149.14 535.635 1153.65 535.635 Q1158.1 535.635 1161.37 537.977 Q1164.68 540.319 1164.68 543.92 Q1164.68 547.463 1162.34 550.362 Q1160 553.26 1156.28 554.461 Q1160.85 555.368 1163.57 558.472 Q1166.29 561.546 1166.29 565.323 Q1166.29 570.007 1162.6 573.462 Q1158.92 576.888 1153.53 576.888 Q1148.55 576.888 1144.98 574.194 Q1141.41 571.5 1141.41 567.489 Z" fill="#000000" fill-rule="nonzero" fill-opacity="1" /><path clip-path="url(#clip990)" d="M1172.01 574.604 Q1171.1 573.638 1171.1 572.379 Q1171.1 571.12 1172.01 570.212 Q1172.92 569.275 1174.29 569.275 Q1175.61 569.275 1176.49 570.154 Q1177.4 571.003 1177.4 572.408 Q1177.4 573.784 1176.43 574.692 Q1175.49 575.57 1174.29 575.57 Q1172.92 575.57 1172.01 574.604 Z" fill="#000000" fill-rule="nonzero" fill-opacity="1" /><path clip-path="url(#clip990)" d="M1187.6 556.393 Q1187.6 547.58 1189.83 542.779 Q1192.93 535.635 1200.25 535.635 Q1201.8 535.635 1203.41 536.074 Q1205.05 536.484 1207.1 538.094 Q1209.18 539.704 1210.44 542.339 Q1212.84 547.434 1212.84 556.393 Q1212.84 565.147 1210.62 569.919 Q1207.37 576.888 1200.19 576.888 Q1197.5 576.888 1194.75 575.511 Q1192.02 574.135 1190.3 570.827 Q1187.6 565.879 1187.6 556.393 M1192.58 555.661 Q1192.58 564.708 1193.22 568.309 Q1193.96 572.203 1195.95 573.901 Q1197.97 575.57 1200.19 575.57 Q1202.59 575.57 1204.58 573.784 Q1206.6 571.969 1207.22 568.075 Q1207.89 564.239 1207.86 555.661 Q1207.86 547.317 1207.28 543.979 Q1206.49 540.085 1204.38 538.533 Q1202.3 536.952 1200.19 536.952 Q1199.4 536.952 1198.55 537.186 Q1197.73 537.421 1196.53 538.094 Q1195.33 538.767 1194.4 540.436 Q1193.49 542.105 1193.05 544.623 Q1192.58 547.873 1192.58 555.661 Z" fill="#000000" fill-rule="nonzero" fill-opacity="1" /><path clip-path="url(#clip990)" d="M1217.54 556.393 Q1217.54 547.58 1219.76 542.779 Q1222.87 535.635 1230.19 535.635 Q1231.74 535.635 1233.35 536.074 Q1234.99 536.484 1237.04 538.094 Q1239.12 539.704 1240.38 542.339 Q1242.78 547.434 1242.78 556.393 Q1242.78 565.147 1240.55 569.919 Q1237.3 576.888 1230.13 576.888 Q1227.43 576.888 1224.68 575.511 Q1221.96 574.135 1220.23 570.827 Q1217.54 565.879 1217.54 556.393 M1222.52 555.661 Q1222.52 564.708 1223.16 568.309 Q1223.89 572.203 1225.88 573.901 Q1227.9 575.57 1230.13 575.57 Q1232.53 575.57 1234.52 573.784 Q1236.54 571.969 1237.15 568.075 Q1237.83 564.239 1237.8 555.661 Q1237.8 547.317 1237.21 543.979 Q1236.42 540.085 1234.31 538.533 Q1232.24 536.952 1230.13 536.952 Q1229.34 536.952 1228.49 537.186 Q1227.67 537.421 1226.47 538.094 Q1225.27 538.767 1224.33 540.436 Q1223.42 542.105 1222.98 544.623 Q1222.52 547.873 1222.52 555.661 Z" fill="#000000" fill-rule="nonzero" fill-opacity="1" /><path clip-path="url(#clip990)" d="M1247.47 556.393 Q1247.47 547.58 1249.7 542.779 Q1252.8 535.635 1260.12 535.635 Q1261.67 535.635 1263.28 536.074 Q1264.92 536.484 1266.97 538.094 Q1269.05 539.704 1270.31 542.339 Q1272.71 547.434 1272.71 556.393 Q1272.71 565.147 1270.49 569.919 Q1267.24 576.888 1260.06 576.888 Q1257.37 576.888 1254.62 575.511 Q1251.89 574.135 1250.17 570.827 Q1247.47 565.879 1247.47 556.393 M1252.45 555.661 Q1252.45 564.708 1253.1 568.309 Q1253.83 572.203 1255.82 573.901 Q1257.84 575.57 1260.06 575.57 Q1262.46 575.57 1264.46 573.784 Q1266.48 571.969 1267.09 568.075 Q1267.76 564.239 1267.73 555.661 Q1267.73 547.317 1267.15 543.979 Q1266.36 540.085 1264.25 538.533 Q1262.17 536.952 1260.06 536.952 Q1259.27 536.952 1258.42 537.186 Q1257.6 537.421 1256.4 538.094 Q1255.2 538.767 1254.27 540.436 Q1253.36 542.105 1252.92 544.623 Q1252.45 547.873 1252.45 555.661 Z" fill="#000000" fill-rule="nonzero" fill-opacity="1" /><path clip-path="url(#clip990)" d="M1062.94 603.941 Q1062.94 605.141 1061.95 605.141 Q1060.19 605.2 1058.99 605.551 Q1057.79 605.873 1057.09 606.518 Q1056.41 607.162 1056.03 607.864 Q1055.68 608.538 1055.45 609.562 L1050.12 630.848 Q1048.6 636.85 1043.68 641.212 Q1038.76 645.545 1033.17 645.545 Q1029.98 645.545 1027.31 644.228 Q1024.68 642.91 1023.04 640.246 Q1021.4 637.582 1021.4 634.039 Q1021.4 632.341 1021.84 630.555 L1025.47 615.74 L1026.81 610.47 Q1027.81 606.576 1027.81 606.225 Q1027.81 605.668 1027.46 605.522 Q1027.14 605.346 1026.2 605.259 L1023.92 605.141 Q1023.21 605.141 1022.92 605.112 Q1022.66 605.083 1022.45 604.937 Q1022.25 604.79 1022.25 604.468 Q1022.25 604.058 1022.34 603.795 Q1022.45 603.502 1022.66 603.414 Q1022.86 603.326 1023.01 603.297 Q1023.15 603.268 1023.39 603.268 L1031.12 603.443 L1038.79 603.268 Q1039.64 603.268 1039.64 603.941 Q1039.64 604.79 1039.26 604.966 Q1038.88 605.141 1037.59 605.141 Q1035.39 605.141 1034.4 605.434 Q1033.43 605.698 1033.14 606.166 Q1032.88 606.605 1032.55 607.894 L1026.73 631.228 Q1026.43 632.399 1026.26 633.57 Q1026.11 634.712 1026.11 635.298 L1026.08 635.883 Q1026.08 639.602 1028.13 641.651 Q1030.21 643.701 1033.4 643.701 Q1038.09 643.701 1042.45 639.982 Q1046.84 636.264 1048.33 630.438 L1053.72 609.035 Q1053.9 608.508 1053.9 607.776 Q1053.9 606.605 1053.02 605.903 Q1052.17 605.171 1049.83 605.141 Q1048.74 605.141 1048.74 604.468 Q1048.74 603.912 1048.95 603.648 Q1049.18 603.355 1049.36 603.326 Q1049.56 603.268 1049.83 603.268 Q1050.82 603.268 1052.93 603.355 Q1055.04 603.443 1056.06 603.443 Q1057.09 603.443 1059.14 603.355 Q1061.19 603.268 1062.18 603.268 Q1062.53 603.268 1062.71 603.443 Q1062.91 603.59 1062.94 603.765 L1062.94 603.941 Z" fill="#000000" fill-rule="nonzero" fill-opacity="1" /><path clip-path="url(#clip990)" d="M1078.58 635.122 Q1078.63 634.39 1079.78 634.39 L1116.52 634.39 Q1118.25 634.39 1118.28 635.064 Q1118.28 635.796 1116.64 635.766 L1080.19 635.766 Q1078.58 635.796 1078.58 635.122 M1078.58 623.411 Q1078.58 622.679 1079.83 622.708 L1116.46 622.708 Q1118.25 622.708 1118.28 623.411 Q1118.28 624.084 1116.75 624.084 L1079.78 624.084 Q1078.58 624.084 1078.58 623.411 Z" fill="#000000" fill-rule="nonzero" fill-opacity="1" /><path clip-path="url(#clip990)" d="M1141.41 636.147 Q1141.41 634.361 1142.43 633.512 Q1143.46 632.663 1144.77 632.663 Q1146.15 632.663 1147.12 633.57 Q1148.11 634.449 1148.11 636.001 Q1148.11 637.669 1146.94 638.606 Q1145.8 639.543 1144.16 639.309 Q1145.59 641.71 1148.23 642.793 Q1150.89 643.876 1153.35 643.876 Q1155.93 643.876 1158.01 641.651 Q1160.12 639.426 1160.12 633.98 Q1160.12 629.354 1158.3 626.69 Q1156.51 624.026 1152.97 624.026 L1150.34 624.026 Q1149.43 624.026 1149.17 623.938 Q1148.9 623.85 1148.9 623.352 Q1148.9 622.767 1149.81 622.65 Q1150.72 622.65 1152.15 622.474 Q1155.64 622.357 1157.48 619.341 Q1159.15 616.531 1159.15 612.52 Q1159.15 608.86 1157.39 607.337 Q1155.67 605.786 1153.41 605.786 Q1151.3 605.786 1148.99 606.664 Q1146.68 607.542 1145.42 609.504 Q1149.14 609.504 1149.14 612.52 Q1149.14 613.837 1148.29 614.715 Q1147.47 615.564 1146.09 615.564 Q1144.77 615.564 1143.9 614.745 Q1143.02 613.896 1143.02 612.461 Q1143.02 609.035 1146.06 606.664 Q1149.14 604.292 1153.65 604.292 Q1158.1 604.292 1161.37 606.635 Q1164.68 608.977 1164.68 612.578 Q1164.68 616.121 1162.34 619.019 Q1160 621.918 1156.28 623.118 Q1160.85 624.026 1163.57 627.129 Q1166.29 630.203 1166.29 633.98 Q1166.29 638.665 1162.6 642.12 Q1158.92 645.545 1153.53 645.545 Q1148.55 645.545 1144.98 642.852 Q1141.41 640.158 1141.41 636.147 Z" fill="#000000" fill-rule="nonzero" fill-opacity="1" /><path clip-path="url(#clip990)" d="M1172.01 643.261 Q1171.1 642.295 1171.1 641.036 Q1171.1 639.777 1172.01 638.87 Q1172.92 637.933 1174.29 637.933 Q1175.61 637.933 1176.49 638.811 Q1177.4 639.66 1177.4 641.066 Q1177.4 642.442 1176.43 643.349 Q1175.49 644.228 1174.29 644.228 Q1172.92 644.228 1172.01 643.261 Z" fill="#000000" fill-rule="nonzero" fill-opacity="1" /><path clip-path="url(#clip990)" d="M1187.6 644.228 Q1187.6 643.144 1187.69 642.822 Q1187.81 642.5 1188.28 642.003 L1199.78 629.179 Q1206.08 622.093 1206.08 615.916 Q1206.08 611.905 1203.97 609.035 Q1201.89 606.166 1198.06 606.166 Q1195.42 606.166 1193.2 607.776 Q1190.97 609.387 1189.95 612.256 Q1190.12 612.197 1190.74 612.197 Q1192.23 612.197 1193.05 613.134 Q1193.9 614.071 1193.9 615.33 Q1193.9 616.941 1192.84 617.731 Q1191.82 618.492 1190.79 618.492 Q1190.38 618.492 1189.83 618.404 Q1189.3 618.317 1188.45 617.497 Q1187.6 616.648 1187.6 615.155 Q1187.6 610.968 1190.77 607.63 Q1193.96 604.292 1198.82 604.292 Q1204.32 604.292 1207.92 607.572 Q1211.55 610.821 1211.55 615.916 Q1211.55 617.702 1211 619.341 Q1210.47 620.952 1209.74 622.211 Q1209.03 623.47 1207.1 625.49 Q1205.17 627.51 1203.62 628.945 Q1202.07 630.379 1198.58 633.424 L1192.23 639.602 L1203.03 639.602 Q1208.3 639.602 1208.71 639.133 Q1209.3 638.284 1210.03 633.805 L1211.55 633.805 L1209.85 644.228 L1187.6 644.228 Z" fill="#000000" fill-rule="nonzero" fill-opacity="1" /><path clip-path="url(#clip990)" d="M1215.14 616.033 L1217.1 603.707 L1218.59 603.707 Q1218.77 604.439 1219.06 604.761 Q1219.38 605.083 1221.08 605.346 Q1222.81 605.61 1226.29 605.61 L1240.84 605.61 Q1240.84 606.986 1240.32 607.718 L1232.21 619.107 Q1229.63 622.708 1228.49 629.354 Q1227.82 633.805 1227.85 639.192 L1227.85 642.237 Q1227.85 645.545 1225.06 645.545 Q1222.31 645.545 1222.31 642.237 Q1222.31 630.789 1229.69 619.693 Q1230.48 618.551 1233.38 614.481 Q1236.31 610.412 1236.42 610.236 L1224.01 610.236 Q1218.56 610.236 1218.12 610.587 Q1217.54 611.114 1216.63 616.033 L1215.14 616.033 Z" fill="#000000" fill-rule="nonzero" fill-opacity="1" /><path clip-path="url(#clip990)" d="M1239.84 634.566 Q1239.84 632.78 1240.8 632.107 Q1241.77 631.404 1242.8 631.404 Q1244.17 631.404 1244.96 632.282 Q1245.78 633.131 1245.78 634.332 Q1245.78 635.532 1244.96 636.41 Q1244.17 637.259 1242.8 637.259 Q1242.12 637.259 1241.77 637.142 Q1242.56 639.895 1244.96 641.885 Q1247.39 643.876 1250.58 643.876 Q1254.59 643.876 1257 639.982 Q1258.43 637.464 1258.43 631.755 Q1258.43 626.719 1257.35 624.201 Q1255.68 620.366 1252.25 620.366 Q1247.39 620.366 1244.52 624.553 Q1244.17 625.08 1243.76 625.109 Q1243.18 625.109 1243.03 624.787 Q1242.91 624.436 1242.91 623.528 L1242.91 605.786 Q1242.91 604.351 1243.5 604.351 Q1243.73 604.351 1244.23 604.527 Q1248.01 606.195 1252.19 606.225 Q1256.5 606.225 1260.36 604.468 Q1260.66 604.292 1260.83 604.292 Q1261.42 604.292 1261.45 604.966 Q1261.45 605.2 1260.95 605.903 Q1260.48 606.576 1259.46 607.484 Q1258.43 608.362 1257.11 609.211 Q1255.8 610.06 1253.86 610.646 Q1251.96 611.202 1249.85 611.202 Q1247.33 611.202 1244.76 610.412 L1244.76 622.093 Q1247.86 619.049 1252.37 619.049 Q1257.17 619.049 1260.48 622.913 Q1263.79 626.778 1263.79 632.165 Q1263.79 637.816 1259.86 641.68 Q1255.97 645.545 1250.7 645.545 Q1245.9 645.545 1242.85 642.12 Q1239.84 638.694 1239.84 634.566 Z" fill="#000000" fill-rule="nonzero" fill-opacity="1" /><path clip-path="url(#clip990)" d="M1062.94 672.599 Q1062.94 673.799 1061.95 673.799 Q1060.19 673.858 1058.99 674.209 Q1057.79 674.531 1057.09 675.175 Q1056.41 675.819 1056.03 676.522 Q1055.68 677.195 1055.45 678.22 L1050.12 699.505 Q1048.6 705.507 1043.68 709.87 Q1038.76 714.203 1033.17 714.203 Q1029.98 714.203 1027.31 712.885 Q1024.68 711.568 1023.04 708.903 Q1021.4 706.239 1021.4 702.697 Q1021.4 700.998 1021.84 699.212 L1025.47 684.398 L1026.81 679.128 Q1027.81 675.234 1027.81 674.882 Q1027.81 674.326 1027.46 674.18 Q1027.14 674.004 1026.2 673.916 L1023.92 673.799 Q1023.21 673.799 1022.92 673.77 Q1022.66 673.741 1022.45 673.594 Q1022.25 673.448 1022.25 673.126 Q1022.25 672.716 1022.34 672.452 Q1022.45 672.16 1022.66 672.072 Q1022.86 671.984 1023.01 671.955 Q1023.15 671.925 1023.39 671.925 L1031.12 672.101 L1038.79 671.925 Q1039.64 671.925 1039.64 672.599 Q1039.64 673.448 1039.26 673.623 Q1038.88 673.799 1037.59 673.799 Q1035.39 673.799 1034.4 674.092 Q1033.43 674.355 1033.14 674.824 Q1032.88 675.263 1032.55 676.551 L1026.73 699.886 Q1026.43 701.057 1026.26 702.228 Q1026.11 703.37 1026.11 703.955 L1026.08 704.541 Q1026.08 708.259 1028.13 710.309 Q1030.21 712.358 1033.4 712.358 Q1038.09 712.358 1042.45 708.64 Q1046.84 704.922 1048.33 699.095 L1053.72 677.693 Q1053.9 677.166 1053.9 676.434 Q1053.9 675.263 1053.02 674.56 Q1052.17 673.828 1049.83 673.799 Q1048.74 673.799 1048.74 673.126 Q1048.74 672.569 1048.95 672.306 Q1049.18 672.013 1049.36 671.984 Q1049.56 671.925 1049.83 671.925 Q1050.82 671.925 1052.93 672.013 Q1055.04 672.101 1056.06 672.101 Q1057.09 672.101 1059.14 672.013 Q1061.19 671.925 1062.18 671.925 Q1062.53 671.925 1062.71 672.101 Q1062.91 672.247 1062.94 672.423 L1062.94 672.599 Z" fill="#000000" fill-rule="nonzero" fill-opacity="1" /><path clip-path="url(#clip990)" d="M1078.58 703.78 Q1078.63 703.048 1079.78 703.048 L1116.52 703.048 Q1118.25 703.048 1118.28 703.721 Q1118.28 704.453 1116.64 704.424 L1080.19 704.424 Q1078.58 704.453 1078.58 703.78 M1078.58 692.069 Q1078.58 691.337 1079.83 691.366 L1116.46 691.366 Q1118.25 691.366 1118.28 692.069 Q1118.28 692.742 1116.75 692.742 L1079.78 692.742 Q1078.58 692.742 1078.58 692.069 Z" fill="#000000" fill-rule="nonzero" fill-opacity="1" /><path clip-path="url(#clip990)" d="M1141.41 704.805 Q1141.41 703.019 1142.43 702.17 Q1143.46 701.32 1144.77 701.32 Q1146.15 701.32 1147.12 702.228 Q1148.11 703.106 1148.11 704.658 Q1148.11 706.327 1146.94 707.264 Q1145.8 708.201 1144.16 707.967 Q1145.59 710.367 1148.23 711.451 Q1150.89 712.534 1153.35 712.534 Q1155.93 712.534 1158.01 710.309 Q1160.12 708.084 1160.12 702.638 Q1160.12 698.012 1158.3 695.348 Q1156.51 692.683 1152.97 692.683 L1150.34 692.683 Q1149.43 692.683 1149.17 692.596 Q1148.9 692.508 1148.9 692.01 Q1148.9 691.424 1149.81 691.307 Q1150.72 691.307 1152.15 691.132 Q1155.64 691.015 1157.48 687.999 Q1159.15 685.188 1159.15 681.177 Q1159.15 677.517 1157.39 675.995 Q1155.67 674.443 1153.41 674.443 Q1151.3 674.443 1148.99 675.322 Q1146.68 676.2 1145.42 678.162 Q1149.14 678.162 1149.14 681.177 Q1149.14 682.495 1148.29 683.373 Q1147.47 684.222 1146.09 684.222 Q1144.77 684.222 1143.9 683.402 Q1143.02 682.553 1143.02 681.119 Q1143.02 677.693 1146.06 675.322 Q1149.14 672.95 1153.65 672.95 Q1158.1 672.95 1161.37 675.292 Q1164.68 677.635 1164.68 681.236 Q1164.68 684.778 1162.34 687.677 Q1160 690.575 1156.28 691.776 Q1160.85 692.683 1163.57 695.787 Q1166.29 698.861 1166.29 702.638 Q1166.29 707.322 1162.6 710.777 Q1158.92 714.203 1153.53 714.203 Q1148.55 714.203 1144.98 711.509 Q1141.41 708.816 1141.41 704.805 Z" fill="#000000" fill-rule="nonzero" fill-opacity="1" /><path clip-path="url(#clip990)" d="M1172.01 711.919 Q1171.1 710.953 1171.1 709.694 Q1171.1 708.435 1172.01 707.527 Q1172.92 706.591 1174.29 706.591 Q1175.61 706.591 1176.49 707.469 Q1177.4 708.318 1177.4 709.723 Q1177.4 711.099 1176.43 712.007 Q1175.49 712.885 1174.29 712.885 Q1172.92 712.885 1172.01 711.919 Z" fill="#000000" fill-rule="nonzero" fill-opacity="1" /><path clip-path="url(#clip990)" d="M1187.6 703.224 Q1187.6 701.438 1188.57 700.764 Q1189.54 700.062 1190.56 700.062 Q1191.94 700.062 1192.73 700.94 Q1193.55 701.789 1193.55 702.989 Q1193.55 704.19 1192.73 705.068 Q1191.94 705.917 1190.56 705.917 Q1189.89 705.917 1189.54 705.8 Q1190.33 708.552 1192.73 710.543 Q1195.16 712.534 1198.35 712.534 Q1202.36 712.534 1204.76 708.64 Q1206.19 706.122 1206.19 700.413 Q1206.19 695.377 1205.11 692.859 Q1203.44 689.024 1200.02 689.024 Q1195.16 689.024 1192.29 693.21 Q1191.94 693.737 1191.53 693.767 Q1190.94 693.767 1190.79 693.445 Q1190.68 693.093 1190.68 692.186 L1190.68 674.443 Q1190.68 673.009 1191.26 673.009 Q1191.5 673.009 1191.99 673.184 Q1195.77 674.853 1199.96 674.882 Q1204.26 674.882 1208.13 673.126 Q1208.42 672.95 1208.6 672.95 Q1209.18 672.95 1209.21 673.623 Q1209.21 673.858 1208.71 674.56 Q1208.24 675.234 1207.22 676.141 Q1206.19 677.02 1204.88 677.869 Q1203.56 678.718 1201.63 679.303 Q1199.72 679.86 1197.62 679.86 Q1195.1 679.86 1192.52 679.069 L1192.52 690.751 Q1195.63 687.706 1200.13 687.706 Q1204.94 687.706 1208.24 691.571 Q1211.55 695.436 1211.55 700.823 Q1211.55 706.473 1207.63 710.338 Q1203.74 714.203 1198.47 714.203 Q1193.66 714.203 1190.62 710.777 Q1187.6 707.352 1187.6 703.224 Z" fill="#000000" fill-rule="nonzero" fill-opacity="1" /><path clip-path="url(#clip990)" d="M1217.54 693.708 Q1217.54 684.895 1219.76 680.094 Q1222.87 672.95 1230.19 672.95 Q1231.74 672.95 1233.35 673.389 Q1234.99 673.799 1237.04 675.409 Q1239.12 677.02 1240.38 679.655 Q1242.78 684.749 1242.78 693.708 Q1242.78 702.462 1240.55 707.235 Q1237.3 714.203 1230.13 714.203 Q1227.43 714.203 1224.68 712.827 Q1221.96 711.451 1220.23 708.142 Q1217.54 703.194 1217.54 693.708 M1222.52 692.976 Q1222.52 702.023 1223.16 705.624 Q1223.89 709.518 1225.88 711.216 Q1227.9 712.885 1230.13 712.885 Q1232.53 712.885 1234.52 711.099 Q1236.54 709.284 1237.15 705.39 Q1237.83 701.555 1237.8 692.976 Q1237.8 684.632 1237.21 681.294 Q1236.42 677.4 1234.31 675.849 Q1232.24 674.268 1230.13 674.268 Q1229.34 674.268 1228.49 674.502 Q1227.67 674.736 1226.47 675.409 Q1225.27 676.083 1224.33 677.752 Q1223.42 679.42 1222.98 681.938 Q1222.52 685.188 1222.52 692.976 Z" fill="#000000" fill-rule="nonzero" fill-opacity="1" /><path clip-path="url(#clip990)" d="M1247.47 693.708 Q1247.47 684.895 1249.7 680.094 Q1252.8 672.95 1260.12 672.95 Q1261.67 672.95 1263.28 673.389 Q1264.92 673.799 1266.97 675.409 Q1269.05 677.02 1270.31 679.655 Q1272.71 684.749 1272.71 693.708 Q1272.71 702.462 1270.49 707.235 Q1267.24 714.203 1260.06 714.203 Q1257.37 714.203 1254.62 712.827 Q1251.89 711.451 1250.17 708.142 Q1247.47 703.194 1247.47 693.708 M1252.45 692.976 Q1252.45 702.023 1253.1 705.624 Q1253.83 709.518 1255.82 711.216 Q1257.84 712.885 1260.06 712.885 Q1262.46 712.885 1264.46 711.099 Q1266.48 709.284 1267.09 705.39 Q1267.76 701.555 1267.73 692.976 Q1267.73 684.632 1267.15 681.294 Q1266.36 677.4 1264.25 675.849 Q1262.17 674.268 1260.06 674.268 Q1259.27 674.268 1258.42 674.502 Q1257.6 674.736 1256.4 675.409 Q1255.2 676.083 1254.27 677.752 Q1253.36 679.42 1252.92 681.938 Q1252.45 685.188 1252.45 692.976 Z" fill="#000000" fill-rule="nonzero" fill-opacity="1" /></svg>
