<?xml version="1.0" encoding="utf-8" standalone="no"?>
<!DOCTYPE svg PUBLIC "-//W3C//DTD SVG 1.1//EN"
  "http://www.w3.org/Graphics/SVG/1.1/DTD/svg11.dtd">
<svg xmlns:xlink="http://www.w3.org/1999/xlink" width="241.96032pt" height="178.641792pt" viewBox="0 0 241.96032 178.641792" xmlns="http://www.w3.org/2000/svg" version="1.1">
 <metadata>
  <rdf:RDF xmlns:dc="http://purl.org/dc/elements/1.1/" xmlns:cc="http://creativecommons.org/ns#" xmlns:rdf="http://www.w3.org/1999/02/22-rdf-syntax-ns#">
   <cc:Work>
    <dc:type rdf:resource="http://purl.org/dc/dcmitype/StillImage"/>
    <dc:date>2025-02-21T10:08:45.234989</dc:date>
    <dc:format>image/svg+xml</dc:format>
    <dc:creator>
     <cc:Agent>
      <dc:title>Matplotlib v3.9.4, https://matplotlib.org/</dc:title>
     </cc:Agent>
    </dc:creator>
   </cc:Work>
  </rdf:RDF>
 </metadata>
 <defs>
  <style type="text/css">*{stroke-linejoin: round; stroke-linecap: butt}</style>
 </defs>
 <g id="figure_1">
  <g id="patch_1">
   <path d="M 0 178.641792 
L 241.96032 178.641792 
L 241.96032 0 
L 0 0 
L 0 178.641792 
z
" style="fill: none"/>
  </g>
  <g id="axes_1">
   <g id="patch_2">
    <path d="M 43.969761 152.383475 
L 240.52032 152.383475 
L 240.52032 29.814357 
L 43.969761 29.814357 
L 43.969761 152.383475 
z
" style="fill: none"/>
   </g>
   <g id="line2d_1">
    <path d="M 52.903935 43.014523 
L 231.586147 146.068729 
L 231.586147 146.068729 
" clip-path="url(#p018b9ca2c0)" style="fill: none; stroke-dasharray: 3.33,1.44; stroke-dashoffset: 0; stroke: #77dd77; stroke-width: 0.9"/>
   </g>
   <g id="PolyCollection_1">
    <defs>
     <path id="m4061b44939" d="M 52.903878 -143.256112 
L 52.903878 -140.688728 
L 53.801768 -140.099364 
L 54.699659 -139.507978 
L 55.597549 -138.914651 
L 56.495439 -138.319477 
L 57.39333 -137.722558 
L 58.29122 -137.124005 
L 59.189253 -136.523841 
L 60.087143 -135.92238 
L 60.985034 -135.319659 
L 61.882924 -134.71581 
L 62.780814 -134.110968 
L 63.678705 -133.50527 
L 64.576595 -132.898851 
L 65.474486 -132.291846 
L 66.372376 -131.684384 
L 67.270267 -131.076593 
L 68.168157 -130.468595 
L 69.066048 -129.860508 
L 69.963938 -129.252441 
L 70.86197 -128.644405 
L 71.759861 -128.036691 
L 72.657751 -127.429295 
L 73.555642 -126.822305 
L 74.453532 -126.215799 
L 75.351423 -125.609854 
L 76.249313 -125.004536 
L 77.147203 -124.39991 
L 78.045094 -123.79603 
L 78.942984 -123.19295 
L 79.840875 -122.590719 
L 80.738765 -121.989375 
L 81.636656 -121.38896 
L 82.534546 -120.789509 
L 83.432578 -120.190955 
L 84.330469 -119.593514 
L 85.228359 -118.997116 
L 86.12625 -118.401782 
L 87.02414 -117.807528 
L 87.922031 -117.214369 
L 88.819921 -116.622316 
L 89.717811 -116.03138 
L 90.615702 -115.441569 
L 91.513592 -114.852886 
L 92.411483 -114.265335 
L 93.309373 -113.678921 
L 94.207264 -113.093639 
L 95.105296 -112.509398 
L 96.003186 -111.926379 
L 96.901077 -111.344486 
L 97.798967 -110.763712 
L 98.696858 -110.184052 
L 99.594748 -109.605494 
L 100.492639 -109.028036 
L 101.390529 -108.451666 
L 102.288419 -107.876369 
L 103.18631 -107.302142 
L 104.0842 -106.72897 
L 104.982091 -106.156839 
L 105.879981 -105.585742 
L 106.778014 -105.015573 
L 107.675904 -104.446503 
L 108.573795 -103.878424 
L 109.471685 -103.311331 
L 110.369575 -102.745209 
L 111.267466 -102.180043 
L 112.165356 -101.615828 
L 113.063247 -101.052551 
L 113.961137 -100.490199 
L 114.859028 -99.928768 
L 115.756918 -99.368249 
L 116.654808 -98.808629 
L 117.552699 -98.249909 
L 118.450589 -97.69208 
L 119.348622 -97.135047 
L 120.246512 -96.578985 
L 121.144403 -96.023797 
L 122.042293 -95.469488 
L 122.940183 -94.916052 
L 123.838074 -94.363484 
L 124.735964 -93.811791 
L 125.633855 -93.260969 
L 126.531745 -92.711016 
L 127.429636 -92.161939 
L 128.327526 -91.613737 
L 129.225416 -91.066407 
L 130.123307 -90.519958 
L 131.021339 -89.974303 
L 131.91923 -89.429617 
L 132.81712 -88.885812 
L 133.715011 -88.342896 
L 134.612901 -87.800868 
L 135.510791 -87.259726 
L 136.408682 -86.719476 
L 137.306572 -86.180115 
L 138.204463 -85.641639 
L 139.102353 -85.104053 
L 140.000244 -84.567351 
L 140.898134 -84.031525 
L 141.796025 -83.496577 
L 142.694057 -82.962413 
L 143.591947 -82.429192 
L 144.489838 -81.896831 
L 145.387728 -81.365307 
L 146.285619 -80.834615 
L 147.183509 -80.30475 
L 148.0814 -79.775684 
L 148.97929 -79.24741 
L 149.87718 -78.719918 
L 150.775071 -78.19318 
L 151.672961 -77.667183 
L 152.570852 -77.141915 
L 153.468742 -76.617345 
L 154.366775 -76.093379 
L 155.264665 -75.570158 
L 156.162555 -75.047587 
L 157.060446 -74.525632 
L 157.958336 -74.00428 
L 158.856227 -73.483516 
L 159.754117 -72.963307 
L 160.652008 -72.443638 
L 161.549898 -71.924496 
L 162.447788 -71.40585 
L 163.345679 -70.887684 
L 164.243569 -70.369988 
L 165.14146 -69.852729 
L 166.039492 -69.335817 
L 166.937383 -68.819394 
L 167.835273 -68.303368 
L 168.733163 -67.787712 
L 169.631054 -67.272415 
L 170.528944 -66.757468 
L 171.426835 -66.242843 
L 172.324725 -65.728532 
L 173.222616 -65.214528 
L 174.120506 -64.700803 
L 175.018396 -64.187351 
L 175.916287 -63.674164 
L 176.814177 -63.161217 
L 177.712068 -62.648502 
L 178.6101 -62.135929 
L 179.507991 -61.623649 
L 180.405881 -61.111557 
L 181.303772 -60.599648 
L 182.201662 -60.087914 
L 183.099552 -59.576331 
L 183.997443 -59.064891 
L 184.895333 -58.553589 
L 185.793224 -58.0424 
L 186.691114 -57.531315 
L 187.589005 -57.020328 
L 188.486895 -56.509415 
L 189.384785 -55.998573 
L 190.282818 -55.487699 
L 191.180708 -54.976942 
L 192.078599 -54.466211 
L 192.976489 -53.955498 
L 193.87438 -53.444777 
L 194.77227 -52.934041 
L 195.67016 -52.423283 
L 196.568051 -51.912476 
L 197.465941 -51.401614 
L 198.363832 -50.890689 
L 199.261722 -50.379676 
L 200.159613 -49.868567 
L 201.057503 -49.357356 
L 201.955535 -48.845938 
L 202.853426 -48.334465 
L 203.751316 -47.822846 
L 204.649207 -47.311074 
L 205.547097 -46.799124 
L 206.444988 -46.286991 
L 207.342878 -45.774668 
L 208.240768 -45.262133 
L 209.138659 -44.749378 
L 210.036549 -44.2364 
L 210.93444 -43.723174 
L 211.83233 -43.209697 
L 212.730221 -42.695962 
L 213.628111 -42.181947 
L 214.526143 -41.667569 
L 215.424034 -41.152976 
L 216.321924 -40.638085 
L 217.219815 -40.122874 
L 218.117705 -39.607339 
L 219.015596 -39.091477 
L 219.913486 -38.575267 
L 220.811377 -38.058706 
L 221.709267 -37.541792 
L 222.607157 -37.024503 
L 223.505048 -36.506839 
L 224.402938 -35.988796 
L 225.300829 -35.470355 
L 226.198861 -34.951436 
L 227.096752 -34.432189 
L 227.994642 -33.912536 
L 228.892532 -33.392456 
L 229.790423 -32.87195 
L 230.688313 -32.351017 
L 231.586204 -31.82964 
L 231.586204 -40.347397 
L 231.586204 -40.347397 
L 230.688313 -40.686343 
L 229.790423 -41.027831 
L 228.892532 -41.37186 
L 227.994642 -41.718418 
L 227.096752 -42.067491 
L 226.198861 -42.419078 
L 225.300829 -42.773218 
L 224.402938 -43.129792 
L 223.505048 -43.48884 
L 222.607157 -43.85036 
L 221.709267 -44.214335 
L 220.811377 -44.580751 
L 219.913486 -44.949605 
L 219.015596 -45.320879 
L 218.117705 -45.694559 
L 217.219815 -46.070639 
L 216.321924 -46.449105 
L 215.424034 -46.829937 
L 214.526143 -47.213133 
L 213.628111 -47.598735 
L 212.730221 -47.98661 
L 211.83233 -48.3768 
L 210.93444 -48.769301 
L 210.036549 -49.164094 
L 209.138659 -49.56116 
L 208.240768 -49.960496 
L 207.342878 -50.362083 
L 206.444988 -50.765902 
L 205.547097 -51.171947 
L 204.649207 -51.5802 
L 203.751316 -51.990642 
L 202.853426 -52.403269 
L 201.955535 -52.818059 
L 201.057503 -53.235064 
L 200.159613 -53.654136 
L 199.261722 -54.075333 
L 198.363832 -54.498635 
L 197.465941 -54.924025 
L 196.568051 -55.351495 
L 195.67016 -55.781028 
L 194.77227 -56.212603 
L 193.87438 -56.646216 
L 192.976489 -57.081847 
L 192.078599 -57.519477 
L 191.180708 -57.959103 
L 190.282818 -58.400705 
L 189.384785 -58.844338 
L 188.486895 -59.289847 
L 187.589005 -59.737298 
L 186.691114 -60.186668 
L 185.793224 -60.637953 
L 184.895333 -61.091138 
L 183.997443 -61.546204 
L 183.099552 -62.003151 
L 182.201662 -62.461963 
L 181.303772 -62.922622 
L 180.405881 -63.38513 
L 179.507991 -63.849471 
L 178.6101 -64.315628 
L 177.712068 -64.783676 
L 176.814177 -65.253456 
L 175.916287 -65.725029 
L 175.018396 -66.198382 
L 174.120506 -66.673517 
L 173.222616 -67.150419 
L 172.324725 -67.629073 
L 171.426835 -68.109483 
L 170.528944 -68.591634 
L 169.631054 -69.075511 
L 168.733163 -69.561117 
L 167.835273 -70.048437 
L 166.937383 -70.537456 
L 166.039492 -71.028177 
L 165.14146 -71.520661 
L 164.243569 -72.014745 
L 163.345679 -72.510491 
L 162.447788 -73.007899 
L 161.549898 -73.506956 
L 160.652008 -74.007643 
L 159.754117 -74.509964 
L 158.856227 -75.013902 
L 157.958336 -75.519441 
L 157.060446 -76.026584 
L 156.162555 -76.535314 
L 155.264665 -77.045616 
L 154.366775 -77.557493 
L 153.468742 -78.07101 
L 152.570852 -78.585999 
L 151.672961 -79.102526 
L 150.775071 -79.620595 
L 149.87718 -80.140195 
L 148.97929 -80.661313 
L 148.0814 -81.183956 
L 147.183509 -81.708115 
L 146.285619 -82.23378 
L 145.387728 -82.76096 
L 144.489838 -83.289649 
L 143.591947 -83.819839 
L 142.694057 -84.351542 
L 141.796025 -84.884837 
L 140.898134 -85.419556 
L 140.000244 -85.95579 
L 139.102353 -86.493536 
L 138.204463 -87.0328 
L 137.306572 -87.573588 
L 136.408682 -88.115898 
L 135.510791 -88.659735 
L 134.612901 -89.205107 
L 133.715011 -89.752009 
L 132.81712 -90.300448 
L 131.91923 -90.850428 
L 131.021339 -91.401943 
L 130.123307 -91.955086 
L 129.225416 -92.509678 
L 128.327526 -93.065807 
L 127.429636 -93.623462 
L 126.531745 -94.182642 
L 125.633855 -94.743342 
L 124.735964 -95.305544 
L 123.838074 -95.869242 
L 122.940183 -96.434424 
L 122.042293 -97.00107 
L 121.144403 -97.569165 
L 120.246512 -98.138695 
L 119.348622 -98.709632 
L 118.450589 -99.282049 
L 117.552699 -99.855739 
L 116.654808 -100.430769 
L 115.756918 -101.007115 
L 114.859028 -101.584744 
L 113.961137 -102.163628 
L 113.063247 -102.743741 
L 112.165356 -103.325045 
L 111.267466 -103.907511 
L 110.369575 -104.491108 
L 109.471685 -105.075796 
L 108.573795 -105.661544 
L 107.675904 -106.248319 
L 106.778014 -106.83608 
L 105.879981 -107.424887 
L 104.982091 -108.014516 
L 104.0842 -108.605029 
L 103.18631 -109.196383 
L 102.288419 -109.788545 
L 101.390529 -110.381483 
L 100.492639 -110.975155 
L 99.594748 -111.569529 
L 98.696858 -112.164575 
L 97.798967 -112.760253 
L 96.901077 -113.356535 
L 96.003186 -113.953385 
L 95.105296 -114.550777 
L 94.207264 -115.148773 
L 93.309373 -115.747157 
L 92.411483 -116.345995 
L 91.513592 -116.945263 
L 90.615702 -117.544936 
L 89.717811 -118.144991 
L 88.819921 -118.745411 
L 87.922031 -119.346175 
L 87.02414 -119.947265 
L 86.12625 -120.548672 
L 85.228359 -121.15038 
L 84.330469 -121.752385 
L 83.432578 -122.354678 
L 82.534546 -122.957353 
L 81.636656 -123.560219 
L 80.738765 -124.163378 
L 79.840875 -124.766837 
L 78.942984 -125.370606 
L 78.045094 -125.974705 
L 77.147203 -126.579154 
L 76.249313 -127.183978 
L 75.351423 -127.78921 
L 74.453532 -128.394886 
L 73.555642 -129.001049 
L 72.657751 -129.607745 
L 71.759861 -130.215031 
L 70.86197 -130.822967 
L 69.963938 -131.431716 
L 69.066048 -132.041158 
L 68.168157 -132.65147 
L 67.270267 -133.262737 
L 66.372376 -133.875052 
L 65.474486 -134.488509 
L 64.576595 -135.103211 
L 63.678705 -135.719265 
L 62.780814 -136.336777 
L 61.882924 -136.955858 
L 60.985034 -137.57662 
L 60.087143 -138.199172 
L 59.189253 -138.823624 
L 58.29122 -139.450179 
L 57.39333 -140.078739 
L 56.495439 -140.709498 
L 55.597549 -141.342541 
L 54.699659 -141.977947 
L 53.801768 -142.615785 
L 52.903878 -143.256112 
z
" style="stroke: #ff6961; stroke-opacity: 0.2"/>
    </defs>
    <g clip-path="url(#p018b9ca2c0)">
     <use xlink:href="#m4061b44939" x="0" y="178.641792" style="fill: #ff6961; fill-opacity: 0.2; stroke: #ff6961; stroke-opacity: 0.2"/>
    </g>
   </g>
   <g id="patch_3">
    <path d="M 151.774759 113.691386 
L 174.407839 113.691386 
L 174.407839 99.201564 
L 151.774759 99.201564 
L 151.774759 113.691386 
z
" clip-path="url(#p018b9ca2c0)" style="fill: none; stroke: #b2b2b2; stroke-width: 0.5"/>
   </g>
   <g id="matplotlib.axis_1">
    <g id="xtick_1">
     <g id="line2d_2">
      <defs>
       <path id="m6d379bd9b6" d="M 0 0 
L 0 -4 
" style="stroke: #000000; stroke-width: 0.5"/>
      </defs>
      <g>
       <use xlink:href="#m6d379bd9b6" x="52.903935" y="152.383475" style="stroke: #000000; stroke-width: 0.5"/>
      </g>
     </g>
     <g id="text_1">
      <!-- $\mathdefault{3.1}$ -->
      <g transform="translate(46.538895 163.301974) scale(0.1 -0.1)">
       <defs>
        <path id="CMR17-33" d="M 1414 2157 
C 1984 2157 2234 1662 2234 1090 
C 2234 320 1824 25 1453 25 
C 1114 25 563 194 390 693 
C 422 680 454 680 486 680 
C 640 680 755 782 755 948 
C 755 1133 614 1216 486 1216 
C 378 1216 211 1165 211 926 
C 211 335 787 -128 1466 -128 
C 2176 -128 2720 430 2720 1085 
C 2720 1707 2208 2157 1600 2227 
C 2086 2328 2554 2756 2554 3329 
C 2554 3820 2048 4179 1472 4179 
C 890 4179 378 3829 378 3329 
C 378 3110 544 3072 627 3072 
C 762 3072 877 3155 877 3321 
C 877 3486 762 3569 627 3569 
C 602 3569 570 3569 544 3557 
C 730 3959 1235 4032 1459 4032 
C 1683 4032 2106 3925 2106 3320 
C 2106 3143 2080 2828 1862 2550 
C 1670 2304 1453 2304 1242 2284 
C 1210 2284 1062 2269 1037 2269 
C 992 2263 966 2257 966 2208 
C 966 2163 973 2157 1101 2157 
L 1414 2157 
z
" transform="scale(0.015625)"/>
        <path id="CMMI12-3a" d="M 1178 307 
C 1178 492 1024 619 870 619 
C 685 619 557 466 557 313 
C 557 128 710 0 864 0 
C 1050 0 1178 153 1178 307 
z
" transform="scale(0.015625)"/>
        <path id="CMR17-31" d="M 1702 4058 
C 1702 4192 1696 4192 1606 4192 
C 1357 3916 979 3827 621 3827 
C 602 3827 570 3827 563 3808 
C 557 3795 557 3782 557 3648 
C 755 3648 1088 3686 1344 3839 
L 1344 461 
C 1344 236 1331 160 781 160 
L 589 160 
L 589 0 
C 896 0 1216 0 1523 0 
C 1830 0 2150 0 2458 0 
L 2458 160 
L 2266 160 
C 1715 160 1702 230 1702 458 
L 1702 4058 
z
" transform="scale(0.015625)"/>
       </defs>
       <use xlink:href="#CMR17-33" transform="scale(0.996264)"/>
       <use xlink:href="#CMMI12-3a" transform="translate(45.690477 0) scale(0.996264)"/>
       <use xlink:href="#CMR17-31" transform="translate(72.787654 0) scale(0.996264)"/>
      </g>
     </g>
    </g>
    <g id="xtick_2">
     <g id="line2d_3">
      <g>
       <use xlink:href="#m6d379bd9b6" x="112.464672" y="152.383475" style="stroke: #000000; stroke-width: 0.5"/>
      </g>
     </g>
     <g id="text_2">
      <!-- $\mathdefault{3.2}$ -->
      <g transform="translate(106.099633 163.301974) scale(0.1 -0.1)">
       <defs>
        <path id="CMR17-32" d="M 2669 989 
L 2554 989 
C 2490 536 2438 459 2413 420 
C 2381 369 1920 369 1830 369 
L 602 369 
C 832 619 1280 1072 1824 1597 
C 2214 1967 2669 2402 2669 3035 
C 2669 3790 2067 4224 1395 4224 
C 691 4224 262 3604 262 3030 
C 262 2780 448 2748 525 2748 
C 589 2748 781 2787 781 3010 
C 781 3207 614 3264 525 3264 
C 486 3264 448 3258 422 3245 
C 544 3790 915 4058 1306 4058 
C 1862 4058 2227 3617 2227 3035 
C 2227 2479 1901 2000 1536 1584 
L 262 146 
L 262 0 
L 2515 0 
L 2669 989 
z
" transform="scale(0.015625)"/>
       </defs>
       <use xlink:href="#CMR17-33" transform="scale(0.996264)"/>
       <use xlink:href="#CMMI12-3a" transform="translate(45.690477 0) scale(0.996264)"/>
       <use xlink:href="#CMR17-32" transform="translate(72.787654 0) scale(0.996264)"/>
      </g>
     </g>
    </g>
    <g id="xtick_3">
     <g id="line2d_4">
      <g>
       <use xlink:href="#m6d379bd9b6" x="172.025409" y="152.383475" style="stroke: #000000; stroke-width: 0.5"/>
      </g>
     </g>
     <g id="text_3">
      <!-- $\mathdefault{3.3}$ -->
      <g transform="translate(165.66037 163.301974) scale(0.1 -0.1)">
       <use xlink:href="#CMR17-33" transform="scale(0.996264)"/>
       <use xlink:href="#CMMI12-3a" transform="translate(45.690477 0) scale(0.996264)"/>
       <use xlink:href="#CMR17-33" transform="translate(72.787654 0) scale(0.996264)"/>
      </g>
     </g>
    </g>
    <g id="xtick_4">
     <g id="line2d_5">
      <g>
       <use xlink:href="#m6d379bd9b6" x="231.586147" y="152.383475" style="stroke: #000000; stroke-width: 0.5"/>
      </g>
     </g>
     <g id="text_4">
      <!-- $\mathdefault{3.4}$ -->
      <g transform="translate(225.221107 163.301974) scale(0.1 -0.1)">
       <defs>
        <path id="CMR17-34" d="M 2150 4122 
C 2150 4256 2144 4256 2029 4256 
L 128 1254 
L 128 1088 
L 1779 1088 
L 1779 457 
C 1779 224 1766 160 1318 160 
L 1197 160 
L 1197 0 
C 1402 0 1747 0 1965 0 
C 2182 0 2528 0 2733 0 
L 2733 160 
L 2611 160 
C 2163 160 2150 224 2150 457 
L 2150 1088 
L 2803 1088 
L 2803 1254 
L 2150 1254 
L 2150 4122 
z
M 1798 3703 
L 1798 1254 
L 256 1254 
L 1798 3703 
z
" transform="scale(0.015625)"/>
       </defs>
       <use xlink:href="#CMR17-33" transform="scale(0.996264)"/>
       <use xlink:href="#CMMI12-3a" transform="translate(45.690477 0) scale(0.996264)"/>
       <use xlink:href="#CMR17-34" transform="translate(72.787654 0) scale(0.996264)"/>
      </g>
     </g>
    </g>
    <g id="text_5">
     <!-- $U/J$ -->
     <g transform="translate(133.32468 174.711132) scale(0.1 -0.1)">
      <defs>
       <path id="CMMI12-55" d="M 3238 1474 
C 3014 581 2272 57 1670 57 
C 1210 57 896 363 896 891 
C 896 916 896 1107 966 1387 
L 1594 3887 
C 1651 4103 1664 4167 2118 4167 
C 2234 4167 2298 4167 2298 4282 
C 2298 4352 2240 4352 2202 4352 
C 2086 4352 1952 4352 1830 4352 
L 1075 4352 
C 954 4352 819 4352 698 4352 
C 653 4352 576 4352 576 4231 
C 576 4167 621 4167 742 4167 
C 1126 4167 1126 4116 1126 4046 
C 1126 4008 1082 3824 1050 3715 
L 493 1488 
C 474 1418 435 1246 435 1075 
C 435 374 941 -128 1638 -128 
C 2285 -128 3002 384 3328 1197 
C 3373 1305 3430 1530 3469 1702 
C 3533 1933 3667 2496 3712 2662 
L 3955 3623 
C 4038 3956 4090 4167 4653 4167 
C 4704 4173 4730 4224 4730 4282 
C 4730 4352 4672 4352 4646 4352 
C 4557 4352 4442 4352 4352 4352 
L 4051 4352 
C 3654 4352 3450 4352 3443 4352 
C 3405 4352 3328 4352 3328 4231 
C 3328 4167 3379 4167 3424 4167 
C 3808 4167 3834 4020 3834 3905 
C 3834 3848 3834 3828 3808 3739 
L 3238 1474 
z
" transform="scale(0.015625)"/>
       <path id="CMMI12-3d" d="M 2746 4562 
C 2746 4569 2784 4666 2784 4678 
C 2784 4755 2720 4800 2669 4800 
C 2637 4800 2579 4800 2528 4659 
L 384 -1363 
C 384 -1370 346 -1465 346 -1478 
C 346 -1555 410 -1600 461 -1600 
C 499 -1600 557 -1593 602 -1459 
L 2746 4562 
z
" transform="scale(0.015625)"/>
       <path id="CMMI12-4a" d="M 3418 3912 
C 3469 4103 3482 4167 3795 4167 
C 3898 4167 3962 4167 3962 4282 
C 3962 4352 3904 4352 3878 4352 
C 3770 4352 3648 4352 3533 4352 
L 3181 4352 
C 2912 4352 2630 4352 2362 4352 
C 2304 4352 2227 4352 2227 4237 
C 2227 4173 2278 4173 2278 4167 
L 2438 4167 
C 2950 4167 2950 4116 2950 4020 
C 2950 4013 2950 3969 2925 3868 
L 2189 960 
C 2022 312 1594 0 1286 0 
C 1069 0 762 100 685 431 
C 710 424 742 418 768 418 
C 979 418 1146 603 1146 788 
C 1146 890 1082 1024 890 1024 
C 774 1024 506 961 506 549 
C 506 151 838 -128 1299 -128 
C 1882 -128 2509 311 2662 915 
L 3418 3912 
z
" transform="scale(0.015625)"/>
      </defs>
      <use xlink:href="#CMMI12-55" transform="scale(0.996264)"/>
      <use xlink:href="#CMMI12-3d" transform="translate(71.239337 0) scale(0.996264)"/>
      <use xlink:href="#CMMI12-4a" transform="translate(120.014256 0) scale(0.996264)"/>
     </g>
    </g>
   </g>
   <g id="matplotlib.axis_2">
    <g id="ytick_1">
     <g id="line2d_6">
      <defs>
       <path id="m3f26db95e1" d="M 0 0 
L 4 0 
" style="stroke: #000000; stroke-width: 0.5"/>
      </defs>
      <g>
       <use xlink:href="#m3f26db95e1" x="43.969761" y="146.080401" style="stroke: #000000; stroke-width: 0.5"/>
      </g>
     </g>
     <g id="text_6">
      <!-- $\mathdefault{0.9950}$ -->
      <g transform="translate(12.295677 149.539651) scale(0.1 -0.1)">
       <defs>
        <path id="CMR17-30" d="M 2688 2025 
C 2688 2416 2682 3080 2413 3591 
C 2176 4039 1798 4198 1466 4198 
C 1158 4198 768 4058 525 3597 
C 269 3118 243 2524 243 2025 
C 243 1661 250 1106 448 619 
C 723 -39 1216 -128 1466 -128 
C 1760 -128 2208 -7 2470 600 
C 2662 1042 2688 1559 2688 2025 
z
M 1466 -26 
C 1056 -26 813 325 723 812 
C 653 1188 653 1738 653 2096 
C 653 2588 653 2997 736 3387 
C 858 3929 1216 4096 1466 4096 
C 1728 4096 2067 3923 2189 3400 
C 2272 3036 2278 2607 2278 2096 
C 2278 1680 2278 1169 2202 792 
C 2067 95 1690 -26 1466 -26 
z
" transform="scale(0.015625)"/>
        <path id="CMR17-39" d="M 2253 1864 
C 2253 464 1670 31 1190 31 
C 1043 31 685 31 538 294 
C 704 268 826 357 826 518 
C 826 692 685 749 595 749 
C 538 749 365 723 365 506 
C 365 71 742 -128 1203 -128 
C 1939 -128 2688 674 2688 2073 
C 2688 3817 1971 4179 1485 4179 
C 851 4179 243 3628 243 2778 
C 243 1991 762 1408 1414 1408 
C 1952 1408 2189 1903 2253 2112 
L 2253 1864 
z
M 1427 1510 
C 1254 1510 1011 1542 813 1922 
C 678 2169 678 2461 678 2771 
C 678 3146 678 3405 858 3684 
C 947 3817 1114 4032 1485 4032 
C 2240 4032 2240 2885 2240 2632 
C 2240 2182 2035 1510 1427 1510 
z
" transform="scale(0.015625)"/>
        <path id="CMR17-35" d="M 730 3692 
C 794 3666 1056 3584 1325 3584 
C 1920 3584 2246 3911 2432 4100 
C 2432 4157 2432 4192 2394 4192 
C 2387 4192 2374 4192 2323 4163 
C 2099 4058 1837 3973 1517 3973 
C 1325 3973 1037 3999 723 4139 
C 653 4171 640 4171 634 4171 
C 602 4171 595 4164 595 4037 
L 595 2203 
C 595 2089 595 2057 659 2057 
C 691 2057 704 2070 736 2114 
C 941 2401 1222 2522 1542 2522 
C 1766 2522 2246 2382 2246 1289 
C 2246 1085 2246 715 2054 421 
C 1894 159 1645 25 1370 25 
C 947 25 518 320 403 814 
C 429 807 480 795 506 795 
C 589 795 749 840 749 1038 
C 749 1210 627 1280 506 1280 
C 358 1280 262 1190 262 1011 
C 262 454 704 -128 1382 -128 
C 2042 -128 2669 440 2669 1264 
C 2669 2030 2170 2624 1549 2624 
C 1222 2624 947 2503 730 2274 
L 730 3692 
z
" transform="scale(0.015625)"/>
       </defs>
       <use xlink:href="#CMR17-30" transform="scale(0.996264)"/>
       <use xlink:href="#CMMI12-3a" transform="translate(45.690477 0) scale(0.996264)"/>
       <use xlink:href="#CMR17-39" transform="translate(72.787654 0) scale(0.996264)"/>
       <use xlink:href="#CMR17-39" transform="translate(118.478131 0) scale(0.996264)"/>
       <use xlink:href="#CMR17-35" transform="translate(164.168608 0) scale(0.996264)"/>
       <use xlink:href="#CMR17-30" transform="translate(209.859086 0) scale(0.996264)"/>
      </g>
     </g>
    </g>
    <g id="ytick_2">
     <g id="line2d_7">
      <g>
       <use xlink:href="#m3f26db95e1" x="43.969761" y="124.771839" style="stroke: #000000; stroke-width: 0.5"/>
      </g>
     </g>
     <g id="text_7">
      <!-- $\mathdefault{0.9975}$ -->
      <g transform="translate(12.295677 128.231088) scale(0.1 -0.1)">
       <defs>
        <path id="CMR17-37" d="M 2886 3941 
L 2886 4081 
L 1382 4081 
C 634 4081 621 4165 595 4288 
L 480 4288 
L 294 3094 
L 410 3094 
C 429 3215 474 3540 550 3661 
C 589 3712 1062 3712 1171 3712 
L 2579 3712 
L 1869 2661 
C 1395 1954 1069 999 1069 165 
C 1069 89 1069 -128 1299 -128 
C 1530 -128 1530 89 1530 171 
L 1530 465 
C 1530 1508 1709 2196 2003 2636 
L 2886 3941 
z
" transform="scale(0.015625)"/>
       </defs>
       <use xlink:href="#CMR17-30" transform="scale(0.996264)"/>
       <use xlink:href="#CMMI12-3a" transform="translate(45.690477 0) scale(0.996264)"/>
       <use xlink:href="#CMR17-39" transform="translate(72.787654 0) scale(0.996264)"/>
       <use xlink:href="#CMR17-39" transform="translate(118.478131 0) scale(0.996264)"/>
       <use xlink:href="#CMR17-37" transform="translate(164.168608 0) scale(0.996264)"/>
       <use xlink:href="#CMR17-35" transform="translate(209.859086 0) scale(0.996264)"/>
      </g>
     </g>
    </g>
    <g id="ytick_3">
     <g id="line2d_8">
      <g>
       <use xlink:href="#m3f26db95e1" x="43.969761" y="103.463276" style="stroke: #000000; stroke-width: 0.5"/>
      </g>
     </g>
     <g id="text_8">
      <!-- $\mathdefault{1.0000}$ -->
      <g transform="translate(12.295677 106.922526) scale(0.1 -0.1)">
       <use xlink:href="#CMR17-31" transform="scale(0.996264)"/>
       <use xlink:href="#CMMI12-3a" transform="translate(45.690477 0) scale(0.996264)"/>
       <use xlink:href="#CMR17-30" transform="translate(72.787654 0) scale(0.996264)"/>
       <use xlink:href="#CMR17-30" transform="translate(118.478131 0) scale(0.996264)"/>
       <use xlink:href="#CMR17-30" transform="translate(164.168608 0) scale(0.996264)"/>
       <use xlink:href="#CMR17-30" transform="translate(209.859086 0) scale(0.996264)"/>
      </g>
     </g>
    </g>
    <g id="ytick_4">
     <g id="line2d_9">
      <g>
       <use xlink:href="#m3f26db95e1" x="43.969761" y="82.154714" style="stroke: #000000; stroke-width: 0.5"/>
      </g>
     </g>
     <g id="text_9">
      <!-- $\mathdefault{1.0025}$ -->
      <g transform="translate(12.295677 85.613963) scale(0.1 -0.1)">
       <use xlink:href="#CMR17-31" transform="scale(0.996264)"/>
       <use xlink:href="#CMMI12-3a" transform="translate(45.690477 0) scale(0.996264)"/>
       <use xlink:href="#CMR17-30" transform="translate(72.787654 0) scale(0.996264)"/>
       <use xlink:href="#CMR17-30" transform="translate(118.478131 0) scale(0.996264)"/>
       <use xlink:href="#CMR17-32" transform="translate(164.168608 0) scale(0.996264)"/>
       <use xlink:href="#CMR17-35" transform="translate(209.859086 0) scale(0.996264)"/>
      </g>
     </g>
    </g>
    <g id="ytick_5">
     <g id="line2d_10">
      <g>
       <use xlink:href="#m3f26db95e1" x="43.969761" y="60.846151" style="stroke: #000000; stroke-width: 0.5"/>
      </g>
     </g>
     <g id="text_10">
      <!-- $\mathdefault{1.0050}$ -->
      <g transform="translate(12.295677 64.3054) scale(0.1 -0.1)">
       <use xlink:href="#CMR17-31" transform="scale(0.996264)"/>
       <use xlink:href="#CMMI12-3a" transform="translate(45.690477 0) scale(0.996264)"/>
       <use xlink:href="#CMR17-30" transform="translate(72.787654 0) scale(0.996264)"/>
       <use xlink:href="#CMR17-30" transform="translate(118.478131 0) scale(0.996264)"/>
       <use xlink:href="#CMR17-35" transform="translate(164.168608 0) scale(0.996264)"/>
       <use xlink:href="#CMR17-30" transform="translate(209.859086 0) scale(0.996264)"/>
      </g>
     </g>
    </g>
    <g id="ytick_6">
     <g id="line2d_11">
      <g>
       <use xlink:href="#m3f26db95e1" x="43.969761" y="39.537589" style="stroke: #000000; stroke-width: 0.5"/>
      </g>
     </g>
     <g id="text_11">
      <!-- $\mathdefault{1.0075}$ -->
      <g transform="translate(12.295677 42.996838) scale(0.1 -0.1)">
       <use xlink:href="#CMR17-31" transform="scale(0.996264)"/>
       <use xlink:href="#CMMI12-3a" transform="translate(45.690477 0) scale(0.996264)"/>
       <use xlink:href="#CMR17-30" transform="translate(72.787654 0) scale(0.996264)"/>
       <use xlink:href="#CMR17-30" transform="translate(118.478131 0) scale(0.996264)"/>
       <use xlink:href="#CMR17-37" transform="translate(164.168608 0) scale(0.996264)"/>
       <use xlink:href="#CMR17-35" transform="translate(209.859086 0) scale(0.996264)"/>
      </g>
     </g>
    </g>
    <g id="text_12">
     <!-- $\zeta$ -->
     <g transform="translate(8.358498 93.278251) rotate(-90) scale(0.1 -0.1)">
      <defs>
       <path id="CMMI12-10" d="M 1210 339 
C 832 487 614 774 614 1254 
C 614 2131 1261 3302 2048 3756 
C 2163 3648 2310 3648 2432 3648 
C 2592 3648 2982 3648 2982 3820 
C 2982 3961 2694 3961 2490 3961 
C 2362 3961 2253 3961 2086 3897 
C 2048 3980 2029 4068 2029 4163 
C 2029 4277 2054 4365 2054 4384 
C 2054 4422 2022 4448 1990 4448 
C 1888 4448 1888 4212 1888 4161 
C 1888 4104 1888 3971 1965 3837 
C 1222 3455 288 2265 288 1076 
C 288 204 870 0 1203 -115 
C 1286 -140 1491 -210 1574 -242 
C 1837 -331 2086 -414 2086 -719 
C 2086 -904 1952 -1152 1715 -1152 
C 1587 -1152 1414 -1108 1254 -947 
C 1229 -922 1216 -909 1184 -909 
C 1133 -909 1120 -960 1120 -973 
C 1120 -1037 1395 -1280 1715 -1280 
C 2125 -1280 2406 -851 2406 -519 
C 2406 -71 2035 58 1798 134 
L 1210 339 
z
M 2189 3808 
C 2285 3840 2374 3840 2483 3840 
C 2688 3840 2707 3836 2835 3812 
C 2758 3789 2707 3775 2438 3775 
C 2304 3775 2259 3775 2189 3808 
z
" transform="scale(0.015625)"/>
      </defs>
      <use xlink:href="#CMMI12-10" transform="scale(0.996264)"/>
     </g>
    </g>
   </g>
   <g id="LineCollection_1">
    <path d="M 52.903935 37.273954 
L 52.903935 35.971972 
" clip-path="url(#p018b9ca2c0)" style="fill: none; stroke: #ff6961; stroke-width: 0.5"/>
    <path d="M 112.464672 76.442463 
L 112.464672 75.281526 
" clip-path="url(#p018b9ca2c0)" style="fill: none; stroke: #ff6961; stroke-width: 0.5"/>
    <path d="M 127.354856 87.323726 
L 127.354856 86.099135 
" clip-path="url(#p018b9ca2c0)" style="fill: none; stroke: #ff6961; stroke-width: 0.5"/>
    <path d="M 154.157188 102.272198 
L 154.157188 100.464784 
" clip-path="url(#p018b9ca2c0)" style="fill: none; stroke: #ff6961; stroke-width: 0.5"/>
    <path d="M 157.135225 104.052998 
L 157.135225 102.181541 
" clip-path="url(#p018b9ca2c0)" style="fill: none; stroke: #ff6961; stroke-width: 0.5"/>
    <path d="M 160.113262 105.824971 
L 160.113262 103.885879 
" clip-path="url(#p018b9ca2c0)" style="fill: none; stroke: #ff6961; stroke-width: 0.5"/>
    <path d="M 166.069336 109.342153 
L 166.069336 107.259161 
" clip-path="url(#p018b9ca2c0)" style="fill: none; stroke: #ff6961; stroke-width: 0.5"/>
    <path d="M 172.025409 112.823286 
L 172.025409 110.581209 
" clip-path="url(#p018b9ca2c0)" style="fill: none; stroke: #ff6961; stroke-width: 0.5"/>
    <path d="M 199.423349 128.218971 
L 199.423349 125.028123 
" clip-path="url(#p018b9ca2c0)" style="fill: none; stroke: #ff6961; stroke-width: 0.5"/>
    <path d="M 231.586147 146.614045 
L 231.586147 140.365814 
" clip-path="url(#p018b9ca2c0)" style="fill: none; stroke: #ff6961; stroke-width: 0.5"/>
   </g>
   <g id="line2d_12">
    <path d="M 52.903878 36.669372 
L 78.045094 53.756425 
L 96.003186 65.70191 
L 111.267466 75.598015 
L 124.735964 84.083124 
L 138.204463 92.304572 
L 151.672961 100.256938 
L 165.14146 107.955097 
L 179.507991 115.905232 
L 193.87438 123.596296 
L 208.240768 131.030477 
L 222.607157 138.204361 
L 231.586204 142.553273 
L 231.586204 142.553273 
" clip-path="url(#p018b9ca2c0)" style="fill: none; stroke: #ff6961; stroke-width: 0.7; stroke-linecap: square"/>
   </g>
   <g id="line2d_13">
    <defs>
     <path id="m8e93ff1a46" d="M 0 2 
C 0.530406 2 1.03916 1.789267 1.414214 1.414214 
C 1.789267 1.03916 2 0.530406 2 0 
C 2 -0.530406 1.789267 -1.03916 1.414214 -1.414214 
C 1.03916 -1.789267 0.530406 -2 0 -2 
C -0.530406 -2 -1.03916 -1.789267 -1.414214 -1.414214 
C -1.789267 -1.03916 -2 -0.530406 -2 0 
C -2 0.530406 -1.789267 1.03916 -1.414214 1.414214 
C -1.03916 1.789267 -0.530406 2 0 2 
z
" style="stroke: #ff6961"/>
    </defs>
    <g clip-path="url(#p018b9ca2c0)">
     <use xlink:href="#m8e93ff1a46" x="52.903935" y="36.622963" style="fill: #ff6961; fill-opacity: 0.498039; stroke: #ff6961"/>
     <use xlink:href="#m8e93ff1a46" x="112.464672" y="75.861995" style="fill: #ff6961; fill-opacity: 0.498039; stroke: #ff6961"/>
     <use xlink:href="#m8e93ff1a46" x="127.354856" y="86.711431" style="fill: #ff6961; fill-opacity: 0.498039; stroke: #ff6961"/>
     <use xlink:href="#m8e93ff1a46" x="154.157188" y="101.368491" style="fill: #ff6961; fill-opacity: 0.498039; stroke: #ff6961"/>
     <use xlink:href="#m8e93ff1a46" x="157.135225" y="103.11727" style="fill: #ff6961; fill-opacity: 0.498039; stroke: #ff6961"/>
     <use xlink:href="#m8e93ff1a46" x="160.113262" y="104.855425" style="fill: #ff6961; fill-opacity: 0.498039; stroke: #ff6961"/>
     <use xlink:href="#m8e93ff1a46" x="166.069336" y="108.300657" style="fill: #ff6961; fill-opacity: 0.498039; stroke: #ff6961"/>
     <use xlink:href="#m8e93ff1a46" x="172.025409" y="111.702247" style="fill: #ff6961; fill-opacity: 0.498039; stroke: #ff6961"/>
     <use xlink:href="#m8e93ff1a46" x="199.423349" y="126.623547" style="fill: #ff6961; fill-opacity: 0.498039; stroke: #ff6961"/>
     <use xlink:href="#m8e93ff1a46" x="231.586147" y="143.48993" style="fill: #ff6961; fill-opacity: 0.498039; stroke: #ff6961"/>
    </g>
   </g>
   <g id="patch_4">
    <path d="M 43.969761 152.383475 
L 43.969761 29.814357 
" style="fill: none; stroke: #000000; stroke-width: 0.75; stroke-linejoin: miter; stroke-linecap: square"/>
   </g>
   <g id="patch_5">
    <path d="M 240.52032 152.383475 
L 240.52032 29.814357 
" style="fill: none; stroke: #000000; stroke-width: 0.75; stroke-linejoin: miter; stroke-linecap: square"/>
   </g>
   <g id="patch_6">
    <path d="M 43.969761 152.383475 
L 240.52032 152.383475 
" style="fill: none; stroke: #000000; stroke-width: 0.75; stroke-linejoin: miter; stroke-linecap: square"/>
   </g>
   <g id="patch_7">
    <path d="M 43.969761 29.814357 
L 240.52032 29.814357 
" style="fill: none; stroke: #000000; stroke-width: 0.75; stroke-linejoin: miter; stroke-linecap: square"/>
   </g>
   <g id="text_13">
    <!-- $U_c/J = 3.276 \pm 0.002$ -->
    <g transform="translate(53.797289 131.507447) scale(0.1 -0.1)">
     <defs>
      <path id="CMMI12-63" d="M 2502 2431 
C 2381 2431 2323 2431 2234 2355 
C 2195 2323 2125 2227 2125 2125 
C 2125 1997 2221 1920 2342 1920 
C 2496 1920 2669 2044 2669 2292 
C 2669 2588 2374 2816 1933 2816 
C 1094 2816 256 1903 256 996 
C 256 441 602 -64 1254 -64 
C 2125 -64 2675 622 2675 706 
C 2675 744 2637 776 2611 776 
C 2592 776 2586 770 2528 713 
C 2118 162 1510 64 1267 64 
C 826 64 685 446 685 764 
C 685 988 794 1605 1024 2039 
C 1190 2338 1536 2682 1939 2682 
C 2022 2682 2374 2682 2502 2431 
z
" transform="scale(0.015625)"/>
      <path id="CMR17-3d" d="M 4115 2017 
C 4211 2017 4307 2017 4307 2125 
C 4307 2240 4198 2240 4090 2240 
L 512 2240 
C 403 2240 294 2240 294 2125 
C 294 2017 390 2017 486 2017 
L 4115 2017 
z
M 4090 896 
C 4198 896 4307 896 4307 1011 
C 4307 1119 4211 1119 4115 1119 
L 486 1119 
C 390 1119 294 1119 294 1011 
C 294 896 403 896 512 896 
L 4090 896 
z
" transform="scale(0.015625)"/>
      <path id="CMR17-36" d="M 678 2176 
C 678 3690 1395 4032 1811 4032 
C 1946 4032 2272 4009 2400 3776 
C 2298 3776 2106 3776 2106 3553 
C 2106 3381 2246 3323 2336 3323 
C 2394 3323 2566 3348 2566 3560 
C 2566 3954 2246 4179 1805 4179 
C 1043 4179 243 3390 243 1984 
C 243 253 966 -128 1478 -128 
C 2099 -128 2688 427 2688 1283 
C 2688 2081 2170 2662 1517 2662 
C 1126 2662 838 2407 678 1960 
L 678 2176 
z
M 1478 25 
C 691 25 691 1200 691 1436 
C 691 1896 909 2560 1504 2560 
C 1613 2560 1926 2560 2138 2120 
C 2253 1870 2253 1609 2253 1289 
C 2253 944 2253 690 2118 434 
C 1978 171 1773 25 1478 25 
z
" transform="scale(0.015625)"/>
      <path id="CMSY10-6" d="M 2618 1984 
L 4397 1984 
C 4506 1984 4621 1984 4621 2112 
C 4621 2240 4506 2240 4397 2240 
L 2618 2240 
L 2618 4018 
C 2618 4121 2618 4256 2490 4256 
C 2362 4256 2362 4140 2362 4038 
L 2362 2240 
L 576 2240 
C 467 2240 352 2240 352 2112 
C 352 1984 467 1984 576 1984 
L 2362 1984 
L 2362 256 
L 576 256 
C 467 256 352 256 352 128 
C 352 0 467 0 576 0 
L 4397 0 
C 4506 0 4621 0 4621 128 
C 4621 256 4506 256 4397 256 
L 2618 256 
L 2618 1984 
z
" transform="scale(0.015625)"/>
     </defs>
     <use xlink:href="#CMMI12-55" transform="scale(0.996264)"/>
     <use xlink:href="#CMMI12-63" transform="translate(66.252119 -14.943915) scale(0.697382)"/>
     <use xlink:href="#CMMI12-3d" transform="translate(96.138382 0) scale(0.996264)"/>
     <use xlink:href="#CMMI12-4a" transform="translate(144.913301 0) scale(0.996264)"/>
     <use xlink:href="#CMR17-3d" transform="translate(235.72998 0) scale(0.996264)"/>
     <use xlink:href="#CMR17-33" transform="translate(335.118778 0) scale(0.996264)"/>
     <use xlink:href="#CMMI12-3a" transform="translate(380.809255 0) scale(0.996264)"/>
     <use xlink:href="#CMR17-32" transform="translate(407.906432 0) scale(0.996264)"/>
     <use xlink:href="#CMR17-37" transform="translate(453.596909 0) scale(0.996264)"/>
     <use xlink:href="#CMR17-36" transform="translate(499.287386 0) scale(0.996264)"/>
     <use xlink:href="#CMSY10-6" transform="translate(567.11707 0) scale(0.996264)"/>
     <use xlink:href="#CMR17-30" transform="translate(666.743745 0) scale(0.996264)"/>
     <use xlink:href="#CMMI12-3a" transform="translate(712.434222 0) scale(0.996264)"/>
     <use xlink:href="#CMR17-30" transform="translate(739.531399 0) scale(0.996264)"/>
     <use xlink:href="#CMR17-30" transform="translate(785.221876 0) scale(0.996264)"/>
     <use xlink:href="#CMR17-32" transform="translate(830.912353 0) scale(0.996264)"/>
    </g>
   </g>
   <g id="text_14">
    <!-- $J/U_c = 0.3053 \pm 0.0002$ -->
    <g transform="translate(53.797289 144.99005) scale(0.1 -0.1)">
     <use xlink:href="#CMMI12-4a" transform="scale(0.996264)"/>
     <use xlink:href="#CMMI12-3d" transform="translate(57.723235 0) scale(0.996264)"/>
     <use xlink:href="#CMMI12-55" transform="translate(106.498154 0) scale(0.996264)"/>
     <use xlink:href="#CMMI12-63" transform="translate(172.750273 -14.943915) scale(0.697382)"/>
     <use xlink:href="#CMR17-3d" transform="translate(230.310545 0) scale(0.996264)"/>
     <use xlink:href="#CMR17-30" transform="translate(329.699342 0) scale(0.996264)"/>
     <use xlink:href="#CMMI12-3a" transform="translate(375.389819 0) scale(0.996264)"/>
     <use xlink:href="#CMR17-33" transform="translate(402.486996 0) scale(0.996264)"/>
     <use xlink:href="#CMR17-30" transform="translate(448.177474 0) scale(0.996264)"/>
     <use xlink:href="#CMR17-35" transform="translate(493.867951 0) scale(0.996264)"/>
     <use xlink:href="#CMR17-33" transform="translate(539.558428 0) scale(0.996264)"/>
     <use xlink:href="#CMSY10-6" transform="translate(607.388112 0) scale(0.996264)"/>
     <use xlink:href="#CMR17-30" transform="translate(707.014786 0) scale(0.996264)"/>
     <use xlink:href="#CMMI12-3a" transform="translate(752.705264 0) scale(0.996264)"/>
     <use xlink:href="#CMR17-30" transform="translate(779.802441 0) scale(0.996264)"/>
     <use xlink:href="#CMR17-30" transform="translate(825.492918 0) scale(0.996264)"/>
     <use xlink:href="#CMR17-30" transform="translate(871.183395 0) scale(0.996264)"/>
     <use xlink:href="#CMR17-32" transform="translate(916.873872 0) scale(0.996264)"/>
    </g>
   </g>
   <g id="legend_1">
    <g id="line2d_14">
     <path d="M 49.935267 8.94 
L 53.685267 8.94 
L 57.435267 8.94 
" style="fill: none; stroke-dasharray: 3.33,1.44; stroke-dashoffset: 0; stroke: #77dd77; stroke-width: 0.9"/>
    </g>
    <g id="text_15">
     <!-- linear fit -->
     <g transform="translate(62.435267 12.44) scale(0.1 -0.1)">
      <defs>
       <path id="CMR17-6c" d="M 979 4396 
L 218 4326 
L 218 4160 
C 595 4160 653 4122 653 3817 
L 653 426 
C 653 184 627 153 218 153 
L 218 -13 
C 371 0 653 0 813 0 
C 979 0 1261 0 1414 -13 
L 1414 153 
C 1005 153 979 178 979 426 
L 979 4396 
z
" transform="scale(0.015625)"/>
       <path id="CMR17-69" d="M 992 3909 
C 992 4049 877 4170 730 4170 
C 589 4170 467 4056 467 3909 
C 467 3769 582 3648 730 3648 
C 870 3648 992 3763 992 3909 
z
M 243 2706 
L 243 2541 
C 602 2541 653 2502 653 2197 
L 653 427 
C 653 184 627 153 218 153 
L 218 -13 
C 371 0 646 0 806 0 
C 960 0 1222 0 1370 -13 
L 1370 153 
C 992 153 979 191 979 420 
L 979 2776 
L 243 2706 
z
" transform="scale(0.015625)"/>
       <path id="CMR17-6e" d="M 2656 1933 
C 2656 2259 2592 2790 1837 2790 
C 1331 2790 1069 2400 973 2144 
L 966 2144 
L 966 2790 
L 211 2720 
L 211 2554 
C 589 2554 646 2515 646 2208 
L 646 428 
C 646 184 621 153 211 153 
L 211 -13 
C 365 0 646 0 813 0 
C 979 0 1267 0 1421 -13 
L 1421 153 
C 1011 153 986 178 986 428 
L 986 1658 
C 986 2247 1344 2688 1792 2688 
C 2266 2688 2317 2266 2317 1958 
L 2317 428 
C 2317 184 2291 153 1882 153 
L 1882 -13 
C 2035 0 2317 0 2483 0 
C 2650 0 2938 0 3091 -13 
L 3091 153 
C 2682 153 2656 178 2656 428 
L 2656 1933 
z
" transform="scale(0.015625)"/>
       <path id="CMR17-65" d="M 2438 1472 
C 2464 1498 2464 1511 2464 1576 
C 2464 2238 2118 2816 1389 2816 
C 710 2816 173 2169 173 1383 
C 173 551 781 -64 1459 -64 
C 2176 -64 2458 607 2458 740 
C 2458 784 2419 784 2406 784 
C 2362 784 2355 771 2330 696 
C 2189 265 1837 51 1504 51 
C 1229 51 954 203 781 480 
C 582 803 582 1176 582 1472 
L 2438 1472 
z
M 589 1568 
C 634 2505 1126 2714 1382 2714 
C 1818 2714 2112 2297 2118 1568 
L 589 1568 
z
" transform="scale(0.015625)"/>
       <path id="CMR17-61" d="M 2304 1653 
C 2304 2072 2304 2294 2035 2543 
C 1798 2752 1523 2816 1306 2816 
C 800 2816 435 2407 435 1971 
C 435 1728 627 1728 666 1728 
C 749 1728 896 1778 896 1954 
C 896 2112 774 2181 666 2181 
C 640 2181 608 2174 589 2168 
C 723 2592 1069 2714 1293 2714 
C 1613 2714 1965 2429 1965 1885 
L 1965 1600 
C 1587 1600 1133 1549 774 1357 
C 371 1133 256 813 256 570 
C 256 77 832 -64 1171 -64 
C 1523 -64 1850 139 1990 511 
C 2003 233 2182 -18 2464 -18 
C 2598 -18 2938 70 2938 567 
L 2938 920 
L 2822 920 
L 2822 562 
C 2822 178 2650 128 2566 128 
C 2304 128 2304 458 2304 738 
L 2304 1653 
z
M 1965 870 
C 1965 317 1568 38 1216 38 
C 896 38 646 275 646 570 
C 646 761 730 1100 1101 1305 
C 1408 1478 1760 1504 1965 1504 
L 1965 870 
z
" transform="scale(0.015625)"/>
       <path id="CMR17-72" d="M 960 1497 
C 960 2112 1222 2688 1702 2688 
C 1747 2688 1792 2682 1837 2662 
C 1837 2662 1696 2617 1696 2452 
C 1696 2298 1818 2234 1914 2234 
C 1990 2234 2131 2279 2131 2458 
C 2131 2663 1926 2790 1709 2790 
C 1222 2790 1011 2317 947 2093 
L 941 2093 
L 941 2790 
L 198 2720 
L 198 2554 
C 576 2554 634 2515 634 2208 
L 634 428 
C 634 184 608 153 198 153 
L 198 -13 
C 352 0 646 0 813 0 
C 998 0 1325 0 1498 -13 
L 1498 153 
C 1037 153 960 153 960 440 
L 960 1497 
z
" transform="scale(0.015625)"/>
       <path id="CMR17-c" d="M 2554 2764 
C 2400 2764 1926 2764 1805 2739 
C 1766 2725 1754 2725 1677 2725 
L 947 2725 
L 947 3469 
C 947 4073 1434 4352 1818 4352 
C 1939 4352 2214 4320 2355 4101 
C 2291 4101 2086 4101 2086 3878 
C 2086 3725 2189 3648 2317 3648 
C 2432 3648 2547 3712 2547 3885 
C 2547 4205 2240 4454 1843 4454 
C 1338 4454 634 4168 634 3469 
L 634 2725 
L 122 2725 
L 122 2560 
L 634 2560 
L 634 427 
C 634 184 608 153 198 153 
L 198 -13 
C 352 0 634 0 794 0 
C 960 0 1242 0 1395 -13 
L 1395 153 
C 986 153 960 178 960 427 
L 960 2560 
L 1901 2560 
C 2176 2560 2227 2502 2227 2222 
L 2227 427 
C 2227 184 2202 153 1792 153 
L 1792 -13 
C 1946 0 2227 0 2387 0 
C 2554 0 2835 0 2989 -13 
L 2989 153 
C 2579 153 2554 178 2554 427 
L 2554 2764 
z
" transform="scale(0.015625)"/>
       <path id="CMR17-74" d="M 966 2560 
L 1862 2560 
L 1862 2725 
L 966 2725 
L 966 3904 
L 851 3904 
C 838 3245 614 2668 70 2668 
L 70 2560 
L 627 2560 
L 627 771 
C 627 650 627 -64 1370 -64 
C 1747 -64 1965 306 1965 777 
L 1965 1140 
L 1850 1140 
L 1850 783 
C 1850 344 1677 51 1408 51 
C 1222 51 966 178 966 758 
L 966 2560 
z
" transform="scale(0.015625)"/>
      </defs>
      <use xlink:href="#CMR17-6c" transform="scale(0.996264)"/>
      <use xlink:href="#CMR17-69" transform="translate(24.871058 0) scale(0.996264)"/>
      <use xlink:href="#CMR17-6e" transform="translate(49.742117 0) scale(0.996264)"/>
      <use xlink:href="#CMR17-65" transform="translate(100.637487 0) scale(0.996264)"/>
      <use xlink:href="#CMR17-61" transform="translate(141.123147 0) scale(0.996264)"/>
      <use xlink:href="#CMR17-72" transform="translate(186.813624 0) scale(0.996264)"/>
      <use xlink:href="#CMR17-c" transform="translate(252.170358 0) scale(0.996264)"/>
      <use xlink:href="#CMR17-74" transform="translate(301.912582 0) scale(0.996264)"/>
     </g>
    </g>
    <g id="line2d_15">
     <path d="M 49.935267 20.377178 
L 53.685267 20.377178 
L 57.435267 20.377178 
" style="fill: none; stroke: #ff6961; stroke-width: 0.7; stroke-linecap: square"/>
    </g>
    <g id="text_16">
     <!-- GP mean -->
     <g transform="translate(62.435267 23.877178) scale(0.1 -0.1)">
      <defs>
       <path id="CMR17-47" d="M 3974 1233 
C 3974 1473 3994 1505 4390 1505 
L 4390 1670 
C 4237 1664 3891 1664 3718 1664 
C 3539 1664 3040 1664 2797 1664 
L 2797 1505 
L 2989 1505 
C 3539 1505 3552 1434 3552 1201 
L 3552 774 
C 3552 63 2720 63 2522 63 
C 1862 63 781 511 781 2160 
C 781 3808 1843 4250 2464 4250 
C 3187 4250 3712 3626 3834 2741 
C 3846 2664 3846 2651 3904 2651 
C 3974 2651 3974 2664 3974 2779 
L 3974 4288 
C 3974 4402 3968 4409 3930 4409 
C 3904 4409 3898 4402 3853 4326 
L 3571 3791 
C 3258 4187 2874 4416 2381 4416 
C 1286 4416 294 3456 294 2148 
C 294 845 1267 -128 2394 -128 
C 2912 -128 3418 56 3616 417 
C 3725 158 3904 -20 3936 -20 
C 3968 -20 3974 -13 3974 100 
L 3974 1233 
z
" transform="scale(0.015625)"/>
       <path id="CMR17-50" d="M 1267 2042 
L 2291 2042 
C 3117 2042 3718 2578 3718 3184 
C 3718 3791 3130 4352 2291 4352 
L 333 4352 
L 333 4186 
C 774 4186 845 4186 845 3899 
L 845 446 
C 845 160 774 160 333 160 
L 333 0 
C 518 0 858 0 1056 0 
C 1254 0 1594 0 1779 0 
L 1779 160 
C 1338 160 1267 160 1267 446 
L 1267 2042 
z
M 1254 2176 
L 1254 3938 
C 1254 4155 1267 4186 1523 4186 
L 2170 4186 
C 2995 4186 3232 3714 3232 3184 
C 3232 2604 2950 2176 2170 2176 
L 1254 2176 
z
" transform="scale(0.015625)"/>
       <path id="CMR17-6d" d="M 4326 1933 
C 4326 2252 4269 2790 3507 2790 
C 3072 2790 2771 2496 2656 2151 
L 2650 2151 
C 2573 2676 2195 2790 1837 2790 
C 1331 2790 1069 2400 973 2144 
L 966 2144 
L 966 2790 
L 211 2720 
L 211 2554 
C 589 2554 646 2515 646 2208 
L 646 428 
C 646 184 621 153 211 153 
L 211 -13 
C 365 0 646 0 813 0 
C 979 0 1267 0 1421 -13 
L 1421 153 
C 1011 153 986 178 986 428 
L 986 1658 
C 986 2247 1344 2688 1792 2688 
C 2266 2688 2317 2266 2317 1958 
L 2317 428 
C 2317 184 2291 153 1882 153 
L 1882 -13 
C 2035 0 2317 0 2483 0 
C 2650 0 2938 0 3091 -13 
L 3091 153 
C 2682 153 2656 178 2656 428 
L 2656 1658 
C 2656 2247 3014 2688 3462 2688 
C 3936 2688 3987 2266 3987 1958 
L 3987 428 
C 3987 184 3962 153 3552 153 
L 3552 -13 
C 3706 0 3987 0 4154 0 
C 4320 0 4608 0 4762 -13 
L 4762 153 
C 4352 153 4326 178 4326 428 
L 4326 1933 
z
" transform="scale(0.015625)"/>
      </defs>
      <use xlink:href="#CMR17-47" transform="scale(0.996264)"/>
      <use xlink:href="#CMR17-50" transform="translate(72.355346 0) scale(0.996264)"/>
      <use xlink:href="#CMR17-6d" transform="translate(165.017613 0) scale(0.996264)"/>
      <use xlink:href="#CMR17-65" transform="translate(241.937203 0) scale(0.996264)"/>
      <use xlink:href="#CMR17-61" transform="translate(282.422863 0) scale(0.996264)"/>
      <use xlink:href="#CMR17-6e" transform="translate(328.11334 0) scale(0.996264)"/>
     </g>
    </g>
    <g id="patch_8">
     <path d="M 123.600417 12.44 
L 131.100417 12.44 
L 131.100417 5.44 
L 123.600417 5.44 
z
" style="fill: #ff6961; fill-opacity: 0.2; stroke: #ff6961; stroke-opacity: 0.2; stroke-linejoin: miter"/>
    </g>
    <g id="text_17">
     <!-- posterior CI -->
     <g transform="translate(136.100417 12.44) scale(0.1 -0.1)">
      <defs>
       <path id="CMR17-70" d="M 1408 -1063 
C 998 -1063 973 -1037 973 -789 
L 973 402 
C 1158 134 1427 -38 1766 -38 
C 2406 -38 3053 523 3053 1388 
C 3053 2191 2496 2802 1837 2802 
C 1453 2802 1139 2592 960 2338 
L 960 2802 
L 198 2732 
L 198 2567 
C 576 2567 634 2528 634 2223 
L 634 -789 
C 634 -1031 608 -1063 198 -1063 
L 198 -1228 
C 352 -1216 634 -1216 800 -1216 
C 966 -1216 1254 -1216 1408 -1228 
L 1408 -1063 
z
M 973 2012 
C 973 2102 973 2235 1222 2471 
C 1254 2497 1472 2688 1792 2688 
C 2259 2688 2643 2108 2643 1382 
C 2643 656 2234 64 1728 64 
C 1498 64 1248 172 1056 472 
C 973 612 973 650 973 752 
L 973 2012 
z
" transform="scale(0.015625)"/>
       <path id="CMR17-6f" d="M 2758 1356 
C 2758 2176 2163 2816 1466 2816 
C 768 2816 173 2176 173 1356 
C 173 551 768 -64 1466 -64 
C 2163 -64 2758 551 2758 1356 
z
M 1466 51 
C 1165 51 909 230 762 480 
C 602 767 582 1126 582 1408 
C 582 1677 595 2010 762 2298 
C 890 2509 1139 2714 1466 2714 
C 1754 2714 1997 2554 2150 2330 
C 2349 2029 2349 1607 2349 1408 
C 2349 1158 2336 775 2163 467 
C 1984 173 1709 51 1466 51 
z
" transform="scale(0.015625)"/>
       <path id="CMR17-73" d="M 1978 2697 
C 1978 2813 1971 2819 1933 2819 
C 1907 2819 1901 2813 1824 2717 
C 1805 2691 1747 2626 1728 2601 
C 1523 2819 1235 2819 1126 2819 
C 416 2819 160 2447 160 2076 
C 160 1498 813 1365 998 1325 
C 1402 1243 1542 1217 1677 1101 
C 1760 1025 1901 884 1901 654 
C 1901 384 1747 38 1158 38 
C 602 38 403 460 288 1021 
C 269 1110 269 1117 218 1117 
C 166 1117 160 1110 160 983 
L 160 63 
C 160 -51 166 -58 205 -58 
C 237 -58 243 -51 275 0 
C 314 57 410 211 448 276 
C 576 103 800 -64 1158 -64 
C 1792 -64 2131 283 2131 784 
C 2131 1112 1958 1285 1875 1362 
C 1683 1561 1459 1606 1190 1657 
C 838 1735 390 1825 390 2217 
C 390 2383 480 2737 1126 2737 
C 1811 2737 1850 2094 1862 1888 
C 1869 1856 1901 1849 1920 1849 
C 1978 1849 1978 1869 1978 1978 
L 1978 2697 
z
" transform="scale(0.015625)"/>
       <path id="CMR17-43" d="M 3974 4289 
C 3974 4403 3968 4410 3930 4410 
C 3904 4410 3898 4403 3853 4327 
L 3571 3792 
C 3258 4187 2874 4416 2381 4416 
C 1286 4416 294 3456 294 2148 
C 294 826 1286 -128 2387 -128 
C 3366 -128 3974 730 3974 1461 
C 3974 1524 3974 1550 3917 1550 
C 3866 1550 3866 1531 3859 1474 
C 3808 585 3168 38 2477 38 
C 1824 38 781 495 781 2147 
C 781 3805 1843 4250 2464 4250 
C 3187 4250 3712 3628 3834 2745 
C 3846 2668 3846 2655 3904 2655 
C 3974 2655 3974 2668 3974 2783 
L 3974 4289 
z
" transform="scale(0.015625)"/>
       <path id="CMR17-49" d="M 1261 3905 
C 1261 4192 1338 4192 1798 4192 
L 1798 4352 
C 1594 4352 1267 4352 1050 4352 
C 832 4352 506 4352 301 4352 
L 301 4192 
C 762 4192 838 4192 838 3905 
L 838 447 
C 838 160 762 160 301 160 
L 301 0 
C 506 0 832 0 1050 0 
C 1267 0 1594 0 1798 0 
L 1798 160 
C 1338 160 1261 160 1261 447 
L 1261 3905 
z
" transform="scale(0.015625)"/>
      </defs>
      <use xlink:href="#CMR17-70" transform="scale(0.996264)"/>
      <use xlink:href="#CMR17-6f" transform="translate(53.497809 0) scale(0.996264)"/>
      <use xlink:href="#CMR17-73" transform="translate(99.188286 0) scale(0.996264)"/>
      <use xlink:href="#CMR17-74" transform="translate(134.989623 0) scale(0.996264)"/>
      <use xlink:href="#CMR17-65" transform="translate(170.270391 0) scale(0.996264)"/>
      <use xlink:href="#CMR17-72" transform="translate(210.756052 0) scale(0.996264)"/>
      <use xlink:href="#CMR17-69" transform="translate(246.036819 0) scale(0.996264)"/>
      <use xlink:href="#CMR17-6f" transform="translate(270.907878 0) scale(0.996264)"/>
      <use xlink:href="#CMR17-72" transform="translate(316.598355 0) scale(0.996264)"/>
      <use xlink:href="#CMR17-43" transform="translate(381.955089 0) scale(0.996264)"/>
      <use xlink:href="#CMR17-49" transform="translate(448.46497 0) scale(0.996264)"/>
     </g>
    </g>
    <g id="LineCollection_2">
     <path d="M 127.350417 25.377178 
L 127.350417 15.377178 
" style="fill: none; stroke: #ff6961; stroke-width: 0.5"/>
    </g>
    <g id="line2d_16"/>
    <g id="line2d_17">
     <g>
      <use xlink:href="#m8e93ff1a46" x="127.350417" y="20.377178" style="fill: #ff6961; fill-opacity: 0.498039; stroke: #ff6961"/>
     </g>
    </g>
    <g id="text_18">
     <!-- ground truth -->
     <g transform="translate(136.100417 23.877178) scale(0.1 -0.1)">
      <defs>
       <path id="CMR17-67" d="M 710 1164 
C 832 1068 1043 960 1299 960 
C 1805 960 2240 1357 2240 1888 
C 2240 2054 2189 2310 1997 2509 
C 2176 2692 2438 2752 2586 2752 
C 2611 2752 2650 2752 2682 2734 
C 2656 2728 2598 2703 2598 2605 
C 2598 2527 2656 2471 2739 2471 
C 2835 2471 2886 2533 2886 2614 
C 2886 2731 2790 2854 2586 2854 
C 2330 2854 2106 2738 1926 2580 
C 1734 2753 1504 2816 1299 2816 
C 794 2816 358 2419 358 1888 
C 358 1522 570 1292 634 1228 
C 442 1004 442 743 442 711 
C 442 545 506 302 723 168 
C 390 85 128 -169 128 -486 
C 128 -943 736 -1280 1466 -1280 
C 2170 -1280 2803 -956 2803 -479 
C 2803 384 1856 384 1363 384 
C 1216 384 954 384 922 391 
C 723 423 589 602 589 826 
C 589 883 589 1024 710 1164 
z
M 1299 1068 
C 736 1068 736 1760 736 1889 
C 736 2016 736 2708 1299 2708 
C 1862 2708 1862 2016 1862 1889 
C 1862 1760 1862 1068 1299 1068 
z
M 1466 -1171 
C 826 -1171 384 -835 384 -486 
C 384 -289 493 -105 634 -4 
C 794 104 858 104 1293 104 
C 1818 104 2547 104 2547 -486 
C 2547 -835 2106 -1171 1466 -1171 
z
" transform="scale(0.015625)"/>
       <path id="CMR17-75" d="M 1882 2693 
L 1882 2528 
C 2259 2528 2317 2489 2317 2186 
L 2317 1032 
C 2317 500 2029 38 1555 38 
C 1030 38 986 348 986 678 
L 986 2763 
L 211 2693 
L 211 2528 
C 467 2528 640 2528 646 2274 
L 646 1058 
C 646 633 646 361 813 183 
C 896 101 1056 -64 1517 -64 
C 2061 -64 2272 377 2323 506 
L 2330 506 
L 2330 -63 
L 3091 -63 
L 3091 128 
C 2714 128 2656 166 2656 473 
L 2656 2763 
L 1882 2693 
z
" transform="scale(0.015625)"/>
       <path id="CMR17-64" d="M 1869 4326 
L 1869 4160 
C 2246 4160 2304 4122 2304 3820 
L 2304 2345 
C 2278 2377 2016 2790 1498 2790 
C 845 2790 211 2208 211 1364 
C 211 525 806 -64 1434 -64 
C 1978 -64 2259 337 2291 380 
L 2291 -63 
L 3066 -63 
L 3066 128 
C 2688 128 2630 166 2630 473 
L 2630 4396 
L 1869 4326 
z
M 2291 755 
C 2291 563 2176 390 2029 262 
C 1811 70 1594 38 1472 38 
C 1286 38 621 134 621 1356 
C 621 2612 1363 2688 1530 2688 
C 1824 2688 2061 2522 2208 2291 
C 2291 2157 2291 2138 2291 2023 
L 2291 755 
z
" transform="scale(0.015625)"/>
       <path id="CMR17-68" d="M 2656 1933 
C 2656 2259 2592 2790 1837 2790 
C 1312 2790 1056 2368 979 2157 
L 973 2157 
L 973 4396 
L 211 4326 
L 211 4160 
C 589 4160 646 4122 646 3817 
L 646 426 
C 646 184 621 153 211 153 
L 211 -13 
C 365 0 646 0 813 0 
C 979 0 1267 0 1421 -13 
L 1421 153 
C 1011 153 986 178 986 428 
L 986 1658 
C 986 2247 1344 2688 1792 2688 
C 2266 2688 2317 2266 2317 1958 
L 2317 428 
C 2317 184 2291 153 1882 153 
L 1882 -13 
C 2035 0 2317 0 2483 0 
C 2650 0 2938 0 3091 -13 
L 3091 153 
C 2682 153 2656 178 2656 428 
L 2656 1933 
z
" transform="scale(0.015625)"/>
      </defs>
      <use xlink:href="#CMR17-67" transform="scale(0.996264)"/>
      <use xlink:href="#CMR17-72" transform="translate(45.690477 0) scale(0.996264)"/>
      <use xlink:href="#CMR17-6f" transform="translate(80.971245 0) scale(0.996264)"/>
      <use xlink:href="#CMR17-75" transform="translate(126.661722 0) scale(0.996264)"/>
      <use xlink:href="#CMR17-6e" transform="translate(177.557092 0) scale(0.996264)"/>
      <use xlink:href="#CMR17-64" transform="translate(228.452462 0) scale(0.996264)"/>
      <use xlink:href="#CMR17-74" transform="translate(309.423798 0) scale(0.996264)"/>
      <use xlink:href="#CMR17-72" transform="translate(344.704566 0) scale(0.996264)"/>
      <use xlink:href="#CMR17-75" transform="translate(379.985333 0) scale(0.996264)"/>
      <use xlink:href="#CMR17-74" transform="translate(430.880703 0) scale(0.996264)"/>
      <use xlink:href="#CMR17-68" transform="translate(466.161471 0) scale(0.996264)"/>
     </g>
    </g>
   </g>
  </g>
  <g id="axes_2">
   <g id="patch_9">
    <path d="M 170.980461 76.452469 
L 231.439956 76.452469 
L 231.439956 35.880966 
L 170.980461 35.880966 
L 170.980461 76.452469 
z
" style="fill: none"/>
   </g>
   <g id="PolyCollection_2">
    <defs>
     <path id="m20b773bfaf" d="M 189.896918 -102.189323 
L 182.701344 -102.189323 
L 182.701344 -102.599136 
L 182.701344 -103.00895 
L 182.701344 -103.418763 
L 182.701344 -103.828576 
L 182.701344 -104.238389 
L 182.701344 -104.648202 
L 182.701344 -105.058015 
L 182.701344 -105.467829 
L 182.701344 -105.877642 
L 182.701344 -106.287455 
L 182.701344 -106.697268 
L 182.701344 -107.107081 
L 182.701344 -107.516894 
L 182.701344 -107.926708 
L 182.701344 -108.336521 
L 182.701344 -108.746334 
L 182.701344 -109.156147 
L 182.701344 -109.56596 
L 182.701344 -109.975773 
L 182.701344 -110.385587 
L 182.701344 -110.7954 
L 182.701344 -111.205213 
L 182.701344 -111.615026 
L 182.701344 -112.024839 
L 182.701344 -112.434652 
L 182.701344 -112.844466 
L 182.701344 -113.254279 
L 182.701344 -113.664092 
L 182.701344 -114.073905 
L 182.701344 -114.483718 
L 182.701344 -114.893531 
L 182.701344 -115.303345 
L 182.701344 -115.713158 
L 182.701344 -116.122971 
L 182.701344 -116.532784 
L 182.701344 -116.942597 
L 182.701344 -117.35241 
L 182.701344 -117.762223 
L 182.701344 -118.172037 
L 182.701344 -118.58185 
L 182.701344 -118.991663 
L 182.701344 -119.401476 
L 182.701344 -119.811289 
L 182.701344 -120.221102 
L 182.701344 -120.630916 
L 182.701344 -121.040729 
L 182.701344 -121.450542 
L 182.701344 -121.860355 
L 182.701344 -122.270168 
L 182.701344 -122.679981 
L 182.701344 -123.089795 
L 182.701344 -123.499608 
L 182.701344 -123.909421 
L 182.701344 -124.319234 
L 182.701344 -124.729047 
L 182.701344 -125.13886 
L 182.701344 -125.548674 
L 182.701344 -125.958487 
L 182.701344 -126.3683 
L 182.701344 -126.778113 
L 182.701344 -127.187926 
L 182.701344 -127.597739 
L 182.701344 -128.007553 
L 182.701344 -128.417366 
L 182.701344 -128.827179 
L 182.701344 -129.236992 
L 182.701344 -129.646805 
L 182.701344 -130.056618 
L 182.701344 -130.466432 
L 182.701344 -130.876245 
L 182.701344 -131.286058 
L 182.701344 -131.695871 
L 182.701344 -132.105684 
L 182.701344 -132.515497 
L 182.701344 -132.92531 
L 182.701344 -133.335124 
L 182.701344 -133.744937 
L 182.701344 -134.15475 
L 182.701344 -134.564563 
L 182.701344 -134.974376 
L 182.701344 -135.384189 
L 182.701344 -135.794003 
L 182.701344 -136.203816 
L 182.701344 -136.613629 
L 182.701344 -137.023442 
L 182.701344 -137.433255 
L 182.701344 -137.843068 
L 182.701344 -138.252882 
L 182.701344 -138.662695 
L 182.701344 -139.072508 
L 182.701344 -139.482321 
L 182.701344 -139.892134 
L 182.701344 -140.301947 
L 182.701344 -140.711761 
L 182.701344 -141.121574 
L 182.701344 -141.531387 
L 182.701344 -141.9412 
L 182.701344 -142.351013 
L 182.701344 -142.760826 
L 189.896918 -142.760826 
L 189.896918 -142.760826 
L 189.896918 -142.351013 
L 189.896918 -141.9412 
L 189.896918 -141.531387 
L 189.896918 -141.121574 
L 189.896918 -140.711761 
L 189.896918 -140.301947 
L 189.896918 -139.892134 
L 189.896918 -139.482321 
L 189.896918 -139.072508 
L 189.896918 -138.662695 
L 189.896918 -138.252882 
L 189.896918 -137.843068 
L 189.896918 -137.433255 
L 189.896918 -137.023442 
L 189.896918 -136.613629 
L 189.896918 -136.203816 
L 189.896918 -135.794003 
L 189.896918 -135.384189 
L 189.896918 -134.974376 
L 189.896918 -134.564563 
L 189.896918 -134.15475 
L 189.896918 -133.744937 
L 189.896918 -133.335124 
L 189.896918 -132.92531 
L 189.896918 -132.515497 
L 189.896918 -132.105684 
L 189.896918 -131.695871 
L 189.896918 -131.286058 
L 189.896918 -130.876245 
L 189.896918 -130.466432 
L 189.896918 -130.056618 
L 189.896918 -129.646805 
L 189.896918 -129.236992 
L 189.896918 -128.827179 
L 189.896918 -128.417366 
L 189.896918 -128.007553 
L 189.896918 -127.597739 
L 189.896918 -127.187926 
L 189.896918 -126.778113 
L 189.896918 -126.3683 
L 189.896918 -125.958487 
L 189.896918 -125.548674 
L 189.896918 -125.13886 
L 189.896918 -124.729047 
L 189.896918 -124.319234 
L 189.896918 -123.909421 
L 189.896918 -123.499608 
L 189.896918 -123.089795 
L 189.896918 -122.679981 
L 189.896918 -122.270168 
L 189.896918 -121.860355 
L 189.896918 -121.450542 
L 189.896918 -121.040729 
L 189.896918 -120.630916 
L 189.896918 -120.221102 
L 189.896918 -119.811289 
L 189.896918 -119.401476 
L 189.896918 -118.991663 
L 189.896918 -118.58185 
L 189.896918 -118.172037 
L 189.896918 -117.762223 
L 189.896918 -117.35241 
L 189.896918 -116.942597 
L 189.896918 -116.532784 
L 189.896918 -116.122971 
L 189.896918 -115.713158 
L 189.896918 -115.303345 
L 189.896918 -114.893531 
L 189.896918 -114.483718 
L 189.896918 -114.073905 
L 189.896918 -113.664092 
L 189.896918 -113.254279 
L 189.896918 -112.844466 
L 189.896918 -112.434652 
L 189.896918 -112.024839 
L 189.896918 -111.615026 
L 189.896918 -111.205213 
L 189.896918 -110.7954 
L 189.896918 -110.385587 
L 189.896918 -109.975773 
L 189.896918 -109.56596 
L 189.896918 -109.156147 
L 189.896918 -108.746334 
L 189.896918 -108.336521 
L 189.896918 -107.926708 
L 189.896918 -107.516894 
L 189.896918 -107.107081 
L 189.896918 -106.697268 
L 189.896918 -106.287455 
L 189.896918 -105.877642 
L 189.896918 -105.467829 
L 189.896918 -105.058015 
L 189.896918 -104.648202 
L 189.896918 -104.238389 
L 189.896918 -103.828576 
L 189.896918 -103.418763 
L 189.896918 -103.00895 
L 189.896918 -102.599136 
L 189.896918 -102.189323 
z
" style="stroke: #779ecb; stroke-opacity: 0.1"/>
    </defs>
    <g clip-path="url(#pb25e16c505)">
     <use xlink:href="#m20b773bfaf" x="0" y="178.641792" style="fill: #779ecb; fill-opacity: 0.1; stroke: #779ecb; stroke-opacity: 0.1"/>
    </g>
   </g>
   <g id="line2d_18">
    <path d="M 170.980461 47.813761 
L 231.439956 47.813761 
" clip-path="url(#pb25e16c505)" style="fill: none; stroke: #779ecb; stroke-width: 0.5; stroke-linecap: square"/>
   </g>
   <g id="line2d_19">
    <path d="M 186.299131 76.452469 
L 186.299131 35.880966 
" clip-path="url(#pb25e16c505)" style="fill: none; stroke: #779ecb; stroke-width: 0.5; stroke-linecap: square"/>
   </g>
   <g id="line2d_20">
    <path d="M 106.099923 -1 
L 242.96032 81.736925 
L 242.96032 81.736925 
" clip-path="url(#pb25e16c505)" style="fill: none; stroke-dasharray: 2.59,1.12; stroke-dashoffset: 0; stroke: #77dd77; stroke-width: 0.7"/>
   </g>
   <g id="PolyCollection_3">
    <path d="M -93.132221 -142.803509 
L -93.132221 -135.614834 
L -90.733696 -133.964616 
L -88.335171 -132.308734 
L -85.936647 -130.647419 
L -83.538122 -128.980932 
L -81.139597 -127.309558 
L -78.741072 -125.633609 
L -76.342168 -123.953149 
L -73.943644 -122.269061 
L -71.545119 -120.58144 
L -69.146594 -118.890663 
L -66.74807 -117.197106 
L -64.349545 -115.501151 
L -61.95102 -113.803179 
L -59.552496 -112.103564 
L -57.153971 -110.402672 
L -54.755446 -108.700856 
L -52.356922 -106.998462 
L -49.958397 -105.295817 
L -47.559872 -103.593231 
L -45.160968 -101.89073 
L -42.762443 -100.189129 
L -40.363919 -98.488423 
L -37.965394 -96.78885 
L -35.566869 -95.090634 
L -33.168345 -93.393987 
L -30.76982 -91.699096 
L -28.371295 -90.006143 
L -25.972771 -88.315279 
L -23.574246 -86.626655 
L -21.175721 -84.940408 
L -18.777196 -83.256647 
L -16.378672 -81.575484 
L -13.980147 -79.897021 
L -11.581243 -78.221069 
L -9.182718 -76.548235 
L -6.784194 -74.87832 
L -4.385669 -73.211386 
L -1.987144 -71.547473 
L 0.41138 -69.88663 
L 2.809905 -68.228881 
L 5.20843 -66.574259 
L 7.606955 -64.922789 
L 10.005479 -63.274476 
L 12.404004 -61.629335 
L 14.802529 -59.987375 
L 17.201053 -58.348585 
L 19.599957 -56.712711 
L 21.998482 -55.080256 
L 24.397007 -53.450957 
L 26.795531 -51.824789 
L 29.194056 -50.201741 
L 31.592581 -48.581779 
L 33.991106 -46.964898 
L 36.38963 -45.35106 
L 38.788155 -43.740229 
L 41.18668 -42.132394 
L 43.585204 -40.527513 
L 45.983729 -38.925544 
L 48.382254 -37.326473 
L 50.781158 -35.730001 
L 53.179682 -34.136604 
L 55.578207 -32.545983 
L 57.976732 -30.958123 
L 60.375256 -29.372981 
L 62.773781 -27.790516 
L 65.172306 -26.210715 
L 67.570831 -24.633539 
L 69.969355 -23.058952 
L 72.36788 -21.486947 
L 74.766405 -19.917492 
L 77.164929 -18.350556 
L 79.563454 -16.78614 
L 81.961979 -15.224218 
L 84.360883 -13.664526 
L 86.759407 -12.107552 
L 89.157932 -10.553027 
L 91.556457 -9.000961 
L 93.954982 -7.45134 
L 96.353506 -5.904151 
L 98.752031 -4.359411 
L 101.150556 -2.81711 
L 103.54908 -1.277241 
L 105.947605 0.260174 
L 108.34613 1.795142 
L 110.744654 3.327665 
L 113.143179 4.857721 
L 115.542083 6.385557 
L 117.940608 7.910678 
L 120.339133 9.433331 
L 122.737657 10.953495 
L 125.136182 12.471173 
L 127.534707 13.986372 
L 129.933231 15.499071 
L 132.331756 17.009282 
L 134.730281 18.517014 
L 137.128805 20.022255 
L 139.52733 21.525022 
L 141.925855 23.025335 
L 144.32438 24.523189 
L 146.723284 26.018849 
L 149.121808 27.511866 
L 151.520333 29.002477 
L 153.918858 30.490744 
L 156.317382 31.976682 
L 158.715907 33.460306 
L 161.114432 34.94169 
L 163.512956 36.420857 
L 165.911481 37.897833 
L 168.310006 39.372701 
L 170.70853 40.845493 
L 173.107055 42.316242 
L 175.50558 43.785038 
L 177.904484 45.252143 
L 180.303009 46.717163 
L 182.701533 48.180362 
L 185.100058 49.641834 
L 187.498583 51.10162 
L 189.897107 52.55976 
L 192.295632 54.016346 
L 194.694157 55.471418 
L 197.092681 56.925014 
L 199.491206 58.377226 
L 201.889731 59.828089 
L 204.288256 61.277639 
L 206.68678 62.725962 
L 209.085684 64.173315 
L 211.484209 65.619301 
L 213.882734 67.064173 
L 216.281258 68.508011 
L 218.679783 69.950843 
L 221.078308 71.392695 
L 223.476832 72.833644 
L 225.875357 74.273713 
L 228.273882 75.712926 
L 230.672407 77.151355 
L 233.070931 78.589022 
L 235.469456 80.025946 
L 237.867981 81.462198 
L 240.266505 82.897798 
L 242.665409 84.333002 
L 245.063934 85.767387 
L 247.462459 87.201243 
L 249.860983 88.63459 
L 252.259508 90.067445 
L 254.658033 91.499878 
L 257.056558 92.931908 
L 259.455082 94.363554 
L 261.853607 95.794886 
L 264.252132 97.225923 
L 266.650656 98.656685 
L 269.049181 100.087243 
L 271.447706 101.5176 
L 273.84661 102.948048 
L 276.245134 104.378166 
L 278.643659 105.808214 
L 281.042184 107.23821 
L 283.440708 108.668228 
L 285.839233 110.098288 
L 288.237758 111.528412 
L 290.636283 112.95867 
L 293.034807 114.389084 
L 295.433332 115.819675 
L 297.831857 117.250512 
L 300.230381 118.681617 
L 302.628906 120.113008 
L 305.02781 121.544977 
L 307.426335 122.977101 
L 309.824859 124.409635 
L 312.223384 125.842598 
L 314.621909 127.276057 
L 317.020434 128.71003 
L 319.418958 130.144533 
L 321.817483 131.579633 
L 324.216008 133.015345 
L 326.614532 134.451684 
L 329.013057 135.888716 
L 331.411582 137.326454 
L 333.810106 138.764912 
L 336.208631 140.204152 
L 338.607535 141.644411 
L 341.00606 143.085271 
L 343.404585 144.526966 
L 345.803109 145.969558 
L 348.201634 147.413056 
L 350.600159 148.857469 
L 352.998683 150.302856 
L 355.397208 151.749227 
L 357.795733 153.196587 
L 360.194257 154.644995 
L 362.592782 156.094456 
L 364.991307 157.544975 
L 367.389832 158.996609 
L 369.788736 160.449585 
L 372.18726 161.903475 
L 374.585785 163.358504 
L 376.98431 164.814728 
L 379.382834 166.272145 
L 381.781359 167.730756 
L 384.179884 169.190611 
L 384.179884 145.340892 
L 384.179884 145.340892 
L 381.781359 144.391845 
L 379.382834 143.435679 
L 376.98431 142.472395 
L 374.585785 141.502033 
L 372.18726 140.524629 
L 369.788736 139.540187 
L 367.389832 138.548595 
L 364.991307 137.550187 
L 362.592782 136.544852 
L 360.194257 135.532598 
L 357.795733 134.513466 
L 355.397208 133.487501 
L 352.998683 132.454712 
L 350.600159 131.415143 
L 348.201634 130.36884 
L 345.803109 129.315814 
L 343.404585 128.256111 
L 341.00606 127.18978 
L 338.607535 126.116831 
L 336.208631 125.037146 
L 333.810106 123.951096 
L 331.411582 122.858564 
L 329.013057 121.759562 
L 326.614532 120.654142 
L 324.216008 119.542355 
L 321.817483 118.424214 
L 319.418958 117.299772 
L 317.020434 116.16908 
L 314.621909 115.032153 
L 312.223384 113.889043 
L 309.824859 112.739806 
L 307.426335 111.584453 
L 305.02781 110.423039 
L 302.628906 109.255425 
L 300.230381 108.082025 
L 297.831857 106.902673 
L 295.433332 105.717425 
L 293.034807 104.526335 
L 290.636283 103.329417 
L 288.237758 102.126726 
L 285.839233 100.918316 
L 283.440708 99.704201 
L 281.042184 98.484433 
L 278.643659 97.259069 
L 276.245134 96.028117 
L 273.84661 94.791631 
L 271.447706 93.549458 
L 269.049181 92.302032 
L 266.650656 91.049169 
L 264.252132 89.790935 
L 261.853607 88.527335 
L 259.455082 87.258418 
L 257.056558 85.984233 
L 254.658033 84.704781 
L 252.259508 83.420108 
L 249.860983 82.130262 
L 247.462459 80.83524 
L 245.063934 79.535087 
L 242.665409 78.229846 
L 240.266505 76.919311 
L 237.867981 75.603929 
L 235.469456 74.283523 
L 233.070931 72.958134 
L 230.672407 71.627757 
L 228.273882 70.292432 
L 225.875357 68.952199 
L 223.476832 67.607052 
L 221.078308 66.25703 
L 218.679783 64.902174 
L 216.281258 63.542477 
L 213.882734 62.177981 
L 211.484209 60.808726 
L 209.085684 59.434708 
L 206.68678 58.055754 
L 204.288256 56.672318 
L 201.889731 55.284231 
L 199.491206 53.891486 
L 197.092681 52.494129 
L 194.694157 51.092204 
L 192.295632 49.685705 
L 189.897107 48.274679 
L 187.498583 46.859169 
L 185.100058 45.439169 
L 182.701533 44.014725 
L 180.303009 42.585879 
L 177.904484 41.152623 
L 175.50558 39.714777 
L 173.107055 38.272807 
L 170.70853 36.826533 
L 168.310006 35.375938 
L 165.911481 33.921059 
L 163.512956 32.461929 
L 161.114432 30.998527 
L 158.715907 29.530882 
L 156.317382 28.059021 
L 153.918858 26.582916 
L 151.520333 25.102588 
L 149.121808 23.618056 
L 146.723284 22.129286 
L 144.32438 20.636062 
L 141.925855 19.138848 
L 139.52733 17.637392 
L 137.128805 16.131703 
L 134.730281 14.621764 
L 132.331756 13.107557 
L 129.933231 11.589091 
L 127.534707 10.066346 
L 125.136182 8.539306 
L 122.737657 7.007979 
L 120.339133 5.47235 
L 117.940608 3.932406 
L 115.542083 2.388163 
L 113.143179 0.839363 
L 110.744654 -0.713493 
L 108.34613 -2.270654 
L 105.947605 -3.832091 
L 103.54908 -5.397794 
L 101.150556 -6.967752 
L 98.752031 -8.541919 
L 96.353506 -10.120272 
L 93.954982 -11.702784 
L 91.556457 -13.289392 
L 89.157932 -14.880059 
L 86.759407 -16.474742 
L 84.360883 -18.073365 
L 81.961979 -19.676132 
L 79.563454 -21.282465 
L 77.164929 -22.892549 
L 74.766405 -24.506319 
L 72.36788 -26.123678 
L 69.969355 -27.744554 
L 67.570831 -29.368871 
L 65.172306 -30.996522 
L 62.773781 -32.627426 
L 60.375256 -34.261499 
L 57.976732 -35.898626 
L 55.578207 -37.538719 
L 53.179682 -39.18169 
L 50.781158 -40.827419 
L 48.382254 -42.476079 
L 45.983729 -44.127041 
L 43.585204 -45.780478 
L 41.18668 -47.436268 
L 38.788155 -49.094321 
L 36.38963 -50.754548 
L 33.991106 -52.416829 
L 31.592581 -54.081077 
L 29.194056 -55.747206 
L 26.795531 -57.415104 
L 24.397007 -59.084693 
L 21.998482 -60.755874 
L 19.599957 -62.428571 
L 17.201053 -64.102961 
L 14.802529 -65.778436 
L 12.404004 -67.45518 
L 10.005479 -69.133131 
L 7.606955 -70.812217 
L 5.20843 -72.492371 
L 2.809905 -74.173545 
L 0.41138 -75.855684 
L -1.987144 -77.538738 
L -4.385669 -79.222677 
L -6.784194 -80.90746 
L -9.182718 -82.593073 
L -11.581243 -84.279495 
L -13.980147 -85.966985 
L -16.378672 -87.655009 
L -18.777196 -89.343854 
L -21.175721 -91.033538 
L -23.574246 -92.724092 
L -25.972771 -94.41557 
L -28.371295 -96.108028 
L -30.76982 -97.801534 
L -33.168345 -99.496185 
L -35.566869 -101.192076 
L -37.965394 -102.889332 
L -40.363919 -104.588083 
L -42.762443 -106.288483 
L -45.160968 -107.990704 
L -47.559872 -109.6952 
L -49.958397 -111.401638 
L -52.356922 -113.110511 
L -54.755446 -114.822059 
L -57.153971 -116.53654 
L -59.552496 -118.254221 
L -61.95102 -119.975388 
L -64.349545 -121.700337 
L -66.74807 -123.429371 
L -69.146594 -125.162799 
L -71.545119 -126.900931 
L -73.943644 -128.644078 
L -76.342168 -130.392542 
L -78.741072 -132.146897 
L -81.139597 -133.906866 
L -83.538122 -135.67299 
L -85.936647 -137.445512 
L -88.335171 -139.224648 
L -90.733696 -141.010592 
L -93.132221 -142.803509 
z
" clip-path="url(#pb25e16c505)" style="fill: #ff6961; fill-opacity: 0.2; stroke: #ff6961; stroke-opacity: 0.2"/>
   </g>
   <g id="patch_10">
    <path d="M 170.980461 35.880966 
L 151.774759 99.201564 
" style="fill: none; stroke: #b2b2b2; stroke-width: 0.5"/>
   </g>
   <g id="patch_11">
    <path d="M 231.439956 76.452469 
L 174.407839 113.691386 
" style="fill: none; stroke: #b2b2b2; stroke-width: 0.5"/>
   </g>
   <g id="matplotlib.axis_3">
    <g id="xtick_5">
     <g id="line2d_21">
      <g>
       <use xlink:href="#m6d379bd9b6" x="193.255012" y="76.452469" style="stroke: #000000; stroke-width: 0.5"/>
      </g>
     </g>
     <g id="text_19">
      <!-- $\mathdefault{3.28}$ -->
      <g transform="translate(184.399304 87.370967) scale(0.1 -0.1)">
       <defs>
        <path id="CMR17-38" d="M 1741 2264 
C 2144 2467 2554 2773 2554 3263 
C 2554 3841 1990 4179 1472 4179 
C 890 4179 378 3759 378 3180 
C 378 3021 416 2747 666 2505 
C 730 2442 998 2251 1171 2130 
C 883 1983 211 1634 211 934 
C 211 279 838 -128 1459 -128 
C 2144 -128 2720 362 2720 1010 
C 2720 1590 2330 1857 2074 2029 
L 1741 2264 
z
M 902 2822 
C 851 2854 595 3051 595 3351 
C 595 3739 998 4032 1459 4032 
C 1965 4032 2336 3676 2336 3262 
C 2336 2669 1670 2331 1638 2331 
C 1632 2331 1626 2331 1574 2370 
L 902 2822 
z
M 2080 1519 
C 2176 1449 2483 1240 2483 851 
C 2483 381 2010 25 1472 25 
C 890 25 448 438 448 940 
C 448 1443 838 1862 1280 2060 
L 2080 1519 
z
" transform="scale(0.015625)"/>
       </defs>
       <use xlink:href="#CMR17-33" transform="scale(0.996264)"/>
       <use xlink:href="#CMMI12-3a" transform="translate(45.690477 0) scale(0.996264)"/>
       <use xlink:href="#CMR17-32" transform="translate(72.787654 0) scale(0.996264)"/>
       <use xlink:href="#CMR17-38" transform="translate(118.478131 0) scale(0.996264)"/>
      </g>
     </g>
    </g>
    <g id="xtick_6">
     <g id="line2d_22">
      <g>
       <use xlink:href="#m6d379bd9b6" x="225.075798" y="76.452469" style="stroke: #000000; stroke-width: 0.5"/>
      </g>
     </g>
     <g id="text_20">
      <!-- $\mathdefault{3.30}$ -->
      <g transform="translate(216.220091 87.370967) scale(0.1 -0.1)">
       <use xlink:href="#CMR17-33" transform="scale(0.996264)"/>
       <use xlink:href="#CMMI12-3a" transform="translate(45.690477 0) scale(0.996264)"/>
       <use xlink:href="#CMR17-33" transform="translate(72.787654 0) scale(0.996264)"/>
       <use xlink:href="#CMR17-30" transform="translate(118.478131 0) scale(0.996264)"/>
      </g>
     </g>
    </g>
   </g>
   <g id="matplotlib.axis_4">
    <g id="ytick_7">
     <g id="line2d_23">
      <g>
       <use xlink:href="#m3f26db95e1" x="170.980461" y="47.813761" style="stroke: #000000; stroke-width: 0.5"/>
      </g>
     </g>
     <g id="text_21">
      <!-- $1$ -->
      <g transform="translate(161.999126 51.27301) scale(0.1 -0.1)">
       <use xlink:href="#CMR17-31" transform="scale(0.996264)"/>
      </g>
     </g>
    </g>
   </g>
   <g id="LineCollection_3">
    <path clip-path="url(#pb25e16c505)" style="fill: none; stroke: #ff6961; stroke-width: 0.5"/>
    <path clip-path="url(#pb25e16c505)" style="fill: none; stroke: #ff6961; stroke-width: 0.5"/>
    <path d="M 105.747848 2.623019 
L 105.747848 -0.805834 
" clip-path="url(#pb25e16c505)" style="fill: none; stroke: #ff6961; stroke-width: 0.5"/>
    <path d="M 177.344618 44.478741 
L 177.344618 39.417983 
" clip-path="url(#pb25e16c505)" style="fill: none; stroke: #ff6961; stroke-width: 0.5"/>
    <path d="M 185.299815 49.464981 
L 185.299815 44.224902 
" clip-path="url(#pb25e16c505)" style="fill: none; stroke: #ff6961; stroke-width: 0.5"/>
    <path d="M 193.255012 54.426505 
L 193.255012 48.997049 
" clip-path="url(#pb25e16c505)" style="fill: none; stroke: #ff6961; stroke-width: 0.5"/>
    <path d="M 209.165405 64.274616 
L 209.165405 58.442236 
" clip-path="url(#pb25e16c505)" style="fill: none; stroke: #ff6961; stroke-width: 0.5"/>
    <path d="M 225.075798 74.021787 
L 225.075798 67.743973 
" clip-path="url(#pb25e16c505)" style="fill: none; stroke: #ff6961; stroke-width: 0.5"/>
    <path clip-path="url(#pb25e16c505)" style="fill: none; stroke: #ff6961; stroke-width: 0.5"/>
    <path clip-path="url(#pb25e16c505)" style="fill: none; stroke: #ff6961; stroke-width: 0.5"/>
   </g>
   <g id="line2d_24">
    <path d="M 107.165237 -1 
L 127.534707 12.026359 
L 149.121808 25.564961 
L 170.70853 38.836013 
L 192.295632 51.851026 
L 213.882734 64.621077 
L 235.469456 77.154734 
L 242.96032 81.449849 
L 242.96032 81.449849 
" clip-path="url(#pb25e16c505)" style="fill: none; stroke: #ff6961; stroke-width: 0.9; stroke-linecap: square"/>
   </g>
   <g id="line2d_25">
    <defs>
     <path id="mb838ef1d14" d="M 0 0.5 
C 0.132602 0.5 0.25979 0.447317 0.353553 0.353553 
C 0.447317 0.25979 0.5 0.132602 0.5 0 
C 0.5 -0.132602 0.447317 -0.25979 0.353553 -0.353553 
C 0.25979 -0.447317 0.132602 -0.5 0 -0.5 
C -0.132602 -0.5 -0.25979 -0.447317 -0.353553 -0.353553 
C -0.447317 -0.25979 -0.5 -0.132602 -0.5 0 
C -0.5 0.132602 -0.447317 0.25979 -0.353553 0.353553 
C -0.25979 0.447317 -0.132602 0.5 0 0.5 
z
" style="stroke: #ff6961"/>
    </defs>
    <g clip-path="url(#pb25e16c505)">
     <use xlink:href="#mb838ef1d14" x="103.248833" y="-1" style="fill: #ff6961; fill-opacity: 0.498039; stroke: #ff6961"/>
     <use xlink:href="#mb838ef1d14" x="105.747848" y="0.908592" style="fill: #ff6961; fill-opacity: 0.498039; stroke: #ff6961"/>
     <use xlink:href="#mb838ef1d14" x="177.344618" y="41.948362" style="fill: #ff6961; fill-opacity: 0.498039; stroke: #ff6961"/>
     <use xlink:href="#mb838ef1d14" x="185.299815" y="46.844941" style="fill: #ff6961; fill-opacity: 0.498039; stroke: #ff6961"/>
     <use xlink:href="#mb838ef1d14" x="193.255012" y="51.711777" style="fill: #ff6961; fill-opacity: 0.498039; stroke: #ff6961"/>
     <use xlink:href="#mb838ef1d14" x="209.165405" y="61.358426" style="fill: #ff6961; fill-opacity: 0.498039; stroke: #ff6961"/>
     <use xlink:href="#mb838ef1d14" x="225.075798" y="70.88288" style="fill: #ff6961; fill-opacity: 0.498039; stroke: #ff6961"/>
     <use xlink:href="#mb838ef1d14" x="298.263608" y="112.662518" style="fill: #ff6961; fill-opacity: 0.498039; stroke: #ff6961"/>
     <use xlink:href="#mb838ef1d14" x="384.179732" y="159.888389" style="fill: #ff6961; fill-opacity: 0.498039; stroke: #ff6961"/>
    </g>
   </g>
   <g id="patch_12">
    <path d="M 170.980461 76.452469 
L 170.980461 35.880966 
" style="fill: none; stroke: #000000; stroke-width: 0.75; stroke-linejoin: miter; stroke-linecap: square"/>
   </g>
   <g id="patch_13">
    <path d="M 170.980461 76.452469 
L 231.439956 76.452469 
" style="fill: none; stroke: #000000; stroke-width: 0.75; stroke-linejoin: miter; stroke-linecap: square"/>
   </g>
  </g>
 </g>
 <defs>
  <clipPath id="p018b9ca2c0">
   <rect x="43.969761" y="29.814357" width="196.550559" height="122.569119"/>
  </clipPath>
  <clipPath id="pb25e16c505">
   <rect x="170.980461" y="35.880966" width="60.459495" height="40.571503"/>
  </clipPath>
 </defs>
</svg>
